M48
; DRILL file KiCad 10.0.3 date 2026-06-29T08:50:39
; FORMAT={-:-/ absolute / metric / decimal}
; #@! TF.CreationDate,2026-06-29T08:50:39+02:00
; #@! TF.GenerationSoftware,Kicad,Pcbnew,10.0.3
; #@! TF.FileFunction,Plated,1,4,PTH
FMAT,2
METRIC
; #@! TA.AperFunction,Plated,PTH,ViaDrill
T1C0.200
; #@! TA.AperFunction,Plated,PTH,ComponentDrill
T2C1.000
%
G90
G05
T1
X110.9Y-104.0
X111.5Y-103.4
X112.2Y-103.4
X112.3Y-105.9
X112.3Y-106.4
X112.9Y-100.2
X112.9Y-103.4
X113.12Y-107.31
X114.02Y-101.78
X114.76Y-109.01
X114.8Y-97.6
X114.8Y-105.8
X115.0Y-101.4
X115.0Y-101.9
X115.03Y-109.98
X115.4Y-97.6
X115.4Y-104.7
X115.4Y-105.2
X115.49Y-103.28
X115.5Y-101.1
X116.7Y-107.7
X117.6Y-101.7
X117.7Y-108.5
X117.7Y-109.1
X117.7Y-109.7
X118.55Y-106.39
X119.3Y-99.7
X120.1Y-108.3
X120.1Y-108.8
X120.32Y-103.32
X120.7Y-110.7
X121.4Y-98.6
X121.4Y-99.1
X121.4Y-99.6
X121.4Y-100.1
X122.1Y-105.9
X122.19Y-105.17
X122.3Y-97.9
X123.4Y-99.3
X123.4Y-101.7
X123.99Y-108.25
X124.67Y-99.45
X125.2Y-98.1
X127.113Y-100.701
X127.508Y-101.006
X127.9Y-109.9
X128.1Y-100.9
X128.58Y-101.04
X128.604Y-107.166
X128.9Y-99.3
X129.1Y-109.5
X129.3Y-101.04
X129.322Y-108.59
X129.8Y-100.8
X130.595Y-109.4
X131.02Y-107.0
X131.447Y-104.5
X131.5Y-98.7
X131.78Y-110.63
X131.89Y-108.954
X132.1Y-98.7
X132.6Y-110.7
X132.7Y-98.7
X132.905Y-105.13
X133.065Y-106.423
X133.1Y-101.2
X133.279Y-103.615
X133.36Y-107.79
X133.4Y-104.1
X133.5Y-100.2
X133.5Y-106.85
X133.9Y-104.1
X133.99Y-107.78
X134.1Y-99.3
X134.1Y-106.85
X134.4Y-104.1
X134.62Y-107.78
X134.7Y-106.85
X134.9Y-103.9
X135.1Y-100.3
X135.1Y-109.8
X135.2Y-106.6
X135.237Y-107.395
X135.3Y-103.5
X135.3Y-104.9
X135.3Y-107.9
X135.567Y-107.019
X135.6Y-106.2
X135.7Y-103.1
X135.7Y-104.4
X135.8Y-105.2
X136.0Y-107.6
X136.1Y-102.7
X136.1Y-104.0
X136.2Y-101.3
X136.2Y-106.3
X136.3Y-99.3
X136.4Y-105.2
X136.5Y-102.3
X136.5Y-103.6
X136.5Y-107.4
X136.9Y-101.9
X136.9Y-103.2
X136.9Y-107.0
X137.05Y-105.25
X137.3Y-101.5
X137.3Y-102.8
X137.4Y-107.5
X137.5Y-108.4
X137.7Y-101.1
X137.7Y-102.4
X137.8Y-104.8
X137.9Y-103.7
X137.9Y-104.3
X138.0Y-107.7
X138.1Y-100.7
X138.1Y-102.0
X138.1Y-105.9
X138.1Y-106.7
X138.2Y-103.2
X138.4Y-111.3
X139.4Y-100.2
X139.4Y-102.2
X139.4Y-106.2
X139.4Y-108.2
X140.9Y-107.6
X140.9Y-108.1
X140.9Y-108.6
T2
X142.6Y-98.35G85X141.1Y-98.35
G05
X142.6Y-110.05G85X141.1Y-110.05
G05
M30
