G04 #@! TF.GenerationSoftware,KiCad,Pcbnew,10.0.5*
G04 #@! TF.CreationDate,2026-08-18T20:26:12+02:00*
G04 #@! TF.ProjectId,ovrdrive,6f767264-7269-4766-952e-6b696361645f,rev?*
G04 #@! TF.SameCoordinates,Original*
G04 #@! TF.FileFunction,Paste,Top*
G04 #@! TF.FilePolarity,Positive*
%FSLAX46Y46*%
G04 Gerber Fmt 4.6, Leading zero omitted, Abs format (unit mm)*
G04 Created by KiCad (PCBNEW 10.0.5) date 2026-08-18 20:26:12*
%MOMM*%
%LPD*%
G01*
G04 APERTURE LIST*
G04 Aperture macros list*
%AMRoundRect*
0 Rectangle with rounded corners*
0 $1 Rounding radius*
0 $2 $3 $4 $5 $6 $7 $8 $9 X,Y pos of 4 corners*
0 Add a 4 corners polygon primitive as box body*
4,1,4,$2,$3,$4,$5,$6,$7,$8,$9,$2,$3,0*
0 Add four circle primitives for the rounded corners*
1,1,$1+$1,$2,$3*
1,1,$1+$1,$4,$5*
1,1,$1+$1,$6,$7*
1,1,$1+$1,$8,$9*
0 Add four rect primitives between the rounded corners*
20,1,$1+$1,$2,$3,$4,$5,0*
20,1,$1+$1,$4,$5,$6,$7,0*
20,1,$1+$1,$6,$7,$8,$9,0*
20,1,$1+$1,$8,$9,$2,$3,0*%
G04 Aperture macros list end*
%ADD10RoundRect,0.140000X-0.140000X-0.170000X0.140000X-0.170000X0.140000X0.170000X-0.140000X0.170000X0*%
%ADD11RoundRect,0.140000X0.140000X0.170000X-0.140000X0.170000X-0.140000X-0.170000X0.140000X-0.170000X0*%
%ADD12RoundRect,0.075000X-0.075000X0.075000X-0.075000X-0.075000X0.075000X-0.075000X0.075000X0.075000X0*%
%ADD13RoundRect,0.150000X0.512500X0.150000X-0.512500X0.150000X-0.512500X-0.150000X0.512500X-0.150000X0*%
%ADD14RoundRect,0.140000X0.170000X-0.140000X0.170000X0.140000X-0.170000X0.140000X-0.170000X-0.140000X0*%
%ADD15RoundRect,0.140000X-0.170000X0.140000X-0.170000X-0.140000X0.170000X-0.140000X0.170000X0.140000X0*%
%ADD16R,0.320000X0.500000*%
%ADD17RoundRect,0.250000X-0.275000X-1.250000X0.275000X-1.250000X0.275000X1.250000X-0.275000X1.250000X0*%
%ADD18RoundRect,0.200000X-0.800000X0.200000X-0.800000X-0.200000X0.800000X-0.200000X0.800000X0.200000X0*%
%ADD19RoundRect,0.250000X-0.450000X-0.350000X0.450000X-0.350000X0.450000X0.350000X-0.450000X0.350000X0*%
%ADD20RoundRect,0.250000X0.275000X0.275000X-0.275000X0.275000X-0.275000X-0.275000X0.275000X-0.275000X0*%
%ADD21RoundRect,0.050000X0.362500X0.050000X-0.362500X0.050000X-0.362500X-0.050000X0.362500X-0.050000X0*%
%ADD22RoundRect,0.050000X0.050000X0.362500X-0.050000X0.362500X-0.050000X-0.362500X0.050000X-0.362500X0*%
G04 APERTURE END LIST*
D10*
G04 #@! TO.C,R5*
X118220000Y-104000000D03*
X119180000Y-104000000D03*
G04 #@! TD*
D11*
G04 #@! TO.C,C8*
X119460000Y-110700000D03*
X118500000Y-110700000D03*
G04 #@! TD*
D12*
G04 #@! TO.C,U5*
X138875000Y-106850000D03*
X138875000Y-107550000D03*
X139725000Y-107200000D03*
G04 #@! TD*
D13*
G04 #@! TO.C,U2*
X115717500Y-108250000D03*
X115717500Y-107300000D03*
X115717500Y-106350000D03*
X113442500Y-106350000D03*
X113442500Y-108250000D03*
G04 #@! TD*
D14*
G04 #@! TO.C,C4*
X112700000Y-105200000D03*
X112700000Y-104240000D03*
G04 #@! TD*
D11*
G04 #@! TO.C,C9*
X119720000Y-97400000D03*
X118760000Y-97400000D03*
G04 #@! TD*
D14*
G04 #@! TO.C,C6*
X111700000Y-105200000D03*
X111700000Y-104240000D03*
G04 #@! TD*
D10*
G04 #@! TO.C,C10*
X120660000Y-97400000D03*
X121620000Y-97400000D03*
G04 #@! TD*
D11*
G04 #@! TO.C,C28*
X134605000Y-106150000D03*
X133645000Y-106150000D03*
G04 #@! TD*
D15*
G04 #@! TO.C,C15*
X129600000Y-109020000D03*
X129600000Y-109980000D03*
G04 #@! TD*
D11*
G04 #@! TO.C,C21*
X123380000Y-104500000D03*
X122420000Y-104500000D03*
G04 #@! TD*
D16*
G04 #@! TO.C,RN1*
X125950000Y-98600000D03*
X126450000Y-98600000D03*
X126950000Y-98600000D03*
X127450000Y-98600000D03*
X127450000Y-97600000D03*
X126950000Y-97600000D03*
X126450000Y-97600000D03*
X125950000Y-97600000D03*
G04 #@! TD*
D15*
G04 #@! TO.C,C26*
X128600000Y-109020000D03*
X128600000Y-109980000D03*
G04 #@! TD*
D13*
G04 #@! TO.C,U3*
X116537500Y-102650000D03*
X116537500Y-101700000D03*
X116537500Y-100750000D03*
X114262500Y-100750000D03*
X114262500Y-102650000D03*
G04 #@! TD*
D10*
G04 #@! TO.C,C5*
X113700000Y-105000000D03*
X114660000Y-105000000D03*
G04 #@! TD*
D17*
G04 #@! TO.C,L1*
X117540000Y-106360000D03*
X119490000Y-106360000D03*
G04 #@! TD*
D14*
G04 #@! TO.C,R2*
X112000000Y-109380000D03*
X112000000Y-108420000D03*
G04 #@! TD*
D16*
G04 #@! TO.C,RN2*
X128550000Y-98600000D03*
X129050000Y-98600000D03*
X129550000Y-98600000D03*
X130050000Y-98600000D03*
X130050000Y-97600000D03*
X129550000Y-97600000D03*
X129050000Y-97600000D03*
X128550000Y-97600000D03*
G04 #@! TD*
D11*
G04 #@! TO.C,R1*
X114060000Y-109500000D03*
X113100000Y-109500000D03*
G04 #@! TD*
G04 #@! TO.C,R4*
X114880000Y-104000000D03*
X113920000Y-104000000D03*
G04 #@! TD*
D18*
G04 #@! TO.C,SW1*
X122100000Y-106500000D03*
X122100000Y-110700000D03*
G04 #@! TD*
D10*
G04 #@! TO.C,C27*
X133645000Y-105200000D03*
X134605000Y-105200000D03*
G04 #@! TD*
D11*
G04 #@! TO.C,C23*
X123380000Y-103500000D03*
X122420000Y-103500000D03*
G04 #@! TD*
G04 #@! TO.C,C11*
X119700000Y-102000000D03*
X118740000Y-102000000D03*
G04 #@! TD*
D17*
G04 #@! TO.C,L2*
X118325000Y-99700000D03*
X120275000Y-99700000D03*
G04 #@! TD*
D19*
G04 #@! TO.C,Y2*
X133970000Y-110620000D03*
X136170000Y-110620000D03*
X136170000Y-108920000D03*
X133970000Y-108920000D03*
G04 #@! TD*
D11*
G04 #@! TO.C,C7*
X119460000Y-108700000D03*
X118500000Y-108700000D03*
G04 #@! TD*
D10*
G04 #@! TO.C,C3*
X114240000Y-99400000D03*
X115200000Y-99400000D03*
G04 #@! TD*
G04 #@! TO.C,C2*
X114240000Y-98400000D03*
X115200000Y-98400000D03*
G04 #@! TD*
D15*
G04 #@! TO.C,C1*
X113240000Y-98420000D03*
X113240000Y-99380000D03*
G04 #@! TD*
D11*
G04 #@! TO.C,C17*
X123380000Y-102500000D03*
X122420000Y-102500000D03*
G04 #@! TD*
G04 #@! TO.C,C12*
X119460000Y-109700000D03*
X118500000Y-109700000D03*
G04 #@! TD*
D14*
G04 #@! TO.C,C20*
X132500000Y-110080000D03*
X132500000Y-109120000D03*
G04 #@! TD*
D20*
G04 #@! TO.C,U1*
X130472500Y-105890000D03*
X130472500Y-104590000D03*
X130472500Y-103290000D03*
X130472500Y-101990000D03*
X129172500Y-105890000D03*
X129172500Y-104590000D03*
X129172500Y-103290000D03*
X129172500Y-101990000D03*
X127872500Y-105890000D03*
X127872500Y-104590000D03*
X127872500Y-103290000D03*
X127872500Y-101990000D03*
X126572500Y-105890000D03*
X126572500Y-104590000D03*
X126572500Y-103290000D03*
X126572500Y-101990000D03*
D21*
X132460000Y-107140000D03*
X132460000Y-106740000D03*
X132460000Y-106340000D03*
X132460000Y-105940000D03*
X132460000Y-105540000D03*
X132460000Y-105140000D03*
X132460000Y-104740000D03*
X132460000Y-104340000D03*
X132460000Y-103940000D03*
X132460000Y-103540000D03*
X132460000Y-103140000D03*
X132460000Y-102740000D03*
X132460000Y-102340000D03*
X132460000Y-101940000D03*
X132460000Y-101540000D03*
X132460000Y-101140000D03*
X132460000Y-100740000D03*
D22*
X131722500Y-100002500D03*
X131322500Y-100002500D03*
X130922500Y-100002500D03*
X130522500Y-100002500D03*
X130122500Y-100002500D03*
X129722500Y-100002500D03*
X129322500Y-100002500D03*
X128922500Y-100002500D03*
X128522500Y-100002500D03*
X128122500Y-100002500D03*
X127722500Y-100002500D03*
X127322500Y-100002500D03*
X126922500Y-100002500D03*
X126522500Y-100002500D03*
X126122500Y-100002500D03*
X125722500Y-100002500D03*
X125322500Y-100002500D03*
D21*
X124585000Y-100740000D03*
X124585000Y-101140000D03*
X124585000Y-101540000D03*
X124585000Y-101940000D03*
X124585000Y-102340000D03*
X124585000Y-102740000D03*
X124585000Y-103140000D03*
X124585000Y-103540000D03*
X124585000Y-103940000D03*
X124585000Y-104340000D03*
X124585000Y-104740000D03*
X124585000Y-105140000D03*
X124585000Y-105540000D03*
X124585000Y-105940000D03*
X124585000Y-106340000D03*
X124585000Y-106740000D03*
X124585000Y-107140000D03*
D22*
X125322500Y-107877500D03*
X125722500Y-107877500D03*
X126122500Y-107877500D03*
X126522500Y-107877500D03*
X126922500Y-107877500D03*
X127322500Y-107877500D03*
X127722500Y-107877500D03*
X128122500Y-107877500D03*
X128522500Y-107877500D03*
X128922500Y-107877500D03*
X129322500Y-107877500D03*
X129722500Y-107877500D03*
X130122500Y-107877500D03*
X130522500Y-107877500D03*
X130922500Y-107877500D03*
X131322500Y-107877500D03*
X131722500Y-107877500D03*
G04 #@! TD*
D12*
G04 #@! TO.C,U6*
X138850000Y-100850000D03*
X138850000Y-101550000D03*
X139700000Y-101200000D03*
G04 #@! TD*
D15*
G04 #@! TO.C,C19*
X137700000Y-109520000D03*
X137700000Y-110480000D03*
G04 #@! TD*
G04 #@! TO.C,C25*
X130600000Y-109020000D03*
X130600000Y-109980000D03*
G04 #@! TD*
D11*
G04 #@! TO.C,R3*
X116780000Y-104000000D03*
X115820000Y-104000000D03*
G04 #@! TD*
M02*
