G04 #@! TF.GenerationSoftware,KiCad,Pcbnew,10.0.5*
G04 #@! TF.CreationDate,2026-08-18T20:26:12+02:00*
G04 #@! TF.ProjectId,ovrdrive,6f767264-7269-4766-952e-6b696361645f,rev?*
G04 #@! TF.SameCoordinates,Original*
G04 #@! TF.FileFunction,Legend,Top*
G04 #@! TF.FilePolarity,Positive*
%FSLAX46Y46*%
G04 Gerber Fmt 4.6, Leading zero omitted, Abs format (unit mm)*
G04 Created by KiCad (PCBNEW 10.0.5) date 2026-08-18 20:26:12*
%MOMM*%
%LPD*%
G01*
G04 APERTURE LIST*
G04 Aperture macros list*
%AMRoundRect*
0 Rectangle with rounded corners*
0 $1 Rounding radius*
0 $2 $3 $4 $5 $6 $7 $8 $9 X,Y pos of 4 corners*
0 Add a 4 corners polygon primitive as box body*
4,1,4,$2,$3,$4,$5,$6,$7,$8,$9,$2,$3,0*
0 Add four circle primitives for the rounded corners*
1,1,$1+$1,$2,$3*
1,1,$1+$1,$4,$5*
1,1,$1+$1,$6,$7*
1,1,$1+$1,$8,$9*
0 Add four rect primitives between the rounded corners*
20,1,$1+$1,$2,$3,$4,$5,0*
20,1,$1+$1,$4,$5,$6,$7,0*
20,1,$1+$1,$6,$7,$8,$9,0*
20,1,$1+$1,$8,$9,$2,$3,0*%
G04 Aperture macros list end*
%ADD10C,0.150000*%
%ADD11C,0.120000*%
%ADD12RoundRect,0.140000X-0.140000X-0.170000X0.140000X-0.170000X0.140000X0.170000X-0.140000X0.170000X0*%
%ADD13RoundRect,0.140000X0.140000X0.170000X-0.140000X0.170000X-0.140000X-0.170000X0.140000X-0.170000X0*%
%ADD14RoundRect,0.075000X-0.075000X0.075000X-0.075000X-0.075000X0.075000X-0.075000X0.075000X0.075000X0*%
%ADD15RoundRect,0.150000X0.512500X0.150000X-0.512500X0.150000X-0.512500X-0.150000X0.512500X-0.150000X0*%
%ADD16RoundRect,0.140000X0.170000X-0.140000X0.170000X0.140000X-0.170000X0.140000X-0.170000X-0.140000X0*%
%ADD17RoundRect,0.140000X-0.170000X0.140000X-0.170000X-0.140000X0.170000X-0.140000X0.170000X0.140000X0*%
%ADD18R,0.320000X0.500000*%
%ADD19C,1.000000*%
%ADD20RoundRect,0.250000X-0.275000X-1.250000X0.275000X-1.250000X0.275000X1.250000X-0.275000X1.250000X0*%
%ADD21RoundRect,0.200000X-0.800000X0.200000X-0.800000X-0.200000X0.800000X-0.200000X0.800000X0.200000X0*%
%ADD22RoundRect,0.250000X-0.450000X-0.350000X0.450000X-0.350000X0.450000X0.350000X-0.450000X0.350000X0*%
%ADD23RoundRect,0.050000X0.362500X0.050000X-0.362500X0.050000X-0.362500X-0.050000X0.362500X-0.050000X0*%
%ADD24RoundRect,0.050000X0.050000X0.362500X-0.050000X0.362500X-0.050000X-0.362500X0.050000X-0.362500X0*%
%ADD25R,5.200000X5.200000*%
%ADD26C,1.100000*%
%ADD27O,4.000000X1.600000*%
G04 APERTURE END LIST*
D10*
X136846303Y-97944295D02*
X136579636Y-97563342D01*
X136389160Y-97944295D02*
X136389160Y-97144295D01*
X136389160Y-97144295D02*
X136693922Y-97144295D01*
X136693922Y-97144295D02*
X136770112Y-97182390D01*
X136770112Y-97182390D02*
X136808207Y-97220485D01*
X136808207Y-97220485D02*
X136846303Y-97296676D01*
X136846303Y-97296676D02*
X136846303Y-97410961D01*
X136846303Y-97410961D02*
X136808207Y-97487152D01*
X136808207Y-97487152D02*
X136770112Y-97525247D01*
X136770112Y-97525247D02*
X136693922Y-97563342D01*
X136693922Y-97563342D02*
X136389160Y-97563342D01*
X137608207Y-97944295D02*
X137151064Y-97944295D01*
X137379636Y-97944295D02*
X137379636Y-97144295D01*
X137379636Y-97144295D02*
X137303445Y-97258580D01*
X137303445Y-97258580D02*
X137227255Y-97334771D01*
X137227255Y-97334771D02*
X137151064Y-97372866D01*
X137951065Y-97868104D02*
X137989160Y-97906200D01*
X137989160Y-97906200D02*
X137951065Y-97944295D01*
X137951065Y-97944295D02*
X137912969Y-97906200D01*
X137912969Y-97906200D02*
X137951065Y-97868104D01*
X137951065Y-97868104D02*
X137951065Y-97944295D01*
X138484398Y-97144295D02*
X138560588Y-97144295D01*
X138560588Y-97144295D02*
X138636779Y-97182390D01*
X138636779Y-97182390D02*
X138674874Y-97220485D01*
X138674874Y-97220485D02*
X138712969Y-97296676D01*
X138712969Y-97296676D02*
X138751064Y-97449057D01*
X138751064Y-97449057D02*
X138751064Y-97639533D01*
X138751064Y-97639533D02*
X138712969Y-97791914D01*
X138712969Y-97791914D02*
X138674874Y-97868104D01*
X138674874Y-97868104D02*
X138636779Y-97906200D01*
X138636779Y-97906200D02*
X138560588Y-97944295D01*
X138560588Y-97944295D02*
X138484398Y-97944295D01*
X138484398Y-97944295D02*
X138408207Y-97906200D01*
X138408207Y-97906200D02*
X138370112Y-97868104D01*
X138370112Y-97868104D02*
X138332017Y-97791914D01*
X138332017Y-97791914D02*
X138293921Y-97639533D01*
X138293921Y-97639533D02*
X138293921Y-97449057D01*
X138293921Y-97449057D02*
X138332017Y-97296676D01*
X138332017Y-97296676D02*
X138370112Y-97220485D01*
X138370112Y-97220485D02*
X138408207Y-97182390D01*
X138408207Y-97182390D02*
X138484398Y-97144295D01*
X113069819Y-102891792D02*
X112593628Y-103225125D01*
X113069819Y-103463220D02*
X112069819Y-103463220D01*
X112069819Y-103463220D02*
X112069819Y-103082268D01*
X112069819Y-103082268D02*
X112117438Y-102987030D01*
X112117438Y-102987030D02*
X112165057Y-102939411D01*
X112165057Y-102939411D02*
X112260295Y-102891792D01*
X112260295Y-102891792D02*
X112403152Y-102891792D01*
X112403152Y-102891792D02*
X112498390Y-102939411D01*
X112498390Y-102939411D02*
X112546009Y-102987030D01*
X112546009Y-102987030D02*
X112593628Y-103082268D01*
X112593628Y-103082268D02*
X112593628Y-103463220D01*
X112069819Y-102272744D02*
X112069819Y-102177506D01*
X112069819Y-102177506D02*
X112117438Y-102082268D01*
X112117438Y-102082268D02*
X112165057Y-102034649D01*
X112165057Y-102034649D02*
X112260295Y-101987030D01*
X112260295Y-101987030D02*
X112450771Y-101939411D01*
X112450771Y-101939411D02*
X112688866Y-101939411D01*
X112688866Y-101939411D02*
X112879342Y-101987030D01*
X112879342Y-101987030D02*
X112974580Y-102034649D01*
X112974580Y-102034649D02*
X113022200Y-102082268D01*
X113022200Y-102082268D02*
X113069819Y-102177506D01*
X113069819Y-102177506D02*
X113069819Y-102272744D01*
X113069819Y-102272744D02*
X113022200Y-102367982D01*
X113022200Y-102367982D02*
X112974580Y-102415601D01*
X112974580Y-102415601D02*
X112879342Y-102463220D01*
X112879342Y-102463220D02*
X112688866Y-102510839D01*
X112688866Y-102510839D02*
X112450771Y-102510839D01*
X112450771Y-102510839D02*
X112260295Y-102463220D01*
X112260295Y-102463220D02*
X112165057Y-102415601D01*
X112165057Y-102415601D02*
X112117438Y-102367982D01*
X112117438Y-102367982D02*
X112069819Y-102272744D01*
X112974580Y-101510839D02*
X113022200Y-101463220D01*
X113022200Y-101463220D02*
X113069819Y-101510839D01*
X113069819Y-101510839D02*
X113022200Y-101558458D01*
X113022200Y-101558458D02*
X112974580Y-101510839D01*
X112974580Y-101510839D02*
X113069819Y-101510839D01*
X113069819Y-100510840D02*
X113069819Y-101082268D01*
X113069819Y-100796554D02*
X112069819Y-100796554D01*
X112069819Y-100796554D02*
X112212676Y-100891792D01*
X112212676Y-100891792D02*
X112307914Y-100987030D01*
X112307914Y-100987030D02*
X112355533Y-101082268D01*
X118166667Y-103362295D02*
X117900000Y-102981342D01*
X117709524Y-103362295D02*
X117709524Y-102562295D01*
X117709524Y-102562295D02*
X118014286Y-102562295D01*
X118014286Y-102562295D02*
X118090476Y-102600390D01*
X118090476Y-102600390D02*
X118128571Y-102638485D01*
X118128571Y-102638485D02*
X118166667Y-102714676D01*
X118166667Y-102714676D02*
X118166667Y-102828961D01*
X118166667Y-102828961D02*
X118128571Y-102905152D01*
X118128571Y-102905152D02*
X118090476Y-102943247D01*
X118090476Y-102943247D02*
X118014286Y-102981342D01*
X118014286Y-102981342D02*
X117709524Y-102981342D01*
X118890476Y-102562295D02*
X118509524Y-102562295D01*
X118509524Y-102562295D02*
X118471428Y-102943247D01*
X118471428Y-102943247D02*
X118509524Y-102905152D01*
X118509524Y-102905152D02*
X118585714Y-102867057D01*
X118585714Y-102867057D02*
X118776190Y-102867057D01*
X118776190Y-102867057D02*
X118852381Y-102905152D01*
X118852381Y-102905152D02*
X118890476Y-102943247D01*
X118890476Y-102943247D02*
X118928571Y-103019438D01*
X118928571Y-103019438D02*
X118928571Y-103209914D01*
X118928571Y-103209914D02*
X118890476Y-103286104D01*
X118890476Y-103286104D02*
X118852381Y-103324200D01*
X118852381Y-103324200D02*
X118776190Y-103362295D01*
X118776190Y-103362295D02*
X118585714Y-103362295D01*
X118585714Y-103362295D02*
X118509524Y-103324200D01*
X118509524Y-103324200D02*
X118471428Y-103286104D01*
X117166667Y-111186104D02*
X117128571Y-111224200D01*
X117128571Y-111224200D02*
X117014286Y-111262295D01*
X117014286Y-111262295D02*
X116938095Y-111262295D01*
X116938095Y-111262295D02*
X116823809Y-111224200D01*
X116823809Y-111224200D02*
X116747619Y-111148009D01*
X116747619Y-111148009D02*
X116709524Y-111071819D01*
X116709524Y-111071819D02*
X116671428Y-110919438D01*
X116671428Y-110919438D02*
X116671428Y-110805152D01*
X116671428Y-110805152D02*
X116709524Y-110652771D01*
X116709524Y-110652771D02*
X116747619Y-110576580D01*
X116747619Y-110576580D02*
X116823809Y-110500390D01*
X116823809Y-110500390D02*
X116938095Y-110462295D01*
X116938095Y-110462295D02*
X117014286Y-110462295D01*
X117014286Y-110462295D02*
X117128571Y-110500390D01*
X117128571Y-110500390D02*
X117166667Y-110538485D01*
X117623809Y-110805152D02*
X117547619Y-110767057D01*
X117547619Y-110767057D02*
X117509524Y-110728961D01*
X117509524Y-110728961D02*
X117471428Y-110652771D01*
X117471428Y-110652771D02*
X117471428Y-110614676D01*
X117471428Y-110614676D02*
X117509524Y-110538485D01*
X117509524Y-110538485D02*
X117547619Y-110500390D01*
X117547619Y-110500390D02*
X117623809Y-110462295D01*
X117623809Y-110462295D02*
X117776190Y-110462295D01*
X117776190Y-110462295D02*
X117852381Y-110500390D01*
X117852381Y-110500390D02*
X117890476Y-110538485D01*
X117890476Y-110538485D02*
X117928571Y-110614676D01*
X117928571Y-110614676D02*
X117928571Y-110652771D01*
X117928571Y-110652771D02*
X117890476Y-110728961D01*
X117890476Y-110728961D02*
X117852381Y-110767057D01*
X117852381Y-110767057D02*
X117776190Y-110805152D01*
X117776190Y-110805152D02*
X117623809Y-110805152D01*
X117623809Y-110805152D02*
X117547619Y-110843247D01*
X117547619Y-110843247D02*
X117509524Y-110881342D01*
X117509524Y-110881342D02*
X117471428Y-110957533D01*
X117471428Y-110957533D02*
X117471428Y-111109914D01*
X117471428Y-111109914D02*
X117509524Y-111186104D01*
X117509524Y-111186104D02*
X117547619Y-111224200D01*
X117547619Y-111224200D02*
X117623809Y-111262295D01*
X117623809Y-111262295D02*
X117776190Y-111262295D01*
X117776190Y-111262295D02*
X117852381Y-111224200D01*
X117852381Y-111224200D02*
X117890476Y-111186104D01*
X117890476Y-111186104D02*
X117928571Y-111109914D01*
X117928571Y-111109914D02*
X117928571Y-110957533D01*
X117928571Y-110957533D02*
X117890476Y-110881342D01*
X117890476Y-110881342D02*
X117852381Y-110843247D01*
X117852381Y-110843247D02*
X117776190Y-110805152D01*
X139162295Y-106309523D02*
X139809914Y-106309523D01*
X139809914Y-106309523D02*
X139886104Y-106271428D01*
X139886104Y-106271428D02*
X139924200Y-106233333D01*
X139924200Y-106233333D02*
X139962295Y-106157142D01*
X139962295Y-106157142D02*
X139962295Y-106004761D01*
X139962295Y-106004761D02*
X139924200Y-105928571D01*
X139924200Y-105928571D02*
X139886104Y-105890476D01*
X139886104Y-105890476D02*
X139809914Y-105852380D01*
X139809914Y-105852380D02*
X139162295Y-105852380D01*
X139162295Y-105090476D02*
X139162295Y-105471428D01*
X139162295Y-105471428D02*
X139543247Y-105509524D01*
X139543247Y-105509524D02*
X139505152Y-105471428D01*
X139505152Y-105471428D02*
X139467057Y-105395238D01*
X139467057Y-105395238D02*
X139467057Y-105204762D01*
X139467057Y-105204762D02*
X139505152Y-105128571D01*
X139505152Y-105128571D02*
X139543247Y-105090476D01*
X139543247Y-105090476D02*
X139619438Y-105052381D01*
X139619438Y-105052381D02*
X139809914Y-105052381D01*
X139809914Y-105052381D02*
X139886104Y-105090476D01*
X139886104Y-105090476D02*
X139924200Y-105128571D01*
X139924200Y-105128571D02*
X139962295Y-105204762D01*
X139962295Y-105204762D02*
X139962295Y-105395238D01*
X139962295Y-105395238D02*
X139924200Y-105471428D01*
X139924200Y-105471428D02*
X139886104Y-105509524D01*
X111090476Y-105962295D02*
X111090476Y-106609914D01*
X111090476Y-106609914D02*
X111128571Y-106686104D01*
X111128571Y-106686104D02*
X111166666Y-106724200D01*
X111166666Y-106724200D02*
X111242857Y-106762295D01*
X111242857Y-106762295D02*
X111395238Y-106762295D01*
X111395238Y-106762295D02*
X111471428Y-106724200D01*
X111471428Y-106724200D02*
X111509523Y-106686104D01*
X111509523Y-106686104D02*
X111547619Y-106609914D01*
X111547619Y-106609914D02*
X111547619Y-105962295D01*
X111890475Y-106038485D02*
X111928571Y-106000390D01*
X111928571Y-106000390D02*
X112004761Y-105962295D01*
X112004761Y-105962295D02*
X112195237Y-105962295D01*
X112195237Y-105962295D02*
X112271428Y-106000390D01*
X112271428Y-106000390D02*
X112309523Y-106038485D01*
X112309523Y-106038485D02*
X112347618Y-106114676D01*
X112347618Y-106114676D02*
X112347618Y-106190866D01*
X112347618Y-106190866D02*
X112309523Y-106305152D01*
X112309523Y-106305152D02*
X111852380Y-106762295D01*
X111852380Y-106762295D02*
X112347618Y-106762295D01*
X110986104Y-104833332D02*
X111024200Y-104871428D01*
X111024200Y-104871428D02*
X111062295Y-104985713D01*
X111062295Y-104985713D02*
X111062295Y-105061904D01*
X111062295Y-105061904D02*
X111024200Y-105176190D01*
X111024200Y-105176190D02*
X110948009Y-105252380D01*
X110948009Y-105252380D02*
X110871819Y-105290475D01*
X110871819Y-105290475D02*
X110719438Y-105328571D01*
X110719438Y-105328571D02*
X110605152Y-105328571D01*
X110605152Y-105328571D02*
X110452771Y-105290475D01*
X110452771Y-105290475D02*
X110376580Y-105252380D01*
X110376580Y-105252380D02*
X110300390Y-105176190D01*
X110300390Y-105176190D02*
X110262295Y-105061904D01*
X110262295Y-105061904D02*
X110262295Y-104985713D01*
X110262295Y-104985713D02*
X110300390Y-104871428D01*
X110300390Y-104871428D02*
X110338485Y-104833332D01*
X110528961Y-104147618D02*
X111062295Y-104147618D01*
X110224200Y-104338094D02*
X110795628Y-104528571D01*
X110795628Y-104528571D02*
X110795628Y-104033332D01*
X117366667Y-97486104D02*
X117328571Y-97524200D01*
X117328571Y-97524200D02*
X117214286Y-97562295D01*
X117214286Y-97562295D02*
X117138095Y-97562295D01*
X117138095Y-97562295D02*
X117023809Y-97524200D01*
X117023809Y-97524200D02*
X116947619Y-97448009D01*
X116947619Y-97448009D02*
X116909524Y-97371819D01*
X116909524Y-97371819D02*
X116871428Y-97219438D01*
X116871428Y-97219438D02*
X116871428Y-97105152D01*
X116871428Y-97105152D02*
X116909524Y-96952771D01*
X116909524Y-96952771D02*
X116947619Y-96876580D01*
X116947619Y-96876580D02*
X117023809Y-96800390D01*
X117023809Y-96800390D02*
X117138095Y-96762295D01*
X117138095Y-96762295D02*
X117214286Y-96762295D01*
X117214286Y-96762295D02*
X117328571Y-96800390D01*
X117328571Y-96800390D02*
X117366667Y-96838485D01*
X117747619Y-97562295D02*
X117900000Y-97562295D01*
X117900000Y-97562295D02*
X117976190Y-97524200D01*
X117976190Y-97524200D02*
X118014286Y-97486104D01*
X118014286Y-97486104D02*
X118090476Y-97371819D01*
X118090476Y-97371819D02*
X118128571Y-97219438D01*
X118128571Y-97219438D02*
X118128571Y-96914676D01*
X118128571Y-96914676D02*
X118090476Y-96838485D01*
X118090476Y-96838485D02*
X118052381Y-96800390D01*
X118052381Y-96800390D02*
X117976190Y-96762295D01*
X117976190Y-96762295D02*
X117823809Y-96762295D01*
X117823809Y-96762295D02*
X117747619Y-96800390D01*
X117747619Y-96800390D02*
X117709524Y-96838485D01*
X117709524Y-96838485D02*
X117671428Y-96914676D01*
X117671428Y-96914676D02*
X117671428Y-97105152D01*
X117671428Y-97105152D02*
X117709524Y-97181342D01*
X117709524Y-97181342D02*
X117747619Y-97219438D01*
X117747619Y-97219438D02*
X117823809Y-97257533D01*
X117823809Y-97257533D02*
X117976190Y-97257533D01*
X117976190Y-97257533D02*
X118052381Y-97219438D01*
X118052381Y-97219438D02*
X118090476Y-97181342D01*
X118090476Y-97181342D02*
X118128571Y-97105152D01*
X109886104Y-104833332D02*
X109924200Y-104871428D01*
X109924200Y-104871428D02*
X109962295Y-104985713D01*
X109962295Y-104985713D02*
X109962295Y-105061904D01*
X109962295Y-105061904D02*
X109924200Y-105176190D01*
X109924200Y-105176190D02*
X109848009Y-105252380D01*
X109848009Y-105252380D02*
X109771819Y-105290475D01*
X109771819Y-105290475D02*
X109619438Y-105328571D01*
X109619438Y-105328571D02*
X109505152Y-105328571D01*
X109505152Y-105328571D02*
X109352771Y-105290475D01*
X109352771Y-105290475D02*
X109276580Y-105252380D01*
X109276580Y-105252380D02*
X109200390Y-105176190D01*
X109200390Y-105176190D02*
X109162295Y-105061904D01*
X109162295Y-105061904D02*
X109162295Y-104985713D01*
X109162295Y-104985713D02*
X109200390Y-104871428D01*
X109200390Y-104871428D02*
X109238485Y-104833332D01*
X109162295Y-104147618D02*
X109162295Y-104299999D01*
X109162295Y-104299999D02*
X109200390Y-104376190D01*
X109200390Y-104376190D02*
X109238485Y-104414285D01*
X109238485Y-104414285D02*
X109352771Y-104490475D01*
X109352771Y-104490475D02*
X109505152Y-104528571D01*
X109505152Y-104528571D02*
X109809914Y-104528571D01*
X109809914Y-104528571D02*
X109886104Y-104490475D01*
X109886104Y-104490475D02*
X109924200Y-104452380D01*
X109924200Y-104452380D02*
X109962295Y-104376190D01*
X109962295Y-104376190D02*
X109962295Y-104223809D01*
X109962295Y-104223809D02*
X109924200Y-104147618D01*
X109924200Y-104147618D02*
X109886104Y-104109523D01*
X109886104Y-104109523D02*
X109809914Y-104071428D01*
X109809914Y-104071428D02*
X109619438Y-104071428D01*
X109619438Y-104071428D02*
X109543247Y-104109523D01*
X109543247Y-104109523D02*
X109505152Y-104147618D01*
X109505152Y-104147618D02*
X109467057Y-104223809D01*
X109467057Y-104223809D02*
X109467057Y-104376190D01*
X109467057Y-104376190D02*
X109505152Y-104452380D01*
X109505152Y-104452380D02*
X109543247Y-104490475D01*
X109543247Y-104490475D02*
X109619438Y-104528571D01*
X122685714Y-97486104D02*
X122647618Y-97524200D01*
X122647618Y-97524200D02*
X122533333Y-97562295D01*
X122533333Y-97562295D02*
X122457142Y-97562295D01*
X122457142Y-97562295D02*
X122342856Y-97524200D01*
X122342856Y-97524200D02*
X122266666Y-97448009D01*
X122266666Y-97448009D02*
X122228571Y-97371819D01*
X122228571Y-97371819D02*
X122190475Y-97219438D01*
X122190475Y-97219438D02*
X122190475Y-97105152D01*
X122190475Y-97105152D02*
X122228571Y-96952771D01*
X122228571Y-96952771D02*
X122266666Y-96876580D01*
X122266666Y-96876580D02*
X122342856Y-96800390D01*
X122342856Y-96800390D02*
X122457142Y-96762295D01*
X122457142Y-96762295D02*
X122533333Y-96762295D01*
X122533333Y-96762295D02*
X122647618Y-96800390D01*
X122647618Y-96800390D02*
X122685714Y-96838485D01*
X123447618Y-97562295D02*
X122990475Y-97562295D01*
X123219047Y-97562295D02*
X123219047Y-96762295D01*
X123219047Y-96762295D02*
X123142856Y-96876580D01*
X123142856Y-96876580D02*
X123066666Y-96952771D01*
X123066666Y-96952771D02*
X122990475Y-96990866D01*
X123942857Y-96762295D02*
X124019047Y-96762295D01*
X124019047Y-96762295D02*
X124095238Y-96800390D01*
X124095238Y-96800390D02*
X124133333Y-96838485D01*
X124133333Y-96838485D02*
X124171428Y-96914676D01*
X124171428Y-96914676D02*
X124209523Y-97067057D01*
X124209523Y-97067057D02*
X124209523Y-97257533D01*
X124209523Y-97257533D02*
X124171428Y-97409914D01*
X124171428Y-97409914D02*
X124133333Y-97486104D01*
X124133333Y-97486104D02*
X124095238Y-97524200D01*
X124095238Y-97524200D02*
X124019047Y-97562295D01*
X124019047Y-97562295D02*
X123942857Y-97562295D01*
X123942857Y-97562295D02*
X123866666Y-97524200D01*
X123866666Y-97524200D02*
X123828571Y-97486104D01*
X123828571Y-97486104D02*
X123790476Y-97409914D01*
X123790476Y-97409914D02*
X123752380Y-97257533D01*
X123752380Y-97257533D02*
X123752380Y-97067057D01*
X123752380Y-97067057D02*
X123790476Y-96914676D01*
X123790476Y-96914676D02*
X123828571Y-96838485D01*
X123828571Y-96838485D02*
X123866666Y-96800390D01*
X123866666Y-96800390D02*
X123942857Y-96762295D01*
X135710714Y-106536104D02*
X135672618Y-106574200D01*
X135672618Y-106574200D02*
X135558333Y-106612295D01*
X135558333Y-106612295D02*
X135482142Y-106612295D01*
X135482142Y-106612295D02*
X135367856Y-106574200D01*
X135367856Y-106574200D02*
X135291666Y-106498009D01*
X135291666Y-106498009D02*
X135253571Y-106421819D01*
X135253571Y-106421819D02*
X135215475Y-106269438D01*
X135215475Y-106269438D02*
X135215475Y-106155152D01*
X135215475Y-106155152D02*
X135253571Y-106002771D01*
X135253571Y-106002771D02*
X135291666Y-105926580D01*
X135291666Y-105926580D02*
X135367856Y-105850390D01*
X135367856Y-105850390D02*
X135482142Y-105812295D01*
X135482142Y-105812295D02*
X135558333Y-105812295D01*
X135558333Y-105812295D02*
X135672618Y-105850390D01*
X135672618Y-105850390D02*
X135710714Y-105888485D01*
X136015475Y-105888485D02*
X136053571Y-105850390D01*
X136053571Y-105850390D02*
X136129761Y-105812295D01*
X136129761Y-105812295D02*
X136320237Y-105812295D01*
X136320237Y-105812295D02*
X136396428Y-105850390D01*
X136396428Y-105850390D02*
X136434523Y-105888485D01*
X136434523Y-105888485D02*
X136472618Y-105964676D01*
X136472618Y-105964676D02*
X136472618Y-106040866D01*
X136472618Y-106040866D02*
X136434523Y-106155152D01*
X136434523Y-106155152D02*
X135977380Y-106612295D01*
X135977380Y-106612295D02*
X136472618Y-106612295D01*
X136929761Y-106155152D02*
X136853571Y-106117057D01*
X136853571Y-106117057D02*
X136815476Y-106078961D01*
X136815476Y-106078961D02*
X136777380Y-106002771D01*
X136777380Y-106002771D02*
X136777380Y-105964676D01*
X136777380Y-105964676D02*
X136815476Y-105888485D01*
X136815476Y-105888485D02*
X136853571Y-105850390D01*
X136853571Y-105850390D02*
X136929761Y-105812295D01*
X136929761Y-105812295D02*
X137082142Y-105812295D01*
X137082142Y-105812295D02*
X137158333Y-105850390D01*
X137158333Y-105850390D02*
X137196428Y-105888485D01*
X137196428Y-105888485D02*
X137234523Y-105964676D01*
X137234523Y-105964676D02*
X137234523Y-106002771D01*
X137234523Y-106002771D02*
X137196428Y-106078961D01*
X137196428Y-106078961D02*
X137158333Y-106117057D01*
X137158333Y-106117057D02*
X137082142Y-106155152D01*
X137082142Y-106155152D02*
X136929761Y-106155152D01*
X136929761Y-106155152D02*
X136853571Y-106193247D01*
X136853571Y-106193247D02*
X136815476Y-106231342D01*
X136815476Y-106231342D02*
X136777380Y-106307533D01*
X136777380Y-106307533D02*
X136777380Y-106459914D01*
X136777380Y-106459914D02*
X136815476Y-106536104D01*
X136815476Y-106536104D02*
X136853571Y-106574200D01*
X136853571Y-106574200D02*
X136929761Y-106612295D01*
X136929761Y-106612295D02*
X137082142Y-106612295D01*
X137082142Y-106612295D02*
X137158333Y-106574200D01*
X137158333Y-106574200D02*
X137196428Y-106536104D01*
X137196428Y-106536104D02*
X137234523Y-106459914D01*
X137234523Y-106459914D02*
X137234523Y-106307533D01*
X137234523Y-106307533D02*
X137196428Y-106231342D01*
X137196428Y-106231342D02*
X137158333Y-106193247D01*
X137158333Y-106193247D02*
X137082142Y-106155152D01*
X126886104Y-110214285D02*
X126924200Y-110252381D01*
X126924200Y-110252381D02*
X126962295Y-110366666D01*
X126962295Y-110366666D02*
X126962295Y-110442857D01*
X126962295Y-110442857D02*
X126924200Y-110557143D01*
X126924200Y-110557143D02*
X126848009Y-110633333D01*
X126848009Y-110633333D02*
X126771819Y-110671428D01*
X126771819Y-110671428D02*
X126619438Y-110709524D01*
X126619438Y-110709524D02*
X126505152Y-110709524D01*
X126505152Y-110709524D02*
X126352771Y-110671428D01*
X126352771Y-110671428D02*
X126276580Y-110633333D01*
X126276580Y-110633333D02*
X126200390Y-110557143D01*
X126200390Y-110557143D02*
X126162295Y-110442857D01*
X126162295Y-110442857D02*
X126162295Y-110366666D01*
X126162295Y-110366666D02*
X126200390Y-110252381D01*
X126200390Y-110252381D02*
X126238485Y-110214285D01*
X126962295Y-109452381D02*
X126962295Y-109909524D01*
X126962295Y-109680952D02*
X126162295Y-109680952D01*
X126162295Y-109680952D02*
X126276580Y-109757143D01*
X126276580Y-109757143D02*
X126352771Y-109833333D01*
X126352771Y-109833333D02*
X126390866Y-109909524D01*
X126162295Y-108728571D02*
X126162295Y-109109523D01*
X126162295Y-109109523D02*
X126543247Y-109147619D01*
X126543247Y-109147619D02*
X126505152Y-109109523D01*
X126505152Y-109109523D02*
X126467057Y-109033333D01*
X126467057Y-109033333D02*
X126467057Y-108842857D01*
X126467057Y-108842857D02*
X126505152Y-108766666D01*
X126505152Y-108766666D02*
X126543247Y-108728571D01*
X126543247Y-108728571D02*
X126619438Y-108690476D01*
X126619438Y-108690476D02*
X126809914Y-108690476D01*
X126809914Y-108690476D02*
X126886104Y-108728571D01*
X126886104Y-108728571D02*
X126924200Y-108766666D01*
X126924200Y-108766666D02*
X126962295Y-108842857D01*
X126962295Y-108842857D02*
X126962295Y-109033333D01*
X126962295Y-109033333D02*
X126924200Y-109109523D01*
X126924200Y-109109523D02*
X126886104Y-109147619D01*
X122385714Y-101786104D02*
X122347618Y-101824200D01*
X122347618Y-101824200D02*
X122233333Y-101862295D01*
X122233333Y-101862295D02*
X122157142Y-101862295D01*
X122157142Y-101862295D02*
X122042856Y-101824200D01*
X122042856Y-101824200D02*
X121966666Y-101748009D01*
X121966666Y-101748009D02*
X121928571Y-101671819D01*
X121928571Y-101671819D02*
X121890475Y-101519438D01*
X121890475Y-101519438D02*
X121890475Y-101405152D01*
X121890475Y-101405152D02*
X121928571Y-101252771D01*
X121928571Y-101252771D02*
X121966666Y-101176580D01*
X121966666Y-101176580D02*
X122042856Y-101100390D01*
X122042856Y-101100390D02*
X122157142Y-101062295D01*
X122157142Y-101062295D02*
X122233333Y-101062295D01*
X122233333Y-101062295D02*
X122347618Y-101100390D01*
X122347618Y-101100390D02*
X122385714Y-101138485D01*
X122690475Y-101138485D02*
X122728571Y-101100390D01*
X122728571Y-101100390D02*
X122804761Y-101062295D01*
X122804761Y-101062295D02*
X122995237Y-101062295D01*
X122995237Y-101062295D02*
X123071428Y-101100390D01*
X123071428Y-101100390D02*
X123109523Y-101138485D01*
X123109523Y-101138485D02*
X123147618Y-101214676D01*
X123147618Y-101214676D02*
X123147618Y-101290866D01*
X123147618Y-101290866D02*
X123109523Y-101405152D01*
X123109523Y-101405152D02*
X122652380Y-101862295D01*
X122652380Y-101862295D02*
X123147618Y-101862295D01*
X123909523Y-101862295D02*
X123452380Y-101862295D01*
X123680952Y-101862295D02*
X123680952Y-101062295D01*
X123680952Y-101062295D02*
X123604761Y-101176580D01*
X123604761Y-101176580D02*
X123528571Y-101252771D01*
X123528571Y-101252771D02*
X123452380Y-101290866D01*
X123647619Y-98862295D02*
X123380952Y-98481342D01*
X123190476Y-98862295D02*
X123190476Y-98062295D01*
X123190476Y-98062295D02*
X123495238Y-98062295D01*
X123495238Y-98062295D02*
X123571428Y-98100390D01*
X123571428Y-98100390D02*
X123609523Y-98138485D01*
X123609523Y-98138485D02*
X123647619Y-98214676D01*
X123647619Y-98214676D02*
X123647619Y-98328961D01*
X123647619Y-98328961D02*
X123609523Y-98405152D01*
X123609523Y-98405152D02*
X123571428Y-98443247D01*
X123571428Y-98443247D02*
X123495238Y-98481342D01*
X123495238Y-98481342D02*
X123190476Y-98481342D01*
X123990476Y-98862295D02*
X123990476Y-98062295D01*
X123990476Y-98062295D02*
X124447619Y-98862295D01*
X124447619Y-98862295D02*
X124447619Y-98062295D01*
X125247618Y-98862295D02*
X124790475Y-98862295D01*
X125019047Y-98862295D02*
X125019047Y-98062295D01*
X125019047Y-98062295D02*
X124942856Y-98176580D01*
X124942856Y-98176580D02*
X124866666Y-98252771D01*
X124866666Y-98252771D02*
X124790475Y-98290866D01*
X125886104Y-110214285D02*
X125924200Y-110252381D01*
X125924200Y-110252381D02*
X125962295Y-110366666D01*
X125962295Y-110366666D02*
X125962295Y-110442857D01*
X125962295Y-110442857D02*
X125924200Y-110557143D01*
X125924200Y-110557143D02*
X125848009Y-110633333D01*
X125848009Y-110633333D02*
X125771819Y-110671428D01*
X125771819Y-110671428D02*
X125619438Y-110709524D01*
X125619438Y-110709524D02*
X125505152Y-110709524D01*
X125505152Y-110709524D02*
X125352771Y-110671428D01*
X125352771Y-110671428D02*
X125276580Y-110633333D01*
X125276580Y-110633333D02*
X125200390Y-110557143D01*
X125200390Y-110557143D02*
X125162295Y-110442857D01*
X125162295Y-110442857D02*
X125162295Y-110366666D01*
X125162295Y-110366666D02*
X125200390Y-110252381D01*
X125200390Y-110252381D02*
X125238485Y-110214285D01*
X125238485Y-109909524D02*
X125200390Y-109871428D01*
X125200390Y-109871428D02*
X125162295Y-109795238D01*
X125162295Y-109795238D02*
X125162295Y-109604762D01*
X125162295Y-109604762D02*
X125200390Y-109528571D01*
X125200390Y-109528571D02*
X125238485Y-109490476D01*
X125238485Y-109490476D02*
X125314676Y-109452381D01*
X125314676Y-109452381D02*
X125390866Y-109452381D01*
X125390866Y-109452381D02*
X125505152Y-109490476D01*
X125505152Y-109490476D02*
X125962295Y-109947619D01*
X125962295Y-109947619D02*
X125962295Y-109452381D01*
X125162295Y-108766666D02*
X125162295Y-108919047D01*
X125162295Y-108919047D02*
X125200390Y-108995238D01*
X125200390Y-108995238D02*
X125238485Y-109033333D01*
X125238485Y-109033333D02*
X125352771Y-109109523D01*
X125352771Y-109109523D02*
X125505152Y-109147619D01*
X125505152Y-109147619D02*
X125809914Y-109147619D01*
X125809914Y-109147619D02*
X125886104Y-109109523D01*
X125886104Y-109109523D02*
X125924200Y-109071428D01*
X125924200Y-109071428D02*
X125962295Y-108995238D01*
X125962295Y-108995238D02*
X125962295Y-108842857D01*
X125962295Y-108842857D02*
X125924200Y-108766666D01*
X125924200Y-108766666D02*
X125886104Y-108728571D01*
X125886104Y-108728571D02*
X125809914Y-108690476D01*
X125809914Y-108690476D02*
X125619438Y-108690476D01*
X125619438Y-108690476D02*
X125543247Y-108728571D01*
X125543247Y-108728571D02*
X125505152Y-108766666D01*
X125505152Y-108766666D02*
X125467057Y-108842857D01*
X125467057Y-108842857D02*
X125467057Y-108995238D01*
X125467057Y-108995238D02*
X125505152Y-109071428D01*
X125505152Y-109071428D02*
X125543247Y-109109523D01*
X125543247Y-109109523D02*
X125619438Y-109147619D01*
X116090476Y-99162295D02*
X116090476Y-99809914D01*
X116090476Y-99809914D02*
X116128571Y-99886104D01*
X116128571Y-99886104D02*
X116166666Y-99924200D01*
X116166666Y-99924200D02*
X116242857Y-99962295D01*
X116242857Y-99962295D02*
X116395238Y-99962295D01*
X116395238Y-99962295D02*
X116471428Y-99924200D01*
X116471428Y-99924200D02*
X116509523Y-99886104D01*
X116509523Y-99886104D02*
X116547619Y-99809914D01*
X116547619Y-99809914D02*
X116547619Y-99162295D01*
X116852380Y-99162295D02*
X117347618Y-99162295D01*
X117347618Y-99162295D02*
X117080952Y-99467057D01*
X117080952Y-99467057D02*
X117195237Y-99467057D01*
X117195237Y-99467057D02*
X117271428Y-99505152D01*
X117271428Y-99505152D02*
X117309523Y-99543247D01*
X117309523Y-99543247D02*
X117347618Y-99619438D01*
X117347618Y-99619438D02*
X117347618Y-99809914D01*
X117347618Y-99809914D02*
X117309523Y-99886104D01*
X117309523Y-99886104D02*
X117271428Y-99924200D01*
X117271428Y-99924200D02*
X117195237Y-99962295D01*
X117195237Y-99962295D02*
X116966666Y-99962295D01*
X116966666Y-99962295D02*
X116890475Y-99924200D01*
X116890475Y-99924200D02*
X116852380Y-99886104D01*
X120766666Y-105462295D02*
X120385714Y-105462295D01*
X120385714Y-105462295D02*
X120385714Y-104662295D01*
X121452380Y-105462295D02*
X120995237Y-105462295D01*
X121223809Y-105462295D02*
X121223809Y-104662295D01*
X121223809Y-104662295D02*
X121147618Y-104776580D01*
X121147618Y-104776580D02*
X121071428Y-104852771D01*
X121071428Y-104852771D02*
X120995237Y-104890866D01*
X111262295Y-108433332D02*
X110881342Y-108699999D01*
X111262295Y-108890475D02*
X110462295Y-108890475D01*
X110462295Y-108890475D02*
X110462295Y-108585713D01*
X110462295Y-108585713D02*
X110500390Y-108509523D01*
X110500390Y-108509523D02*
X110538485Y-108471428D01*
X110538485Y-108471428D02*
X110614676Y-108433332D01*
X110614676Y-108433332D02*
X110728961Y-108433332D01*
X110728961Y-108433332D02*
X110805152Y-108471428D01*
X110805152Y-108471428D02*
X110843247Y-108509523D01*
X110843247Y-108509523D02*
X110881342Y-108585713D01*
X110881342Y-108585713D02*
X110881342Y-108890475D01*
X110538485Y-108128571D02*
X110500390Y-108090475D01*
X110500390Y-108090475D02*
X110462295Y-108014285D01*
X110462295Y-108014285D02*
X110462295Y-107823809D01*
X110462295Y-107823809D02*
X110500390Y-107747618D01*
X110500390Y-107747618D02*
X110538485Y-107709523D01*
X110538485Y-107709523D02*
X110614676Y-107671428D01*
X110614676Y-107671428D02*
X110690866Y-107671428D01*
X110690866Y-107671428D02*
X110805152Y-107709523D01*
X110805152Y-107709523D02*
X111262295Y-108166666D01*
X111262295Y-108166666D02*
X111262295Y-107671428D01*
X131447619Y-97762295D02*
X131180952Y-97381342D01*
X130990476Y-97762295D02*
X130990476Y-96962295D01*
X130990476Y-96962295D02*
X131295238Y-96962295D01*
X131295238Y-96962295D02*
X131371428Y-97000390D01*
X131371428Y-97000390D02*
X131409523Y-97038485D01*
X131409523Y-97038485D02*
X131447619Y-97114676D01*
X131447619Y-97114676D02*
X131447619Y-97228961D01*
X131447619Y-97228961D02*
X131409523Y-97305152D01*
X131409523Y-97305152D02*
X131371428Y-97343247D01*
X131371428Y-97343247D02*
X131295238Y-97381342D01*
X131295238Y-97381342D02*
X130990476Y-97381342D01*
X131790476Y-97762295D02*
X131790476Y-96962295D01*
X131790476Y-96962295D02*
X132247619Y-97762295D01*
X132247619Y-97762295D02*
X132247619Y-96962295D01*
X132590475Y-97038485D02*
X132628571Y-97000390D01*
X132628571Y-97000390D02*
X132704761Y-96962295D01*
X132704761Y-96962295D02*
X132895237Y-96962295D01*
X132895237Y-96962295D02*
X132971428Y-97000390D01*
X132971428Y-97000390D02*
X133009523Y-97038485D01*
X133009523Y-97038485D02*
X133047618Y-97114676D01*
X133047618Y-97114676D02*
X133047618Y-97190866D01*
X133047618Y-97190866D02*
X133009523Y-97305152D01*
X133009523Y-97305152D02*
X132552380Y-97762295D01*
X132552380Y-97762295D02*
X133047618Y-97762295D01*
X113866667Y-111022295D02*
X113600000Y-110641342D01*
X113409524Y-111022295D02*
X113409524Y-110222295D01*
X113409524Y-110222295D02*
X113714286Y-110222295D01*
X113714286Y-110222295D02*
X113790476Y-110260390D01*
X113790476Y-110260390D02*
X113828571Y-110298485D01*
X113828571Y-110298485D02*
X113866667Y-110374676D01*
X113866667Y-110374676D02*
X113866667Y-110488961D01*
X113866667Y-110488961D02*
X113828571Y-110565152D01*
X113828571Y-110565152D02*
X113790476Y-110603247D01*
X113790476Y-110603247D02*
X113714286Y-110641342D01*
X113714286Y-110641342D02*
X113409524Y-110641342D01*
X114628571Y-111022295D02*
X114171428Y-111022295D01*
X114400000Y-111022295D02*
X114400000Y-110222295D01*
X114400000Y-110222295D02*
X114323809Y-110336580D01*
X114323809Y-110336580D02*
X114247619Y-110412771D01*
X114247619Y-110412771D02*
X114171428Y-110450866D01*
X124824200Y-111166667D02*
X124862295Y-111052381D01*
X124862295Y-111052381D02*
X124862295Y-110861905D01*
X124862295Y-110861905D02*
X124824200Y-110785714D01*
X124824200Y-110785714D02*
X124786104Y-110747619D01*
X124786104Y-110747619D02*
X124709914Y-110709524D01*
X124709914Y-110709524D02*
X124633723Y-110709524D01*
X124633723Y-110709524D02*
X124557533Y-110747619D01*
X124557533Y-110747619D02*
X124519438Y-110785714D01*
X124519438Y-110785714D02*
X124481342Y-110861905D01*
X124481342Y-110861905D02*
X124443247Y-111014286D01*
X124443247Y-111014286D02*
X124405152Y-111090476D01*
X124405152Y-111090476D02*
X124367057Y-111128571D01*
X124367057Y-111128571D02*
X124290866Y-111166667D01*
X124290866Y-111166667D02*
X124214676Y-111166667D01*
X124214676Y-111166667D02*
X124138485Y-111128571D01*
X124138485Y-111128571D02*
X124100390Y-111090476D01*
X124100390Y-111090476D02*
X124062295Y-111014286D01*
X124062295Y-111014286D02*
X124062295Y-110823809D01*
X124062295Y-110823809D02*
X124100390Y-110709524D01*
X124062295Y-110442857D02*
X124862295Y-110252381D01*
X124862295Y-110252381D02*
X124290866Y-110100000D01*
X124290866Y-110100000D02*
X124862295Y-109947619D01*
X124862295Y-109947619D02*
X124062295Y-109757143D01*
X124862295Y-109033333D02*
X124862295Y-109490476D01*
X124862295Y-109261904D02*
X124062295Y-109261904D01*
X124062295Y-109261904D02*
X124176580Y-109338095D01*
X124176580Y-109338095D02*
X124252771Y-109414285D01*
X124252771Y-109414285D02*
X124290866Y-109490476D01*
X135710714Y-105486104D02*
X135672618Y-105524200D01*
X135672618Y-105524200D02*
X135558333Y-105562295D01*
X135558333Y-105562295D02*
X135482142Y-105562295D01*
X135482142Y-105562295D02*
X135367856Y-105524200D01*
X135367856Y-105524200D02*
X135291666Y-105448009D01*
X135291666Y-105448009D02*
X135253571Y-105371819D01*
X135253571Y-105371819D02*
X135215475Y-105219438D01*
X135215475Y-105219438D02*
X135215475Y-105105152D01*
X135215475Y-105105152D02*
X135253571Y-104952771D01*
X135253571Y-104952771D02*
X135291666Y-104876580D01*
X135291666Y-104876580D02*
X135367856Y-104800390D01*
X135367856Y-104800390D02*
X135482142Y-104762295D01*
X135482142Y-104762295D02*
X135558333Y-104762295D01*
X135558333Y-104762295D02*
X135672618Y-104800390D01*
X135672618Y-104800390D02*
X135710714Y-104838485D01*
X136015475Y-104838485D02*
X136053571Y-104800390D01*
X136053571Y-104800390D02*
X136129761Y-104762295D01*
X136129761Y-104762295D02*
X136320237Y-104762295D01*
X136320237Y-104762295D02*
X136396428Y-104800390D01*
X136396428Y-104800390D02*
X136434523Y-104838485D01*
X136434523Y-104838485D02*
X136472618Y-104914676D01*
X136472618Y-104914676D02*
X136472618Y-104990866D01*
X136472618Y-104990866D02*
X136434523Y-105105152D01*
X136434523Y-105105152D02*
X135977380Y-105562295D01*
X135977380Y-105562295D02*
X136472618Y-105562295D01*
X136739285Y-104762295D02*
X137272619Y-104762295D01*
X137272619Y-104762295D02*
X136929761Y-105562295D01*
X122385714Y-100786104D02*
X122347618Y-100824200D01*
X122347618Y-100824200D02*
X122233333Y-100862295D01*
X122233333Y-100862295D02*
X122157142Y-100862295D01*
X122157142Y-100862295D02*
X122042856Y-100824200D01*
X122042856Y-100824200D02*
X121966666Y-100748009D01*
X121966666Y-100748009D02*
X121928571Y-100671819D01*
X121928571Y-100671819D02*
X121890475Y-100519438D01*
X121890475Y-100519438D02*
X121890475Y-100405152D01*
X121890475Y-100405152D02*
X121928571Y-100252771D01*
X121928571Y-100252771D02*
X121966666Y-100176580D01*
X121966666Y-100176580D02*
X122042856Y-100100390D01*
X122042856Y-100100390D02*
X122157142Y-100062295D01*
X122157142Y-100062295D02*
X122233333Y-100062295D01*
X122233333Y-100062295D02*
X122347618Y-100100390D01*
X122347618Y-100100390D02*
X122385714Y-100138485D01*
X122690475Y-100138485D02*
X122728571Y-100100390D01*
X122728571Y-100100390D02*
X122804761Y-100062295D01*
X122804761Y-100062295D02*
X122995237Y-100062295D01*
X122995237Y-100062295D02*
X123071428Y-100100390D01*
X123071428Y-100100390D02*
X123109523Y-100138485D01*
X123109523Y-100138485D02*
X123147618Y-100214676D01*
X123147618Y-100214676D02*
X123147618Y-100290866D01*
X123147618Y-100290866D02*
X123109523Y-100405152D01*
X123109523Y-100405152D02*
X122652380Y-100862295D01*
X122652380Y-100862295D02*
X123147618Y-100862295D01*
X123414285Y-100062295D02*
X123909523Y-100062295D01*
X123909523Y-100062295D02*
X123642857Y-100367057D01*
X123642857Y-100367057D02*
X123757142Y-100367057D01*
X123757142Y-100367057D02*
X123833333Y-100405152D01*
X123833333Y-100405152D02*
X123871428Y-100443247D01*
X123871428Y-100443247D02*
X123909523Y-100519438D01*
X123909523Y-100519438D02*
X123909523Y-100709914D01*
X123909523Y-100709914D02*
X123871428Y-100786104D01*
X123871428Y-100786104D02*
X123833333Y-100824200D01*
X123833333Y-100824200D02*
X123757142Y-100862295D01*
X123757142Y-100862295D02*
X123528571Y-100862295D01*
X123528571Y-100862295D02*
X123452380Y-100824200D01*
X123452380Y-100824200D02*
X123414285Y-100786104D01*
X120185714Y-103286104D02*
X120147618Y-103324200D01*
X120147618Y-103324200D02*
X120033333Y-103362295D01*
X120033333Y-103362295D02*
X119957142Y-103362295D01*
X119957142Y-103362295D02*
X119842856Y-103324200D01*
X119842856Y-103324200D02*
X119766666Y-103248009D01*
X119766666Y-103248009D02*
X119728571Y-103171819D01*
X119728571Y-103171819D02*
X119690475Y-103019438D01*
X119690475Y-103019438D02*
X119690475Y-102905152D01*
X119690475Y-102905152D02*
X119728571Y-102752771D01*
X119728571Y-102752771D02*
X119766666Y-102676580D01*
X119766666Y-102676580D02*
X119842856Y-102600390D01*
X119842856Y-102600390D02*
X119957142Y-102562295D01*
X119957142Y-102562295D02*
X120033333Y-102562295D01*
X120033333Y-102562295D02*
X120147618Y-102600390D01*
X120147618Y-102600390D02*
X120185714Y-102638485D01*
X120947618Y-103362295D02*
X120490475Y-103362295D01*
X120719047Y-103362295D02*
X120719047Y-102562295D01*
X120719047Y-102562295D02*
X120642856Y-102676580D01*
X120642856Y-102676580D02*
X120566666Y-102752771D01*
X120566666Y-102752771D02*
X120490475Y-102790866D01*
X121709523Y-103362295D02*
X121252380Y-103362295D01*
X121480952Y-103362295D02*
X121480952Y-102562295D01*
X121480952Y-102562295D02*
X121404761Y-102676580D01*
X121404761Y-102676580D02*
X121328571Y-102752771D01*
X121328571Y-102752771D02*
X121252380Y-102790866D01*
X117362295Y-98533333D02*
X117362295Y-98914285D01*
X117362295Y-98914285D02*
X116562295Y-98914285D01*
X116638485Y-98304762D02*
X116600390Y-98266666D01*
X116600390Y-98266666D02*
X116562295Y-98190476D01*
X116562295Y-98190476D02*
X116562295Y-98000000D01*
X116562295Y-98000000D02*
X116600390Y-97923809D01*
X116600390Y-97923809D02*
X116638485Y-97885714D01*
X116638485Y-97885714D02*
X116714676Y-97847619D01*
X116714676Y-97847619D02*
X116790866Y-97847619D01*
X116790866Y-97847619D02*
X116905152Y-97885714D01*
X116905152Y-97885714D02*
X117362295Y-98342857D01*
X117362295Y-98342857D02*
X117362295Y-97847619D01*
X136519048Y-107481342D02*
X136519048Y-107862295D01*
X136252381Y-107062295D02*
X136519048Y-107481342D01*
X136519048Y-107481342D02*
X136785714Y-107062295D01*
X137014285Y-107138485D02*
X137052381Y-107100390D01*
X137052381Y-107100390D02*
X137128571Y-107062295D01*
X137128571Y-107062295D02*
X137319047Y-107062295D01*
X137319047Y-107062295D02*
X137395238Y-107100390D01*
X137395238Y-107100390D02*
X137433333Y-107138485D01*
X137433333Y-107138485D02*
X137471428Y-107214676D01*
X137471428Y-107214676D02*
X137471428Y-107290866D01*
X137471428Y-107290866D02*
X137433333Y-107405152D01*
X137433333Y-107405152D02*
X136976190Y-107862295D01*
X136976190Y-107862295D02*
X137471428Y-107862295D01*
X117066667Y-109086104D02*
X117028571Y-109124200D01*
X117028571Y-109124200D02*
X116914286Y-109162295D01*
X116914286Y-109162295D02*
X116838095Y-109162295D01*
X116838095Y-109162295D02*
X116723809Y-109124200D01*
X116723809Y-109124200D02*
X116647619Y-109048009D01*
X116647619Y-109048009D02*
X116609524Y-108971819D01*
X116609524Y-108971819D02*
X116571428Y-108819438D01*
X116571428Y-108819438D02*
X116571428Y-108705152D01*
X116571428Y-108705152D02*
X116609524Y-108552771D01*
X116609524Y-108552771D02*
X116647619Y-108476580D01*
X116647619Y-108476580D02*
X116723809Y-108400390D01*
X116723809Y-108400390D02*
X116838095Y-108362295D01*
X116838095Y-108362295D02*
X116914286Y-108362295D01*
X116914286Y-108362295D02*
X117028571Y-108400390D01*
X117028571Y-108400390D02*
X117066667Y-108438485D01*
X117333333Y-108362295D02*
X117866667Y-108362295D01*
X117866667Y-108362295D02*
X117523809Y-109162295D01*
X112586104Y-99033332D02*
X112624200Y-99071428D01*
X112624200Y-99071428D02*
X112662295Y-99185713D01*
X112662295Y-99185713D02*
X112662295Y-99261904D01*
X112662295Y-99261904D02*
X112624200Y-99376190D01*
X112624200Y-99376190D02*
X112548009Y-99452380D01*
X112548009Y-99452380D02*
X112471819Y-99490475D01*
X112471819Y-99490475D02*
X112319438Y-99528571D01*
X112319438Y-99528571D02*
X112205152Y-99528571D01*
X112205152Y-99528571D02*
X112052771Y-99490475D01*
X112052771Y-99490475D02*
X111976580Y-99452380D01*
X111976580Y-99452380D02*
X111900390Y-99376190D01*
X111900390Y-99376190D02*
X111862295Y-99261904D01*
X111862295Y-99261904D02*
X111862295Y-99185713D01*
X111862295Y-99185713D02*
X111900390Y-99071428D01*
X111900390Y-99071428D02*
X111938485Y-99033332D01*
X112662295Y-98271428D02*
X112662295Y-98728571D01*
X112662295Y-98499999D02*
X111862295Y-98499999D01*
X111862295Y-98499999D02*
X111976580Y-98576190D01*
X111976580Y-98576190D02*
X112052771Y-98652380D01*
X112052771Y-98652380D02*
X112090866Y-98728571D01*
X122385714Y-99786104D02*
X122347618Y-99824200D01*
X122347618Y-99824200D02*
X122233333Y-99862295D01*
X122233333Y-99862295D02*
X122157142Y-99862295D01*
X122157142Y-99862295D02*
X122042856Y-99824200D01*
X122042856Y-99824200D02*
X121966666Y-99748009D01*
X121966666Y-99748009D02*
X121928571Y-99671819D01*
X121928571Y-99671819D02*
X121890475Y-99519438D01*
X121890475Y-99519438D02*
X121890475Y-99405152D01*
X121890475Y-99405152D02*
X121928571Y-99252771D01*
X121928571Y-99252771D02*
X121966666Y-99176580D01*
X121966666Y-99176580D02*
X122042856Y-99100390D01*
X122042856Y-99100390D02*
X122157142Y-99062295D01*
X122157142Y-99062295D02*
X122233333Y-99062295D01*
X122233333Y-99062295D02*
X122347618Y-99100390D01*
X122347618Y-99100390D02*
X122385714Y-99138485D01*
X123147618Y-99862295D02*
X122690475Y-99862295D01*
X122919047Y-99862295D02*
X122919047Y-99062295D01*
X122919047Y-99062295D02*
X122842856Y-99176580D01*
X122842856Y-99176580D02*
X122766666Y-99252771D01*
X122766666Y-99252771D02*
X122690475Y-99290866D01*
X123414285Y-99062295D02*
X123947619Y-99062295D01*
X123947619Y-99062295D02*
X123604761Y-99862295D01*
X116385714Y-110086104D02*
X116347618Y-110124200D01*
X116347618Y-110124200D02*
X116233333Y-110162295D01*
X116233333Y-110162295D02*
X116157142Y-110162295D01*
X116157142Y-110162295D02*
X116042856Y-110124200D01*
X116042856Y-110124200D02*
X115966666Y-110048009D01*
X115966666Y-110048009D02*
X115928571Y-109971819D01*
X115928571Y-109971819D02*
X115890475Y-109819438D01*
X115890475Y-109819438D02*
X115890475Y-109705152D01*
X115890475Y-109705152D02*
X115928571Y-109552771D01*
X115928571Y-109552771D02*
X115966666Y-109476580D01*
X115966666Y-109476580D02*
X116042856Y-109400390D01*
X116042856Y-109400390D02*
X116157142Y-109362295D01*
X116157142Y-109362295D02*
X116233333Y-109362295D01*
X116233333Y-109362295D02*
X116347618Y-109400390D01*
X116347618Y-109400390D02*
X116385714Y-109438485D01*
X117147618Y-110162295D02*
X116690475Y-110162295D01*
X116919047Y-110162295D02*
X116919047Y-109362295D01*
X116919047Y-109362295D02*
X116842856Y-109476580D01*
X116842856Y-109476580D02*
X116766666Y-109552771D01*
X116766666Y-109552771D02*
X116690475Y-109590866D01*
X117452380Y-109438485D02*
X117490476Y-109400390D01*
X117490476Y-109400390D02*
X117566666Y-109362295D01*
X117566666Y-109362295D02*
X117757142Y-109362295D01*
X117757142Y-109362295D02*
X117833333Y-109400390D01*
X117833333Y-109400390D02*
X117871428Y-109438485D01*
X117871428Y-109438485D02*
X117909523Y-109514676D01*
X117909523Y-109514676D02*
X117909523Y-109590866D01*
X117909523Y-109590866D02*
X117871428Y-109705152D01*
X117871428Y-109705152D02*
X117414285Y-110162295D01*
X117414285Y-110162295D02*
X117909523Y-110162295D01*
X130790476Y-98362295D02*
X130790476Y-99009914D01*
X130790476Y-99009914D02*
X130828571Y-99086104D01*
X130828571Y-99086104D02*
X130866666Y-99124200D01*
X130866666Y-99124200D02*
X130942857Y-99162295D01*
X130942857Y-99162295D02*
X131095238Y-99162295D01*
X131095238Y-99162295D02*
X131171428Y-99124200D01*
X131171428Y-99124200D02*
X131209523Y-99086104D01*
X131209523Y-99086104D02*
X131247619Y-99009914D01*
X131247619Y-99009914D02*
X131247619Y-98362295D01*
X132047618Y-99162295D02*
X131590475Y-99162295D01*
X131819047Y-99162295D02*
X131819047Y-98362295D01*
X131819047Y-98362295D02*
X131742856Y-98476580D01*
X131742856Y-98476580D02*
X131666666Y-98552771D01*
X131666666Y-98552771D02*
X131590475Y-98590866D01*
X137562295Y-101759523D02*
X138209914Y-101759523D01*
X138209914Y-101759523D02*
X138286104Y-101721428D01*
X138286104Y-101721428D02*
X138324200Y-101683333D01*
X138324200Y-101683333D02*
X138362295Y-101607142D01*
X138362295Y-101607142D02*
X138362295Y-101454761D01*
X138362295Y-101454761D02*
X138324200Y-101378571D01*
X138324200Y-101378571D02*
X138286104Y-101340476D01*
X138286104Y-101340476D02*
X138209914Y-101302380D01*
X138209914Y-101302380D02*
X137562295Y-101302380D01*
X137562295Y-100578571D02*
X137562295Y-100730952D01*
X137562295Y-100730952D02*
X137600390Y-100807143D01*
X137600390Y-100807143D02*
X137638485Y-100845238D01*
X137638485Y-100845238D02*
X137752771Y-100921428D01*
X137752771Y-100921428D02*
X137905152Y-100959524D01*
X137905152Y-100959524D02*
X138209914Y-100959524D01*
X138209914Y-100959524D02*
X138286104Y-100921428D01*
X138286104Y-100921428D02*
X138324200Y-100883333D01*
X138324200Y-100883333D02*
X138362295Y-100807143D01*
X138362295Y-100807143D02*
X138362295Y-100654762D01*
X138362295Y-100654762D02*
X138324200Y-100578571D01*
X138324200Y-100578571D02*
X138286104Y-100540476D01*
X138286104Y-100540476D02*
X138209914Y-100502381D01*
X138209914Y-100502381D02*
X138019438Y-100502381D01*
X138019438Y-100502381D02*
X137943247Y-100540476D01*
X137943247Y-100540476D02*
X137905152Y-100578571D01*
X137905152Y-100578571D02*
X137867057Y-100654762D01*
X137867057Y-100654762D02*
X137867057Y-100807143D01*
X137867057Y-100807143D02*
X137905152Y-100883333D01*
X137905152Y-100883333D02*
X137943247Y-100921428D01*
X137943247Y-100921428D02*
X138019438Y-100959524D01*
X139146104Y-110514285D02*
X139184200Y-110552381D01*
X139184200Y-110552381D02*
X139222295Y-110666666D01*
X139222295Y-110666666D02*
X139222295Y-110742857D01*
X139222295Y-110742857D02*
X139184200Y-110857143D01*
X139184200Y-110857143D02*
X139108009Y-110933333D01*
X139108009Y-110933333D02*
X139031819Y-110971428D01*
X139031819Y-110971428D02*
X138879438Y-111009524D01*
X138879438Y-111009524D02*
X138765152Y-111009524D01*
X138765152Y-111009524D02*
X138612771Y-110971428D01*
X138612771Y-110971428D02*
X138536580Y-110933333D01*
X138536580Y-110933333D02*
X138460390Y-110857143D01*
X138460390Y-110857143D02*
X138422295Y-110742857D01*
X138422295Y-110742857D02*
X138422295Y-110666666D01*
X138422295Y-110666666D02*
X138460390Y-110552381D01*
X138460390Y-110552381D02*
X138498485Y-110514285D01*
X139222295Y-109752381D02*
X139222295Y-110209524D01*
X139222295Y-109980952D02*
X138422295Y-109980952D01*
X138422295Y-109980952D02*
X138536580Y-110057143D01*
X138536580Y-110057143D02*
X138612771Y-110133333D01*
X138612771Y-110133333D02*
X138650866Y-110209524D01*
X139222295Y-109371428D02*
X139222295Y-109219047D01*
X139222295Y-109219047D02*
X139184200Y-109142857D01*
X139184200Y-109142857D02*
X139146104Y-109104761D01*
X139146104Y-109104761D02*
X139031819Y-109028571D01*
X139031819Y-109028571D02*
X138879438Y-108990476D01*
X138879438Y-108990476D02*
X138574676Y-108990476D01*
X138574676Y-108990476D02*
X138498485Y-109028571D01*
X138498485Y-109028571D02*
X138460390Y-109066666D01*
X138460390Y-109066666D02*
X138422295Y-109142857D01*
X138422295Y-109142857D02*
X138422295Y-109295238D01*
X138422295Y-109295238D02*
X138460390Y-109371428D01*
X138460390Y-109371428D02*
X138498485Y-109409523D01*
X138498485Y-109409523D02*
X138574676Y-109447619D01*
X138574676Y-109447619D02*
X138765152Y-109447619D01*
X138765152Y-109447619D02*
X138841342Y-109409523D01*
X138841342Y-109409523D02*
X138879438Y-109371428D01*
X138879438Y-109371428D02*
X138917533Y-109295238D01*
X138917533Y-109295238D02*
X138917533Y-109142857D01*
X138917533Y-109142857D02*
X138879438Y-109066666D01*
X138879438Y-109066666D02*
X138841342Y-109028571D01*
X138841342Y-109028571D02*
X138765152Y-108990476D01*
X127886104Y-110214285D02*
X127924200Y-110252381D01*
X127924200Y-110252381D02*
X127962295Y-110366666D01*
X127962295Y-110366666D02*
X127962295Y-110442857D01*
X127962295Y-110442857D02*
X127924200Y-110557143D01*
X127924200Y-110557143D02*
X127848009Y-110633333D01*
X127848009Y-110633333D02*
X127771819Y-110671428D01*
X127771819Y-110671428D02*
X127619438Y-110709524D01*
X127619438Y-110709524D02*
X127505152Y-110709524D01*
X127505152Y-110709524D02*
X127352771Y-110671428D01*
X127352771Y-110671428D02*
X127276580Y-110633333D01*
X127276580Y-110633333D02*
X127200390Y-110557143D01*
X127200390Y-110557143D02*
X127162295Y-110442857D01*
X127162295Y-110442857D02*
X127162295Y-110366666D01*
X127162295Y-110366666D02*
X127200390Y-110252381D01*
X127200390Y-110252381D02*
X127238485Y-110214285D01*
X127238485Y-109909524D02*
X127200390Y-109871428D01*
X127200390Y-109871428D02*
X127162295Y-109795238D01*
X127162295Y-109795238D02*
X127162295Y-109604762D01*
X127162295Y-109604762D02*
X127200390Y-109528571D01*
X127200390Y-109528571D02*
X127238485Y-109490476D01*
X127238485Y-109490476D02*
X127314676Y-109452381D01*
X127314676Y-109452381D02*
X127390866Y-109452381D01*
X127390866Y-109452381D02*
X127505152Y-109490476D01*
X127505152Y-109490476D02*
X127962295Y-109947619D01*
X127962295Y-109947619D02*
X127962295Y-109452381D01*
X127162295Y-108728571D02*
X127162295Y-109109523D01*
X127162295Y-109109523D02*
X127543247Y-109147619D01*
X127543247Y-109147619D02*
X127505152Y-109109523D01*
X127505152Y-109109523D02*
X127467057Y-109033333D01*
X127467057Y-109033333D02*
X127467057Y-108842857D01*
X127467057Y-108842857D02*
X127505152Y-108766666D01*
X127505152Y-108766666D02*
X127543247Y-108728571D01*
X127543247Y-108728571D02*
X127619438Y-108690476D01*
X127619438Y-108690476D02*
X127809914Y-108690476D01*
X127809914Y-108690476D02*
X127886104Y-108728571D01*
X127886104Y-108728571D02*
X127924200Y-108766666D01*
X127924200Y-108766666D02*
X127962295Y-108842857D01*
X127962295Y-108842857D02*
X127962295Y-109033333D01*
X127962295Y-109033333D02*
X127924200Y-109109523D01*
X127924200Y-109109523D02*
X127886104Y-109147619D01*
X115746667Y-105462295D02*
X115480000Y-105081342D01*
X115289524Y-105462295D02*
X115289524Y-104662295D01*
X115289524Y-104662295D02*
X115594286Y-104662295D01*
X115594286Y-104662295D02*
X115670476Y-104700390D01*
X115670476Y-104700390D02*
X115708571Y-104738485D01*
X115708571Y-104738485D02*
X115746667Y-104814676D01*
X115746667Y-104814676D02*
X115746667Y-104928961D01*
X115746667Y-104928961D02*
X115708571Y-105005152D01*
X115708571Y-105005152D02*
X115670476Y-105043247D01*
X115670476Y-105043247D02*
X115594286Y-105081342D01*
X115594286Y-105081342D02*
X115289524Y-105081342D01*
X116013333Y-104662295D02*
X116508571Y-104662295D01*
X116508571Y-104662295D02*
X116241905Y-104967057D01*
X116241905Y-104967057D02*
X116356190Y-104967057D01*
X116356190Y-104967057D02*
X116432381Y-105005152D01*
X116432381Y-105005152D02*
X116470476Y-105043247D01*
X116470476Y-105043247D02*
X116508571Y-105119438D01*
X116508571Y-105119438D02*
X116508571Y-105309914D01*
X116508571Y-105309914D02*
X116470476Y-105386104D01*
X116470476Y-105386104D02*
X116432381Y-105424200D01*
X116432381Y-105424200D02*
X116356190Y-105462295D01*
X116356190Y-105462295D02*
X116127619Y-105462295D01*
X116127619Y-105462295D02*
X116051428Y-105424200D01*
X116051428Y-105424200D02*
X116013333Y-105386104D01*
G04 #@! TO.C,R5*
D11*
X118592164Y-103640000D02*
X118807836Y-103640000D01*
X118592164Y-104360000D02*
X118807836Y-104360000D01*
G04 #@! TO.C,C8*
X119087836Y-110340000D02*
X118872164Y-110340000D01*
X119087836Y-111060000D02*
X118872164Y-111060000D01*
G04 #@! TO.C,U5*
X139300000Y-106550000D02*
X139850000Y-106550000D01*
X139300000Y-107850000D02*
X139850000Y-107850000D01*
X139850000Y-106550000D02*
X139850000Y-106750000D01*
X139850000Y-107850000D02*
X139850000Y-107650000D01*
X138870000Y-106440000D02*
X138590000Y-106440000D01*
X138870000Y-106160000D01*
X138870000Y-106440000D01*
G36*
X138870000Y-106440000D02*
G01*
X138590000Y-106440000D01*
X138870000Y-106160000D01*
X138870000Y-106440000D01*
G37*
G04 #@! TO.C,U2*
X113670000Y-105740000D02*
X115490000Y-105740000D01*
X113670000Y-105790000D02*
X113670000Y-105740000D01*
X113670000Y-107690000D02*
X113670000Y-106910000D01*
X113670000Y-108860000D02*
X113670000Y-108810000D01*
X115490000Y-105740000D02*
X115490000Y-105790000D01*
X115490000Y-108810000D02*
X115490000Y-108860000D01*
X115490000Y-108860000D02*
X113670000Y-108860000D01*
X116030000Y-108810000D02*
X116270000Y-109140000D01*
X115790000Y-109140000D01*
X116030000Y-108810000D01*
G36*
X116270000Y-109140000D02*
G01*
X115790000Y-109140000D01*
X116030000Y-108810000D01*
X116270000Y-109140000D01*
G37*
G04 #@! TO.C,C4*
X112340000Y-104827836D02*
X112340000Y-104612164D01*
X113060000Y-104827836D02*
X113060000Y-104612164D01*
G04 #@! TO.C,C9*
X119347836Y-97040000D02*
X119132164Y-97040000D01*
X119347836Y-97760000D02*
X119132164Y-97760000D01*
G04 #@! TO.C,C6*
X111340000Y-104827836D02*
X111340000Y-104612164D01*
X112060000Y-104827836D02*
X112060000Y-104612164D01*
G04 #@! TO.C,C10*
X121032164Y-97040000D02*
X121247836Y-97040000D01*
X121032164Y-97760000D02*
X121247836Y-97760000D01*
G04 #@! TO.C,C28*
X134232836Y-105790000D02*
X134017164Y-105790000D01*
X134232836Y-106510000D02*
X134017164Y-106510000D01*
G04 #@! TO.C,C15*
X129240000Y-109392164D02*
X129240000Y-109607836D01*
X129960000Y-109392164D02*
X129960000Y-109607836D01*
G04 #@! TO.C,C21*
X123007836Y-104140000D02*
X122792164Y-104140000D01*
X123007836Y-104860000D02*
X122792164Y-104860000D01*
G04 #@! TO.C,RN1*
X125560000Y-97850000D02*
X125560000Y-98350000D01*
X127840000Y-97850000D02*
X127840000Y-98350000D01*
G04 #@! TO.C,C26*
X128240000Y-109392164D02*
X128240000Y-109607836D01*
X128960000Y-109392164D02*
X128960000Y-109607836D01*
G04 #@! TO.C,U3*
X114490000Y-100140000D02*
X116310000Y-100140000D01*
X114490000Y-100190000D02*
X114490000Y-100140000D01*
X114490000Y-102090000D02*
X114490000Y-101310000D01*
X114490000Y-103260000D02*
X114490000Y-103210000D01*
X116310000Y-100140000D02*
X116310000Y-100190000D01*
X116310000Y-103210000D02*
X116310000Y-103260000D01*
X116310000Y-103260000D02*
X114490000Y-103260000D01*
X116850000Y-103210000D02*
X117090000Y-103540000D01*
X116610000Y-103540000D01*
X116850000Y-103210000D01*
G36*
X117090000Y-103540000D02*
G01*
X116610000Y-103540000D01*
X116850000Y-103210000D01*
X117090000Y-103540000D01*
G37*
G04 #@! TO.C,C5*
X114072164Y-104640000D02*
X114287836Y-104640000D01*
X114072164Y-105360000D02*
X114287836Y-105360000D01*
G04 #@! TO.C,L1*
X116905000Y-104600000D02*
X120125000Y-104600000D01*
X120125000Y-108120000D02*
X116905000Y-108120000D01*
G04 #@! TO.C,R2*
X111640000Y-109007836D02*
X111640000Y-108792164D01*
X112360000Y-109007836D02*
X112360000Y-108792164D01*
G04 #@! TO.C,RN2*
X128160000Y-97850000D02*
X128160000Y-98350000D01*
X130440000Y-97850000D02*
X130440000Y-98350000D01*
G04 #@! TO.C,R1*
X113687836Y-109140000D02*
X113472164Y-109140000D01*
X113687836Y-109860000D02*
X113472164Y-109860000D01*
G04 #@! TO.C,R4*
X114507836Y-103640000D02*
X114292164Y-103640000D01*
X114507836Y-104360000D02*
X114292164Y-104360000D01*
G04 #@! TO.C,SW1*
X120530000Y-106530000D02*
X120830000Y-106530000D01*
X120530000Y-110670000D02*
X120530000Y-106530000D01*
X120830000Y-110670000D02*
X120530000Y-110670000D01*
X123370000Y-106530000D02*
X123670000Y-106530000D01*
X123670000Y-106530000D02*
X123670000Y-110670000D01*
X123670000Y-110670000D02*
X123370000Y-110670000D01*
G04 #@! TO.C,C27*
X134017164Y-104840000D02*
X134232836Y-104840000D01*
X134017164Y-105560000D02*
X134232836Y-105560000D01*
G04 #@! TO.C,C23*
X123007836Y-103140000D02*
X122792164Y-103140000D01*
X123007836Y-103860000D02*
X122792164Y-103860000D01*
G04 #@! TO.C,C11*
X119327836Y-101640000D02*
X119112164Y-101640000D01*
X119327836Y-102360000D02*
X119112164Y-102360000D01*
G04 #@! TO.C,L2*
X117690000Y-97940000D02*
X120910000Y-97940000D01*
X120910000Y-101460000D02*
X117690000Y-101460000D01*
G04 #@! TO.C,Y2*
X133010000Y-108060000D02*
X133010000Y-111480000D01*
X133010000Y-111480000D02*
X137130000Y-111480000D01*
G04 #@! TO.C,C7*
X119087836Y-108340000D02*
X118872164Y-108340000D01*
X119087836Y-109060000D02*
X118872164Y-109060000D01*
G04 #@! TO.C,C3*
X114612164Y-99040000D02*
X114827836Y-99040000D01*
X114612164Y-99760000D02*
X114827836Y-99760000D01*
G04 #@! TO.C,C2*
X114612164Y-98040000D02*
X114827836Y-98040000D01*
X114612164Y-98760000D02*
X114827836Y-98760000D01*
G04 #@! TO.C,C1*
X112880000Y-98792164D02*
X112880000Y-99007836D01*
X113600000Y-98792164D02*
X113600000Y-99007836D01*
G04 #@! TO.C,C17*
X123007836Y-102140000D02*
X122792164Y-102140000D01*
X123007836Y-102860000D02*
X122792164Y-102860000D01*
G04 #@! TO.C,C12*
X119087836Y-109340000D02*
X118872164Y-109340000D01*
X119087836Y-110060000D02*
X118872164Y-110060000D01*
G04 #@! TO.C,C20*
X132140000Y-109707836D02*
X132140000Y-109492164D01*
X132860000Y-109707836D02*
X132860000Y-109492164D01*
G04 #@! TO.C,U1*
X124412500Y-99830000D02*
X124962500Y-99830000D01*
X124412500Y-100380000D02*
X124412500Y-99830000D01*
X124412500Y-108050000D02*
X124412500Y-107500000D01*
X124962500Y-108050000D02*
X124412500Y-108050000D01*
X132082500Y-99830000D02*
X132632500Y-99830000D01*
X132632500Y-99830000D02*
X132632500Y-100380000D01*
X132632500Y-107500000D02*
X132632500Y-108050000D01*
X132632500Y-108050000D02*
X132082500Y-108050000D01*
X133132500Y-107140000D02*
X133462500Y-106900000D01*
X133462500Y-107380000D01*
X133132500Y-107140000D01*
G36*
X133462500Y-107380000D02*
G01*
X133132500Y-107140000D01*
X133462500Y-106900000D01*
X133462500Y-107380000D01*
G37*
G04 #@! TO.C,U6*
X139275000Y-100550000D02*
X139825000Y-100550000D01*
X139275000Y-101850000D02*
X139825000Y-101850000D01*
X139825000Y-100550000D02*
X139825000Y-100750000D01*
X139825000Y-101850000D02*
X139825000Y-101650000D01*
X138845000Y-100440000D02*
X138565000Y-100440000D01*
X138845000Y-100160000D01*
X138845000Y-100440000D01*
G36*
X138845000Y-100440000D02*
G01*
X138565000Y-100440000D01*
X138845000Y-100160000D01*
X138845000Y-100440000D01*
G37*
G04 #@! TO.C,C19*
X137340000Y-109892164D02*
X137340000Y-110107836D01*
X138060000Y-109892164D02*
X138060000Y-110107836D01*
G04 #@! TO.C,C25*
X130240000Y-109392164D02*
X130240000Y-109607836D01*
X130960000Y-109392164D02*
X130960000Y-109607836D01*
G04 #@! TO.C,R3*
X116407836Y-103640000D02*
X116192164Y-103640000D01*
X116407836Y-104360000D02*
X116192164Y-104360000D01*
G04 #@! TD*
%LPC*%
D12*
G04 #@! TO.C,R5*
X118220000Y-104000000D03*
X119180000Y-104000000D03*
G04 #@! TD*
D13*
G04 #@! TO.C,C8*
X119460000Y-110700000D03*
X118500000Y-110700000D03*
G04 #@! TD*
D14*
G04 #@! TO.C,U5*
X138875000Y-106850000D03*
X138875000Y-107550000D03*
X139725000Y-107200000D03*
G04 #@! TD*
D15*
G04 #@! TO.C,U2*
X115717500Y-108250000D03*
X115717500Y-107300000D03*
X115717500Y-106350000D03*
X113442500Y-106350000D03*
X113442500Y-108250000D03*
G04 #@! TD*
D16*
G04 #@! TO.C,C4*
X112700000Y-105200000D03*
X112700000Y-104240000D03*
G04 #@! TD*
D13*
G04 #@! TO.C,C9*
X119720000Y-97400000D03*
X118760000Y-97400000D03*
G04 #@! TD*
D16*
G04 #@! TO.C,C6*
X111700000Y-105200000D03*
X111700000Y-104240000D03*
G04 #@! TD*
D12*
G04 #@! TO.C,C10*
X120660000Y-97400000D03*
X121620000Y-97400000D03*
G04 #@! TD*
D13*
G04 #@! TO.C,C28*
X134605000Y-106150000D03*
X133645000Y-106150000D03*
G04 #@! TD*
D17*
G04 #@! TO.C,C15*
X129600000Y-109020000D03*
X129600000Y-109980000D03*
G04 #@! TD*
D13*
G04 #@! TO.C,C21*
X123380000Y-104500000D03*
X122420000Y-104500000D03*
G04 #@! TD*
D18*
G04 #@! TO.C,RN1*
X125950000Y-98600000D03*
X126450000Y-98600000D03*
X126950000Y-98600000D03*
X127450000Y-98600000D03*
X127450000Y-97600000D03*
X126950000Y-97600000D03*
X126450000Y-97600000D03*
X125950000Y-97600000D03*
G04 #@! TD*
D19*
G04 #@! TO.C,FID3*
X135200000Y-97400000D03*
G04 #@! TD*
D17*
G04 #@! TO.C,C26*
X128600000Y-109020000D03*
X128600000Y-109980000D03*
G04 #@! TD*
D15*
G04 #@! TO.C,U3*
X116537500Y-102650000D03*
X116537500Y-101700000D03*
X116537500Y-100750000D03*
X114262500Y-100750000D03*
X114262500Y-102650000D03*
G04 #@! TD*
D12*
G04 #@! TO.C,C5*
X113700000Y-105000000D03*
X114660000Y-105000000D03*
G04 #@! TD*
D20*
G04 #@! TO.C,L1*
X117540000Y-106360000D03*
X119490000Y-106360000D03*
G04 #@! TD*
D16*
G04 #@! TO.C,R2*
X112000000Y-109380000D03*
X112000000Y-108420000D03*
G04 #@! TD*
D18*
G04 #@! TO.C,RN2*
X128550000Y-98600000D03*
X129050000Y-98600000D03*
X129550000Y-98600000D03*
X130050000Y-98600000D03*
X130050000Y-97600000D03*
X129550000Y-97600000D03*
X129050000Y-97600000D03*
X128550000Y-97600000D03*
G04 #@! TD*
D13*
G04 #@! TO.C,R1*
X114060000Y-109500000D03*
X113100000Y-109500000D03*
G04 #@! TD*
G04 #@! TO.C,R4*
X114880000Y-104000000D03*
X113920000Y-104000000D03*
G04 #@! TD*
D21*
G04 #@! TO.C,SW1*
X122100000Y-106500000D03*
X122100000Y-110700000D03*
G04 #@! TD*
D12*
G04 #@! TO.C,C27*
X133645000Y-105200000D03*
X134605000Y-105200000D03*
G04 #@! TD*
D13*
G04 #@! TO.C,C23*
X123380000Y-103500000D03*
X122420000Y-103500000D03*
G04 #@! TD*
G04 #@! TO.C,C11*
X119700000Y-102000000D03*
X118740000Y-102000000D03*
G04 #@! TD*
D20*
G04 #@! TO.C,L2*
X118325000Y-99700000D03*
X120275000Y-99700000D03*
G04 #@! TD*
D22*
G04 #@! TO.C,Y2*
X133970000Y-110620000D03*
X136170000Y-110620000D03*
X136170000Y-108920000D03*
X133970000Y-108920000D03*
G04 #@! TD*
D13*
G04 #@! TO.C,C7*
X119460000Y-108700000D03*
X118500000Y-108700000D03*
G04 #@! TD*
D19*
G04 #@! TO.C,FID2*
X115500000Y-110800000D03*
G04 #@! TD*
D12*
G04 #@! TO.C,C3*
X114240000Y-99400000D03*
X115200000Y-99400000D03*
G04 #@! TD*
G04 #@! TO.C,C2*
X114240000Y-98400000D03*
X115200000Y-98400000D03*
G04 #@! TD*
D17*
G04 #@! TO.C,C1*
X113240000Y-98420000D03*
X113240000Y-99380000D03*
G04 #@! TD*
D13*
G04 #@! TO.C,C17*
X123380000Y-102500000D03*
X122420000Y-102500000D03*
G04 #@! TD*
G04 #@! TO.C,C12*
X119460000Y-109700000D03*
X118500000Y-109700000D03*
G04 #@! TD*
D16*
G04 #@! TO.C,C20*
X132500000Y-110080000D03*
X132500000Y-109120000D03*
G04 #@! TD*
D23*
G04 #@! TO.C,U1*
X132460000Y-107140000D03*
X132460000Y-106740000D03*
X132460000Y-106340000D03*
X132460000Y-105940000D03*
X132460000Y-105540000D03*
X132460000Y-105140000D03*
X132460000Y-104740000D03*
X132460000Y-104340000D03*
X132460000Y-103940000D03*
X132460000Y-103540000D03*
X132460000Y-103140000D03*
X132460000Y-102740000D03*
X132460000Y-102340000D03*
X132460000Y-101940000D03*
X132460000Y-101540000D03*
X132460000Y-101140000D03*
X132460000Y-100740000D03*
D24*
X131722500Y-100002500D03*
X131322500Y-100002500D03*
X130922500Y-100002500D03*
X130522500Y-100002500D03*
X130122500Y-100002500D03*
X129722500Y-100002500D03*
X129322500Y-100002500D03*
X128922500Y-100002500D03*
X128522500Y-100002500D03*
X128122500Y-100002500D03*
X127722500Y-100002500D03*
X127322500Y-100002500D03*
X126922500Y-100002500D03*
X126522500Y-100002500D03*
X126122500Y-100002500D03*
X125722500Y-100002500D03*
X125322500Y-100002500D03*
D23*
X124585000Y-100740000D03*
X124585000Y-101140000D03*
X124585000Y-101540000D03*
X124585000Y-101940000D03*
X124585000Y-102340000D03*
X124585000Y-102740000D03*
X124585000Y-103140000D03*
X124585000Y-103540000D03*
X124585000Y-103940000D03*
X124585000Y-104340000D03*
X124585000Y-104740000D03*
X124585000Y-105140000D03*
X124585000Y-105540000D03*
X124585000Y-105940000D03*
X124585000Y-106340000D03*
X124585000Y-106740000D03*
X124585000Y-107140000D03*
D24*
X125322500Y-107877500D03*
X125722500Y-107877500D03*
X126122500Y-107877500D03*
X126522500Y-107877500D03*
X126922500Y-107877500D03*
X127322500Y-107877500D03*
X127722500Y-107877500D03*
X128122500Y-107877500D03*
X128522500Y-107877500D03*
X128922500Y-107877500D03*
X129322500Y-107877500D03*
X129722500Y-107877500D03*
X130122500Y-107877500D03*
X130522500Y-107877500D03*
X130922500Y-107877500D03*
X131322500Y-107877500D03*
X131722500Y-107877500D03*
D25*
X128522500Y-103940000D03*
G04 #@! TD*
D14*
G04 #@! TO.C,U6*
X138850000Y-100850000D03*
X138850000Y-101550000D03*
X139700000Y-101200000D03*
G04 #@! TD*
D17*
G04 #@! TO.C,C19*
X137700000Y-109520000D03*
X137700000Y-110480000D03*
G04 #@! TD*
G04 #@! TO.C,C25*
X130600000Y-109020000D03*
X130600000Y-109980000D03*
G04 #@! TD*
D13*
G04 #@! TO.C,R3*
X116780000Y-104000000D03*
X115820000Y-104000000D03*
G04 #@! TD*
D19*
G04 #@! TO.C,FID4*
X109600000Y-106600000D03*
G04 #@! TD*
D26*
G04 #@! TO.C,J2*
X141850000Y-101950000D03*
X141850000Y-106450000D03*
D27*
X141850000Y-98350000D03*
X141850000Y-110050000D03*
G04 #@! TD*
%LPD*%
M02*
