G04 #@! TF.GenerationSoftware,KiCad,Pcbnew,10.0.3*
G04 #@! TF.CreationDate,2026-06-22T13:39:03+02:00*
G04 #@! TF.ProjectId,ovrdrive,6f767264-7269-4766-952e-6b696361645f,rev?*
G04 #@! TF.SameCoordinates,Original*
G04 #@! TF.FileFunction,Other,User*
%FSLAX46Y46*%
G04 Gerber Fmt 4.6, Leading zero omitted, Abs format (unit mm)*
G04 Created by KiCad (PCBNEW 10.0.3) date 2026-06-22 13:39:03*
%MOMM*%
%LPD*%
G01*
G04 APERTURE LIST*
%ADD10C,0.150000*%
%ADD11C,0.200000*%
G04 APERTURE END LIST*
D10*
X131910000Y-106890000D02*
X131910000Y-107280000D01*
X131910000Y-107280000D02*
X132020000Y-107390000D01*
X132020000Y-107390000D02*
X135240000Y-107380000D01*
X132060000Y-106740000D02*
X131910000Y-106890000D01*
X132450000Y-105550000D02*
X132990000Y-105550000D01*
X132450000Y-105940000D02*
X133090000Y-105940000D01*
X132840000Y-107140000D02*
X133060000Y-107140000D01*
X132990000Y-105550000D02*
X133380000Y-105190000D01*
X133060000Y-107140000D02*
X133140000Y-107200000D01*
X133090000Y-105940000D02*
X133390000Y-106220000D01*
X133140000Y-107200000D02*
X134940000Y-107200000D01*
X133160000Y-104640000D02*
X134950000Y-104640000D01*
X134770000Y-105200000D02*
X135050000Y-105200000D01*
X134870000Y-104440000D02*
X133170000Y-104440000D01*
X134940000Y-107200000D02*
X135130000Y-107020000D01*
X134950000Y-104640000D02*
X138290000Y-101300000D01*
X135050000Y-105200000D02*
X135450000Y-105600000D01*
X135050000Y-106200000D02*
X134880000Y-106200000D01*
X135130000Y-107020000D02*
X135570000Y-107020000D01*
X135450000Y-105600000D02*
X136330000Y-105600000D01*
X135450000Y-105800000D02*
X135050000Y-106200000D01*
X135630000Y-107020000D02*
X136090000Y-107020000D01*
X135690000Y-107380000D02*
X135240000Y-107380000D01*
X135710000Y-107380000D02*
X135870000Y-107210000D01*
X135870000Y-107210000D02*
X136170000Y-107210000D01*
X136090000Y-107020000D02*
X138320000Y-104770000D01*
X136170000Y-107210000D02*
X138200000Y-105200000D01*
X136260000Y-105800000D02*
X135450000Y-105800000D01*
X136330000Y-105600000D02*
X137860000Y-107110000D01*
X137770000Y-107300000D02*
X136260000Y-105800000D01*
X137860000Y-107110000D02*
X138500000Y-107110000D01*
X138200000Y-101100000D02*
X134870000Y-104440000D01*
X138200000Y-105200000D02*
X138710000Y-105200000D01*
X138290000Y-101300000D02*
X138510000Y-101300000D01*
X138320000Y-103740000D02*
X138590000Y-103430000D01*
X138320000Y-104770000D02*
X138320000Y-103740000D01*
X138500000Y-101100000D02*
X138200000Y-101100000D01*
X138500000Y-107110000D02*
X139400000Y-106200000D01*
X138500000Y-107300000D02*
X137770000Y-107300000D01*
X138510000Y-101300000D02*
X139400000Y-102200000D01*
X139400000Y-100200000D02*
X138500000Y-101100000D01*
X139400000Y-108200000D02*
X138500000Y-107300000D01*
D11*
X132067292Y-109217275D02*
X132257768Y-109217275D01*
X132257768Y-109217275D02*
X132353006Y-109169656D01*
X132353006Y-109169656D02*
X132400625Y-109122036D01*
X132400625Y-109122036D02*
X132495863Y-108979179D01*
X132495863Y-108979179D02*
X132543482Y-108788703D01*
X132543482Y-108788703D02*
X132543482Y-108407751D01*
X132543482Y-108407751D02*
X132495863Y-108312513D01*
X132495863Y-108312513D02*
X132448244Y-108264894D01*
X132448244Y-108264894D02*
X132353006Y-108217275D01*
X132353006Y-108217275D02*
X132162530Y-108217275D01*
X132162530Y-108217275D02*
X132067292Y-108264894D01*
X132067292Y-108264894D02*
X132019673Y-108312513D01*
X132019673Y-108312513D02*
X131972054Y-108407751D01*
X131972054Y-108407751D02*
X131972054Y-108645846D01*
X131972054Y-108645846D02*
X132019673Y-108741084D01*
X132019673Y-108741084D02*
X132067292Y-108788703D01*
X132067292Y-108788703D02*
X132162530Y-108836322D01*
X132162530Y-108836322D02*
X132353006Y-108836322D01*
X132353006Y-108836322D02*
X132448244Y-108788703D01*
X132448244Y-108788703D02*
X132495863Y-108741084D01*
X132495863Y-108741084D02*
X132543482Y-108645846D01*
X133162530Y-108217275D02*
X133257768Y-108217275D01*
X133257768Y-108217275D02*
X133353006Y-108264894D01*
X133353006Y-108264894D02*
X133400625Y-108312513D01*
X133400625Y-108312513D02*
X133448244Y-108407751D01*
X133448244Y-108407751D02*
X133495863Y-108598227D01*
X133495863Y-108598227D02*
X133495863Y-108836322D01*
X133495863Y-108836322D02*
X133448244Y-109026798D01*
X133448244Y-109026798D02*
X133400625Y-109122036D01*
X133400625Y-109122036D02*
X133353006Y-109169656D01*
X133353006Y-109169656D02*
X133257768Y-109217275D01*
X133257768Y-109217275D02*
X133162530Y-109217275D01*
X133162530Y-109217275D02*
X133067292Y-109169656D01*
X133067292Y-109169656D02*
X133019673Y-109122036D01*
X133019673Y-109122036D02*
X132972054Y-109026798D01*
X132972054Y-109026798D02*
X132924435Y-108836322D01*
X132924435Y-108836322D02*
X132924435Y-108598227D01*
X132924435Y-108598227D02*
X132972054Y-108407751D01*
X132972054Y-108407751D02*
X133019673Y-108312513D01*
X133019673Y-108312513D02*
X133067292Y-108264894D01*
X133067292Y-108264894D02*
X133162530Y-108217275D01*
X134876816Y-108217275D02*
X135067292Y-108217275D01*
X135067292Y-108217275D02*
X135162530Y-108264894D01*
X135162530Y-108264894D02*
X135257768Y-108360132D01*
X135257768Y-108360132D02*
X135305387Y-108550608D01*
X135305387Y-108550608D02*
X135305387Y-108883941D01*
X135305387Y-108883941D02*
X135257768Y-109074417D01*
X135257768Y-109074417D02*
X135162530Y-109169656D01*
X135162530Y-109169656D02*
X135067292Y-109217275D01*
X135067292Y-109217275D02*
X134876816Y-109217275D01*
X134876816Y-109217275D02*
X134781578Y-109169656D01*
X134781578Y-109169656D02*
X134686340Y-109074417D01*
X134686340Y-109074417D02*
X134638721Y-108883941D01*
X134638721Y-108883941D02*
X134638721Y-108550608D01*
X134638721Y-108550608D02*
X134686340Y-108360132D01*
X134686340Y-108360132D02*
X134781578Y-108264894D01*
X134781578Y-108264894D02*
X134876816Y-108217275D01*
X135733959Y-109217275D02*
X135733959Y-108217275D01*
X136162530Y-109217275D02*
X136162530Y-108693465D01*
X136162530Y-108693465D02*
X136114911Y-108598227D01*
X136114911Y-108598227D02*
X136019673Y-108550608D01*
X136019673Y-108550608D02*
X135876816Y-108550608D01*
X135876816Y-108550608D02*
X135781578Y-108598227D01*
X135781578Y-108598227D02*
X135733959Y-108645846D01*
X136638721Y-109217275D02*
X136638721Y-108550608D01*
X136638721Y-108645846D02*
X136686340Y-108598227D01*
X136686340Y-108598227D02*
X136781578Y-108550608D01*
X136781578Y-108550608D02*
X136924435Y-108550608D01*
X136924435Y-108550608D02*
X137019673Y-108598227D01*
X137019673Y-108598227D02*
X137067292Y-108693465D01*
X137067292Y-108693465D02*
X137067292Y-109217275D01*
X137067292Y-108693465D02*
X137114911Y-108598227D01*
X137114911Y-108598227D02*
X137210149Y-108550608D01*
X137210149Y-108550608D02*
X137353006Y-108550608D01*
X137353006Y-108550608D02*
X137448245Y-108598227D01*
X137448245Y-108598227D02*
X137495864Y-108693465D01*
X137495864Y-108693465D02*
X137495864Y-109217275D01*
X139305387Y-109122036D02*
X139257768Y-109169656D01*
X139257768Y-109169656D02*
X139114911Y-109217275D01*
X139114911Y-109217275D02*
X139019673Y-109217275D01*
X139019673Y-109217275D02*
X138876816Y-109169656D01*
X138876816Y-109169656D02*
X138781578Y-109074417D01*
X138781578Y-109074417D02*
X138733959Y-108979179D01*
X138733959Y-108979179D02*
X138686340Y-108788703D01*
X138686340Y-108788703D02*
X138686340Y-108645846D01*
X138686340Y-108645846D02*
X138733959Y-108455370D01*
X138733959Y-108455370D02*
X138781578Y-108360132D01*
X138781578Y-108360132D02*
X138876816Y-108264894D01*
X138876816Y-108264894D02*
X139019673Y-108217275D01*
X139019673Y-108217275D02*
X139114911Y-108217275D01*
X139114911Y-108217275D02*
X139257768Y-108264894D01*
X139257768Y-108264894D02*
X139305387Y-108312513D01*
X139876816Y-109217275D02*
X139781578Y-109169656D01*
X139781578Y-109169656D02*
X139733959Y-109122036D01*
X139733959Y-109122036D02*
X139686340Y-109026798D01*
X139686340Y-109026798D02*
X139686340Y-108741084D01*
X139686340Y-108741084D02*
X139733959Y-108645846D01*
X139733959Y-108645846D02*
X139781578Y-108598227D01*
X139781578Y-108598227D02*
X139876816Y-108550608D01*
X139876816Y-108550608D02*
X140019673Y-108550608D01*
X140019673Y-108550608D02*
X140114911Y-108598227D01*
X140114911Y-108598227D02*
X140162530Y-108645846D01*
X140162530Y-108645846D02*
X140210149Y-108741084D01*
X140210149Y-108741084D02*
X140210149Y-109026798D01*
X140210149Y-109026798D02*
X140162530Y-109122036D01*
X140162530Y-109122036D02*
X140114911Y-109169656D01*
X140114911Y-109169656D02*
X140019673Y-109217275D01*
X140019673Y-109217275D02*
X139876816Y-109217275D01*
X140638721Y-108550608D02*
X140638721Y-109217275D01*
X140638721Y-108645846D02*
X140686340Y-108598227D01*
X140686340Y-108598227D02*
X140781578Y-108550608D01*
X140781578Y-108550608D02*
X140924435Y-108550608D01*
X140924435Y-108550608D02*
X141019673Y-108598227D01*
X141019673Y-108598227D02*
X141067292Y-108693465D01*
X141067292Y-108693465D02*
X141067292Y-109217275D01*
X141400626Y-108550608D02*
X141781578Y-108550608D01*
X141543483Y-108217275D02*
X141543483Y-109074417D01*
X141543483Y-109074417D02*
X141591102Y-109169656D01*
X141591102Y-109169656D02*
X141686340Y-109217275D01*
X141686340Y-109217275D02*
X141781578Y-109217275D01*
X142114912Y-109217275D02*
X142114912Y-108550608D01*
X142114912Y-108741084D02*
X142162531Y-108645846D01*
X142162531Y-108645846D02*
X142210150Y-108598227D01*
X142210150Y-108598227D02*
X142305388Y-108550608D01*
X142305388Y-108550608D02*
X142400626Y-108550608D01*
X142876817Y-109217275D02*
X142781579Y-109169656D01*
X142781579Y-109169656D02*
X142733960Y-109122036D01*
X142733960Y-109122036D02*
X142686341Y-109026798D01*
X142686341Y-109026798D02*
X142686341Y-108741084D01*
X142686341Y-108741084D02*
X142733960Y-108645846D01*
X142733960Y-108645846D02*
X142781579Y-108598227D01*
X142781579Y-108598227D02*
X142876817Y-108550608D01*
X142876817Y-108550608D02*
X143019674Y-108550608D01*
X143019674Y-108550608D02*
X143114912Y-108598227D01*
X143114912Y-108598227D02*
X143162531Y-108645846D01*
X143162531Y-108645846D02*
X143210150Y-108741084D01*
X143210150Y-108741084D02*
X143210150Y-109026798D01*
X143210150Y-109026798D02*
X143162531Y-109122036D01*
X143162531Y-109122036D02*
X143114912Y-109169656D01*
X143114912Y-109169656D02*
X143019674Y-109217275D01*
X143019674Y-109217275D02*
X142876817Y-109217275D01*
X143781579Y-109217275D02*
X143686341Y-109169656D01*
X143686341Y-109169656D02*
X143638722Y-109074417D01*
X143638722Y-109074417D02*
X143638722Y-108217275D01*
X144305389Y-109217275D02*
X144210151Y-109169656D01*
X144210151Y-109169656D02*
X144162532Y-109074417D01*
X144162532Y-109074417D02*
X144162532Y-108217275D01*
X145067294Y-109169656D02*
X144972056Y-109217275D01*
X144972056Y-109217275D02*
X144781580Y-109217275D01*
X144781580Y-109217275D02*
X144686342Y-109169656D01*
X144686342Y-109169656D02*
X144638723Y-109074417D01*
X144638723Y-109074417D02*
X144638723Y-108693465D01*
X144638723Y-108693465D02*
X144686342Y-108598227D01*
X144686342Y-108598227D02*
X144781580Y-108550608D01*
X144781580Y-108550608D02*
X144972056Y-108550608D01*
X144972056Y-108550608D02*
X145067294Y-108598227D01*
X145067294Y-108598227D02*
X145114913Y-108693465D01*
X145114913Y-108693465D02*
X145114913Y-108788703D01*
X145114913Y-108788703D02*
X144638723Y-108883941D01*
X145972056Y-109217275D02*
X145972056Y-108217275D01*
X145972056Y-109169656D02*
X145876818Y-109217275D01*
X145876818Y-109217275D02*
X145686342Y-109217275D01*
X145686342Y-109217275D02*
X145591104Y-109169656D01*
X145591104Y-109169656D02*
X145543485Y-109122036D01*
X145543485Y-109122036D02*
X145495866Y-109026798D01*
X145495866Y-109026798D02*
X145495866Y-108741084D01*
X145495866Y-108741084D02*
X145543485Y-108645846D01*
X145543485Y-108645846D02*
X145591104Y-108598227D01*
X145591104Y-108598227D02*
X145686342Y-108550608D01*
X145686342Y-108550608D02*
X145876818Y-108550608D01*
X145876818Y-108550608D02*
X145972056Y-108598227D01*
X132019673Y-110827219D02*
X132019673Y-109827219D01*
X132495863Y-110827219D02*
X132495863Y-110160552D01*
X132495863Y-110255790D02*
X132543482Y-110208171D01*
X132543482Y-110208171D02*
X132638720Y-110160552D01*
X132638720Y-110160552D02*
X132781577Y-110160552D01*
X132781577Y-110160552D02*
X132876815Y-110208171D01*
X132876815Y-110208171D02*
X132924434Y-110303409D01*
X132924434Y-110303409D02*
X132924434Y-110827219D01*
X132924434Y-110303409D02*
X132972053Y-110208171D01*
X132972053Y-110208171D02*
X133067291Y-110160552D01*
X133067291Y-110160552D02*
X133210148Y-110160552D01*
X133210148Y-110160552D02*
X133305387Y-110208171D01*
X133305387Y-110208171D02*
X133353006Y-110303409D01*
X133353006Y-110303409D02*
X133353006Y-110827219D01*
X133829196Y-110160552D02*
X133829196Y-111160552D01*
X133829196Y-110208171D02*
X133924434Y-110160552D01*
X133924434Y-110160552D02*
X134114910Y-110160552D01*
X134114910Y-110160552D02*
X134210148Y-110208171D01*
X134210148Y-110208171D02*
X134257767Y-110255790D01*
X134257767Y-110255790D02*
X134305386Y-110351028D01*
X134305386Y-110351028D02*
X134305386Y-110636742D01*
X134305386Y-110636742D02*
X134257767Y-110731980D01*
X134257767Y-110731980D02*
X134210148Y-110779600D01*
X134210148Y-110779600D02*
X134114910Y-110827219D01*
X134114910Y-110827219D02*
X133924434Y-110827219D01*
X133924434Y-110827219D02*
X133829196Y-110779600D01*
X135114910Y-110779600D02*
X135019672Y-110827219D01*
X135019672Y-110827219D02*
X134829196Y-110827219D01*
X134829196Y-110827219D02*
X134733958Y-110779600D01*
X134733958Y-110779600D02*
X134686339Y-110684361D01*
X134686339Y-110684361D02*
X134686339Y-110303409D01*
X134686339Y-110303409D02*
X134733958Y-110208171D01*
X134733958Y-110208171D02*
X134829196Y-110160552D01*
X134829196Y-110160552D02*
X135019672Y-110160552D01*
X135019672Y-110160552D02*
X135114910Y-110208171D01*
X135114910Y-110208171D02*
X135162529Y-110303409D01*
X135162529Y-110303409D02*
X135162529Y-110398647D01*
X135162529Y-110398647D02*
X134686339Y-110493885D01*
X136019672Y-110827219D02*
X136019672Y-109827219D01*
X136019672Y-110779600D02*
X135924434Y-110827219D01*
X135924434Y-110827219D02*
X135733958Y-110827219D01*
X135733958Y-110827219D02*
X135638720Y-110779600D01*
X135638720Y-110779600D02*
X135591101Y-110731980D01*
X135591101Y-110731980D02*
X135543482Y-110636742D01*
X135543482Y-110636742D02*
X135543482Y-110351028D01*
X135543482Y-110351028D02*
X135591101Y-110255790D01*
X135591101Y-110255790D02*
X135638720Y-110208171D01*
X135638720Y-110208171D02*
X135733958Y-110160552D01*
X135733958Y-110160552D02*
X135924434Y-110160552D01*
X135924434Y-110160552D02*
X136019672Y-110208171D01*
X136924434Y-110827219D02*
X136924434Y-110303409D01*
X136924434Y-110303409D02*
X136876815Y-110208171D01*
X136876815Y-110208171D02*
X136781577Y-110160552D01*
X136781577Y-110160552D02*
X136591101Y-110160552D01*
X136591101Y-110160552D02*
X136495863Y-110208171D01*
X136924434Y-110779600D02*
X136829196Y-110827219D01*
X136829196Y-110827219D02*
X136591101Y-110827219D01*
X136591101Y-110827219D02*
X136495863Y-110779600D01*
X136495863Y-110779600D02*
X136448244Y-110684361D01*
X136448244Y-110684361D02*
X136448244Y-110589123D01*
X136448244Y-110589123D02*
X136495863Y-110493885D01*
X136495863Y-110493885D02*
X136591101Y-110446266D01*
X136591101Y-110446266D02*
X136829196Y-110446266D01*
X136829196Y-110446266D02*
X136924434Y-110398647D01*
X137400625Y-110160552D02*
X137400625Y-110827219D01*
X137400625Y-110255790D02*
X137448244Y-110208171D01*
X137448244Y-110208171D02*
X137543482Y-110160552D01*
X137543482Y-110160552D02*
X137686339Y-110160552D01*
X137686339Y-110160552D02*
X137781577Y-110208171D01*
X137781577Y-110208171D02*
X137829196Y-110303409D01*
X137829196Y-110303409D02*
X137829196Y-110827219D01*
X138733958Y-110779600D02*
X138638720Y-110827219D01*
X138638720Y-110827219D02*
X138448244Y-110827219D01*
X138448244Y-110827219D02*
X138353006Y-110779600D01*
X138353006Y-110779600D02*
X138305387Y-110731980D01*
X138305387Y-110731980D02*
X138257768Y-110636742D01*
X138257768Y-110636742D02*
X138257768Y-110351028D01*
X138257768Y-110351028D02*
X138305387Y-110255790D01*
X138305387Y-110255790D02*
X138353006Y-110208171D01*
X138353006Y-110208171D02*
X138448244Y-110160552D01*
X138448244Y-110160552D02*
X138638720Y-110160552D01*
X138638720Y-110160552D02*
X138733958Y-110208171D01*
X139543482Y-110779600D02*
X139448244Y-110827219D01*
X139448244Y-110827219D02*
X139257768Y-110827219D01*
X139257768Y-110827219D02*
X139162530Y-110779600D01*
X139162530Y-110779600D02*
X139114911Y-110684361D01*
X139114911Y-110684361D02*
X139114911Y-110303409D01*
X139114911Y-110303409D02*
X139162530Y-110208171D01*
X139162530Y-110208171D02*
X139257768Y-110160552D01*
X139257768Y-110160552D02*
X139448244Y-110160552D01*
X139448244Y-110160552D02*
X139543482Y-110208171D01*
X139543482Y-110208171D02*
X139591101Y-110303409D01*
X139591101Y-110303409D02*
X139591101Y-110398647D01*
X139591101Y-110398647D02*
X139114911Y-110493885D01*
M02*
