G04 #@! TF.GenerationSoftware,KiCad,Pcbnew,10.0.5*
G04 #@! TF.CreationDate,2026-08-18T20:26:12+02:00*
G04 #@! TF.ProjectId,ovrdrive,6f767264-7269-4766-952e-6b696361645f,rev?*
G04 #@! TF.SameCoordinates,Original*
G04 #@! TF.FileFunction,Legend,Bot*
G04 #@! TF.FilePolarity,Positive*
%FSLAX46Y46*%
G04 Gerber Fmt 4.6, Leading zero omitted, Abs format (unit mm)*
G04 Created by KiCad (PCBNEW 10.0.5) date 2026-08-18 20:26:12*
%MOMM*%
%LPD*%
G01*
G04 APERTURE LIST*
G04 Aperture macros list*
%AMRoundRect*
0 Rectangle with rounded corners*
0 $1 Rounding radius*
0 $2 $3 $4 $5 $6 $7 $8 $9 X,Y pos of 4 corners*
0 Add a 4 corners polygon primitive as box body*
4,1,4,$2,$3,$4,$5,$6,$7,$8,$9,$2,$3,0*
0 Add four circle primitives for the rounded corners*
1,1,$1+$1,$2,$3*
1,1,$1+$1,$4,$5*
1,1,$1+$1,$6,$7*
1,1,$1+$1,$8,$9*
0 Add four rect primitives between the rounded corners*
20,1,$1+$1,$2,$3,$4,$5,0*
20,1,$1+$1,$4,$5,$6,$7,0*
20,1,$1+$1,$6,$7,$8,$9,0*
20,1,$1+$1,$8,$9,$2,$3,0*%
G04 Aperture macros list end*
%ADD10C,0.150000*%
%ADD11C,0.120000*%
%ADD12R,1.200000X0.700000*%
%ADD13R,0.800000X1.000000*%
%ADD14R,2.800000X1.000000*%
%ADD15R,1.200000X1.000000*%
%ADD16R,1.900000X1.300000*%
%ADD17R,1.000000X1.000000*%
%ADD18C,1.000000*%
%ADD19RoundRect,0.140000X-0.140000X-0.170000X0.140000X-0.170000X0.140000X0.170000X-0.140000X0.170000X0*%
%ADD20RoundRect,0.140000X-0.170000X0.140000X-0.170000X-0.140000X0.170000X-0.140000X0.170000X0.140000X0*%
%ADD21RoundRect,0.075000X-0.075000X0.075000X-0.075000X-0.075000X0.075000X-0.075000X0.075000X0.075000X0*%
%ADD22C,1.100000*%
%ADD23RoundRect,0.175000X-0.725000X0.175000X-0.725000X-0.175000X0.725000X-0.175000X0.725000X0.175000X0*%
%ADD24RoundRect,0.175000X-0.725000X-0.175000X0.725000X-0.175000X0.725000X0.175000X-0.725000X0.175000X0*%
%ADD25O,4.000000X1.600000*%
G04 APERTURE END LIST*
D10*
X114662295Y-98433333D02*
X115233723Y-98433333D01*
X115233723Y-98433333D02*
X115348009Y-98395238D01*
X115348009Y-98395238D02*
X115424200Y-98319047D01*
X115424200Y-98319047D02*
X115462295Y-98204762D01*
X115462295Y-98204762D02*
X115462295Y-98128571D01*
X114928961Y-99157143D02*
X115462295Y-99157143D01*
X114624200Y-98966667D02*
X115195628Y-98776190D01*
X115195628Y-98776190D02*
X115195628Y-99271429D01*
X137109523Y-97262295D02*
X136652380Y-97262295D01*
X136880952Y-98062295D02*
X136880952Y-97262295D01*
X136385713Y-98062295D02*
X136385713Y-97262295D01*
X136385713Y-97262295D02*
X136080951Y-97262295D01*
X136080951Y-97262295D02*
X136004761Y-97300390D01*
X136004761Y-97300390D02*
X135966666Y-97338485D01*
X135966666Y-97338485D02*
X135928570Y-97414676D01*
X135928570Y-97414676D02*
X135928570Y-97528961D01*
X135928570Y-97528961D02*
X135966666Y-97605152D01*
X135966666Y-97605152D02*
X136004761Y-97643247D01*
X136004761Y-97643247D02*
X136080951Y-97681342D01*
X136080951Y-97681342D02*
X136385713Y-97681342D01*
X135166666Y-98062295D02*
X135623809Y-98062295D01*
X135395237Y-98062295D02*
X135395237Y-97262295D01*
X135395237Y-97262295D02*
X135471428Y-97376580D01*
X135471428Y-97376580D02*
X135547618Y-97452771D01*
X135547618Y-97452771D02*
X135623809Y-97490866D01*
X134614285Y-108586104D02*
X134652381Y-108624200D01*
X134652381Y-108624200D02*
X134766666Y-108662295D01*
X134766666Y-108662295D02*
X134842857Y-108662295D01*
X134842857Y-108662295D02*
X134957143Y-108624200D01*
X134957143Y-108624200D02*
X135033333Y-108548009D01*
X135033333Y-108548009D02*
X135071428Y-108471819D01*
X135071428Y-108471819D02*
X135109524Y-108319438D01*
X135109524Y-108319438D02*
X135109524Y-108205152D01*
X135109524Y-108205152D02*
X135071428Y-108052771D01*
X135071428Y-108052771D02*
X135033333Y-107976580D01*
X135033333Y-107976580D02*
X134957143Y-107900390D01*
X134957143Y-107900390D02*
X134842857Y-107862295D01*
X134842857Y-107862295D02*
X134766666Y-107862295D01*
X134766666Y-107862295D02*
X134652381Y-107900390D01*
X134652381Y-107900390D02*
X134614285Y-107938485D01*
X133852381Y-108662295D02*
X134309524Y-108662295D01*
X134080952Y-108662295D02*
X134080952Y-107862295D01*
X134080952Y-107862295D02*
X134157143Y-107976580D01*
X134157143Y-107976580D02*
X134233333Y-108052771D01*
X134233333Y-108052771D02*
X134309524Y-108090866D01*
X133166666Y-108128961D02*
X133166666Y-108662295D01*
X133357142Y-107824200D02*
X133547619Y-108395628D01*
X133547619Y-108395628D02*
X133052380Y-108395628D01*
X138086104Y-109685714D02*
X138124200Y-109647618D01*
X138124200Y-109647618D02*
X138162295Y-109533333D01*
X138162295Y-109533333D02*
X138162295Y-109457142D01*
X138162295Y-109457142D02*
X138124200Y-109342856D01*
X138124200Y-109342856D02*
X138048009Y-109266666D01*
X138048009Y-109266666D02*
X137971819Y-109228571D01*
X137971819Y-109228571D02*
X137819438Y-109190475D01*
X137819438Y-109190475D02*
X137705152Y-109190475D01*
X137705152Y-109190475D02*
X137552771Y-109228571D01*
X137552771Y-109228571D02*
X137476580Y-109266666D01*
X137476580Y-109266666D02*
X137400390Y-109342856D01*
X137400390Y-109342856D02*
X137362295Y-109457142D01*
X137362295Y-109457142D02*
X137362295Y-109533333D01*
X137362295Y-109533333D02*
X137400390Y-109647618D01*
X137400390Y-109647618D02*
X137438485Y-109685714D01*
X138162295Y-110447618D02*
X138162295Y-109990475D01*
X138162295Y-110219047D02*
X137362295Y-110219047D01*
X137362295Y-110219047D02*
X137476580Y-110142856D01*
X137476580Y-110142856D02*
X137552771Y-110066666D01*
X137552771Y-110066666D02*
X137590866Y-109990475D01*
X137362295Y-110714285D02*
X137362295Y-111209523D01*
X137362295Y-111209523D02*
X137667057Y-110942857D01*
X137667057Y-110942857D02*
X137667057Y-111057142D01*
X137667057Y-111057142D02*
X137705152Y-111133333D01*
X137705152Y-111133333D02*
X137743247Y-111171428D01*
X137743247Y-111171428D02*
X137819438Y-111209523D01*
X137819438Y-111209523D02*
X138009914Y-111209523D01*
X138009914Y-111209523D02*
X138086104Y-111171428D01*
X138086104Y-111171428D02*
X138124200Y-111133333D01*
X138124200Y-111133333D02*
X138162295Y-111057142D01*
X138162295Y-111057142D02*
X138162295Y-110828571D01*
X138162295Y-110828571D02*
X138124200Y-110752380D01*
X138124200Y-110752380D02*
X138086104Y-110714285D01*
X134614285Y-107586104D02*
X134652381Y-107624200D01*
X134652381Y-107624200D02*
X134766666Y-107662295D01*
X134766666Y-107662295D02*
X134842857Y-107662295D01*
X134842857Y-107662295D02*
X134957143Y-107624200D01*
X134957143Y-107624200D02*
X135033333Y-107548009D01*
X135033333Y-107548009D02*
X135071428Y-107471819D01*
X135071428Y-107471819D02*
X135109524Y-107319438D01*
X135109524Y-107319438D02*
X135109524Y-107205152D01*
X135109524Y-107205152D02*
X135071428Y-107052771D01*
X135071428Y-107052771D02*
X135033333Y-106976580D01*
X135033333Y-106976580D02*
X134957143Y-106900390D01*
X134957143Y-106900390D02*
X134842857Y-106862295D01*
X134842857Y-106862295D02*
X134766666Y-106862295D01*
X134766666Y-106862295D02*
X134652381Y-106900390D01*
X134652381Y-106900390D02*
X134614285Y-106938485D01*
X134309524Y-106938485D02*
X134271428Y-106900390D01*
X134271428Y-106900390D02*
X134195238Y-106862295D01*
X134195238Y-106862295D02*
X134004762Y-106862295D01*
X134004762Y-106862295D02*
X133928571Y-106900390D01*
X133928571Y-106900390D02*
X133890476Y-106938485D01*
X133890476Y-106938485D02*
X133852381Y-107014676D01*
X133852381Y-107014676D02*
X133852381Y-107090866D01*
X133852381Y-107090866D02*
X133890476Y-107205152D01*
X133890476Y-107205152D02*
X134347619Y-107662295D01*
X134347619Y-107662295D02*
X133852381Y-107662295D01*
X133166666Y-107128961D02*
X133166666Y-107662295D01*
X133357142Y-106824200D02*
X133547619Y-107395628D01*
X133547619Y-107395628D02*
X133052380Y-107395628D01*
X115309523Y-101962295D02*
X114852380Y-101962295D01*
X115080952Y-102762295D02*
X115080952Y-101962295D01*
X114585713Y-102762295D02*
X114585713Y-101962295D01*
X114585713Y-101962295D02*
X114280951Y-101962295D01*
X114280951Y-101962295D02*
X114204761Y-102000390D01*
X114204761Y-102000390D02*
X114166666Y-102038485D01*
X114166666Y-102038485D02*
X114128570Y-102114676D01*
X114128570Y-102114676D02*
X114128570Y-102228961D01*
X114128570Y-102228961D02*
X114166666Y-102305152D01*
X114166666Y-102305152D02*
X114204761Y-102343247D01*
X114204761Y-102343247D02*
X114280951Y-102381342D01*
X114280951Y-102381342D02*
X114585713Y-102381342D01*
X113442856Y-102228961D02*
X113442856Y-102762295D01*
X113633332Y-101924200D02*
X113823809Y-102495628D01*
X113823809Y-102495628D02*
X113328570Y-102495628D01*
X136714285Y-103386104D02*
X136752381Y-103424200D01*
X136752381Y-103424200D02*
X136866666Y-103462295D01*
X136866666Y-103462295D02*
X136942857Y-103462295D01*
X136942857Y-103462295D02*
X137057143Y-103424200D01*
X137057143Y-103424200D02*
X137133333Y-103348009D01*
X137133333Y-103348009D02*
X137171428Y-103271819D01*
X137171428Y-103271819D02*
X137209524Y-103119438D01*
X137209524Y-103119438D02*
X137209524Y-103005152D01*
X137209524Y-103005152D02*
X137171428Y-102852771D01*
X137171428Y-102852771D02*
X137133333Y-102776580D01*
X137133333Y-102776580D02*
X137057143Y-102700390D01*
X137057143Y-102700390D02*
X136942857Y-102662295D01*
X136942857Y-102662295D02*
X136866666Y-102662295D01*
X136866666Y-102662295D02*
X136752381Y-102700390D01*
X136752381Y-102700390D02*
X136714285Y-102738485D01*
X136409524Y-102738485D02*
X136371428Y-102700390D01*
X136371428Y-102700390D02*
X136295238Y-102662295D01*
X136295238Y-102662295D02*
X136104762Y-102662295D01*
X136104762Y-102662295D02*
X136028571Y-102700390D01*
X136028571Y-102700390D02*
X135990476Y-102738485D01*
X135990476Y-102738485D02*
X135952381Y-102814676D01*
X135952381Y-102814676D02*
X135952381Y-102890866D01*
X135952381Y-102890866D02*
X135990476Y-103005152D01*
X135990476Y-103005152D02*
X136447619Y-103462295D01*
X136447619Y-103462295D02*
X135952381Y-103462295D01*
X135647619Y-102738485D02*
X135609523Y-102700390D01*
X135609523Y-102700390D02*
X135533333Y-102662295D01*
X135533333Y-102662295D02*
X135342857Y-102662295D01*
X135342857Y-102662295D02*
X135266666Y-102700390D01*
X135266666Y-102700390D02*
X135228571Y-102738485D01*
X135228571Y-102738485D02*
X135190476Y-102814676D01*
X135190476Y-102814676D02*
X135190476Y-102890866D01*
X135190476Y-102890866D02*
X135228571Y-103005152D01*
X135228571Y-103005152D02*
X135685714Y-103462295D01*
X135685714Y-103462295D02*
X135190476Y-103462295D01*
X136762295Y-106590476D02*
X137409914Y-106590476D01*
X137409914Y-106590476D02*
X137486104Y-106628571D01*
X137486104Y-106628571D02*
X137524200Y-106666666D01*
X137524200Y-106666666D02*
X137562295Y-106742857D01*
X137562295Y-106742857D02*
X137562295Y-106895238D01*
X137562295Y-106895238D02*
X137524200Y-106971428D01*
X137524200Y-106971428D02*
X137486104Y-107009523D01*
X137486104Y-107009523D02*
X137409914Y-107047619D01*
X137409914Y-107047619D02*
X136762295Y-107047619D01*
X136762295Y-107352380D02*
X136762295Y-107885714D01*
X136762295Y-107885714D02*
X137562295Y-107542856D01*
X143566666Y-108062295D02*
X143566666Y-108633723D01*
X143566666Y-108633723D02*
X143604761Y-108748009D01*
X143604761Y-108748009D02*
X143680952Y-108824200D01*
X143680952Y-108824200D02*
X143795237Y-108862295D01*
X143795237Y-108862295D02*
X143871428Y-108862295D01*
X143223809Y-108138485D02*
X143185713Y-108100390D01*
X143185713Y-108100390D02*
X143109523Y-108062295D01*
X143109523Y-108062295D02*
X142919047Y-108062295D01*
X142919047Y-108062295D02*
X142842856Y-108100390D01*
X142842856Y-108100390D02*
X142804761Y-108138485D01*
X142804761Y-108138485D02*
X142766666Y-108214676D01*
X142766666Y-108214676D02*
X142766666Y-108290866D01*
X142766666Y-108290866D02*
X142804761Y-108405152D01*
X142804761Y-108405152D02*
X143261904Y-108862295D01*
X143261904Y-108862295D02*
X142766666Y-108862295D01*
X136714285Y-102386104D02*
X136752381Y-102424200D01*
X136752381Y-102424200D02*
X136866666Y-102462295D01*
X136866666Y-102462295D02*
X136942857Y-102462295D01*
X136942857Y-102462295D02*
X137057143Y-102424200D01*
X137057143Y-102424200D02*
X137133333Y-102348009D01*
X137133333Y-102348009D02*
X137171428Y-102271819D01*
X137171428Y-102271819D02*
X137209524Y-102119438D01*
X137209524Y-102119438D02*
X137209524Y-102005152D01*
X137209524Y-102005152D02*
X137171428Y-101852771D01*
X137171428Y-101852771D02*
X137133333Y-101776580D01*
X137133333Y-101776580D02*
X137057143Y-101700390D01*
X137057143Y-101700390D02*
X136942857Y-101662295D01*
X136942857Y-101662295D02*
X136866666Y-101662295D01*
X136866666Y-101662295D02*
X136752381Y-101700390D01*
X136752381Y-101700390D02*
X136714285Y-101738485D01*
X135952381Y-102462295D02*
X136409524Y-102462295D01*
X136180952Y-102462295D02*
X136180952Y-101662295D01*
X136180952Y-101662295D02*
X136257143Y-101776580D01*
X136257143Y-101776580D02*
X136333333Y-101852771D01*
X136333333Y-101852771D02*
X136409524Y-101890866D01*
X135266666Y-101662295D02*
X135419047Y-101662295D01*
X135419047Y-101662295D02*
X135495238Y-101700390D01*
X135495238Y-101700390D02*
X135533333Y-101738485D01*
X135533333Y-101738485D02*
X135609523Y-101852771D01*
X135609523Y-101852771D02*
X135647619Y-102005152D01*
X135647619Y-102005152D02*
X135647619Y-102309914D01*
X135647619Y-102309914D02*
X135609523Y-102386104D01*
X135609523Y-102386104D02*
X135571428Y-102424200D01*
X135571428Y-102424200D02*
X135495238Y-102462295D01*
X135495238Y-102462295D02*
X135342857Y-102462295D01*
X135342857Y-102462295D02*
X135266666Y-102424200D01*
X135266666Y-102424200D02*
X135228571Y-102386104D01*
X135228571Y-102386104D02*
X135190476Y-102309914D01*
X135190476Y-102309914D02*
X135190476Y-102119438D01*
X135190476Y-102119438D02*
X135228571Y-102043247D01*
X135228571Y-102043247D02*
X135266666Y-102005152D01*
X135266666Y-102005152D02*
X135342857Y-101967057D01*
X135342857Y-101967057D02*
X135495238Y-101967057D01*
X135495238Y-101967057D02*
X135571428Y-102005152D01*
X135571428Y-102005152D02*
X135609523Y-102043247D01*
X135609523Y-102043247D02*
X135647619Y-102119438D01*
X134309523Y-97362295D02*
X133852380Y-97362295D01*
X134080952Y-98162295D02*
X134080952Y-97362295D01*
X133585713Y-98162295D02*
X133585713Y-97362295D01*
X133585713Y-97362295D02*
X133280951Y-97362295D01*
X133280951Y-97362295D02*
X133204761Y-97400390D01*
X133204761Y-97400390D02*
X133166666Y-97438485D01*
X133166666Y-97438485D02*
X133128570Y-97514676D01*
X133128570Y-97514676D02*
X133128570Y-97628961D01*
X133128570Y-97628961D02*
X133166666Y-97705152D01*
X133166666Y-97705152D02*
X133204761Y-97743247D01*
X133204761Y-97743247D02*
X133280951Y-97781342D01*
X133280951Y-97781342D02*
X133585713Y-97781342D01*
X132823809Y-97438485D02*
X132785713Y-97400390D01*
X132785713Y-97400390D02*
X132709523Y-97362295D01*
X132709523Y-97362295D02*
X132519047Y-97362295D01*
X132519047Y-97362295D02*
X132442856Y-97400390D01*
X132442856Y-97400390D02*
X132404761Y-97438485D01*
X132404761Y-97438485D02*
X132366666Y-97514676D01*
X132366666Y-97514676D02*
X132366666Y-97590866D01*
X132366666Y-97590866D02*
X132404761Y-97705152D01*
X132404761Y-97705152D02*
X132861904Y-98162295D01*
X132861904Y-98162295D02*
X132366666Y-98162295D01*
X136714285Y-101386104D02*
X136752381Y-101424200D01*
X136752381Y-101424200D02*
X136866666Y-101462295D01*
X136866666Y-101462295D02*
X136942857Y-101462295D01*
X136942857Y-101462295D02*
X137057143Y-101424200D01*
X137057143Y-101424200D02*
X137133333Y-101348009D01*
X137133333Y-101348009D02*
X137171428Y-101271819D01*
X137171428Y-101271819D02*
X137209524Y-101119438D01*
X137209524Y-101119438D02*
X137209524Y-101005152D01*
X137209524Y-101005152D02*
X137171428Y-100852771D01*
X137171428Y-100852771D02*
X137133333Y-100776580D01*
X137133333Y-100776580D02*
X137057143Y-100700390D01*
X137057143Y-100700390D02*
X136942857Y-100662295D01*
X136942857Y-100662295D02*
X136866666Y-100662295D01*
X136866666Y-100662295D02*
X136752381Y-100700390D01*
X136752381Y-100700390D02*
X136714285Y-100738485D01*
X135952381Y-101462295D02*
X136409524Y-101462295D01*
X136180952Y-101462295D02*
X136180952Y-100662295D01*
X136180952Y-100662295D02*
X136257143Y-100776580D01*
X136257143Y-100776580D02*
X136333333Y-100852771D01*
X136333333Y-100852771D02*
X136409524Y-100890866D01*
X135495238Y-101005152D02*
X135571428Y-100967057D01*
X135571428Y-100967057D02*
X135609523Y-100928961D01*
X135609523Y-100928961D02*
X135647619Y-100852771D01*
X135647619Y-100852771D02*
X135647619Y-100814676D01*
X135647619Y-100814676D02*
X135609523Y-100738485D01*
X135609523Y-100738485D02*
X135571428Y-100700390D01*
X135571428Y-100700390D02*
X135495238Y-100662295D01*
X135495238Y-100662295D02*
X135342857Y-100662295D01*
X135342857Y-100662295D02*
X135266666Y-100700390D01*
X135266666Y-100700390D02*
X135228571Y-100738485D01*
X135228571Y-100738485D02*
X135190476Y-100814676D01*
X135190476Y-100814676D02*
X135190476Y-100852771D01*
X135190476Y-100852771D02*
X135228571Y-100928961D01*
X135228571Y-100928961D02*
X135266666Y-100967057D01*
X135266666Y-100967057D02*
X135342857Y-101005152D01*
X135342857Y-101005152D02*
X135495238Y-101005152D01*
X135495238Y-101005152D02*
X135571428Y-101043247D01*
X135571428Y-101043247D02*
X135609523Y-101081342D01*
X135609523Y-101081342D02*
X135647619Y-101157533D01*
X135647619Y-101157533D02*
X135647619Y-101309914D01*
X135647619Y-101309914D02*
X135609523Y-101386104D01*
X135609523Y-101386104D02*
X135571428Y-101424200D01*
X135571428Y-101424200D02*
X135495238Y-101462295D01*
X135495238Y-101462295D02*
X135342857Y-101462295D01*
X135342857Y-101462295D02*
X135266666Y-101424200D01*
X135266666Y-101424200D02*
X135228571Y-101386104D01*
X135228571Y-101386104D02*
X135190476Y-101309914D01*
X135190476Y-101309914D02*
X135190476Y-101157533D01*
X135190476Y-101157533D02*
X135228571Y-101081342D01*
X135228571Y-101081342D02*
X135266666Y-101043247D01*
X135266666Y-101043247D02*
X135342857Y-101005152D01*
X137462295Y-99490476D02*
X137462295Y-99947619D01*
X138262295Y-99719047D02*
X137462295Y-99719047D01*
X138262295Y-100214286D02*
X137462295Y-100214286D01*
X137462295Y-100214286D02*
X137462295Y-100519048D01*
X137462295Y-100519048D02*
X137500390Y-100595238D01*
X137500390Y-100595238D02*
X137538485Y-100633333D01*
X137538485Y-100633333D02*
X137614676Y-100671429D01*
X137614676Y-100671429D02*
X137728961Y-100671429D01*
X137728961Y-100671429D02*
X137805152Y-100633333D01*
X137805152Y-100633333D02*
X137843247Y-100595238D01*
X137843247Y-100595238D02*
X137881342Y-100519048D01*
X137881342Y-100519048D02*
X137881342Y-100214286D01*
X137462295Y-100938095D02*
X137462295Y-101433333D01*
X137462295Y-101433333D02*
X137767057Y-101166667D01*
X137767057Y-101166667D02*
X137767057Y-101280952D01*
X137767057Y-101280952D02*
X137805152Y-101357143D01*
X137805152Y-101357143D02*
X137843247Y-101395238D01*
X137843247Y-101395238D02*
X137919438Y-101433333D01*
X137919438Y-101433333D02*
X138109914Y-101433333D01*
X138109914Y-101433333D02*
X138186104Y-101395238D01*
X138186104Y-101395238D02*
X138224200Y-101357143D01*
X138224200Y-101357143D02*
X138262295Y-101280952D01*
X138262295Y-101280952D02*
X138262295Y-101052381D01*
X138262295Y-101052381D02*
X138224200Y-100976190D01*
X138224200Y-100976190D02*
X138186104Y-100938095D01*
G04 #@! TO.C,J4*
D11*
X115810000Y-98715000D02*
X115810000Y-101025000D01*
X115810000Y-98715000D02*
X116010000Y-98515000D01*
X115810000Y-101025000D02*
X116160000Y-101535000D01*
X115810000Y-108115000D02*
X116010000Y-107905000D01*
X115810000Y-109975000D02*
X115810000Y-108115000D01*
X115810000Y-109975000D02*
X116010000Y-110175000D01*
X116010000Y-98515000D02*
X116010000Y-98255000D01*
X116160000Y-107905000D02*
X116010000Y-107905000D01*
X116160000Y-107905000D02*
X116160000Y-101535000D01*
X120770000Y-111005000D02*
X118970000Y-111005000D01*
X126770000Y-111005000D02*
X122070000Y-111005000D01*
X132080000Y-97035000D02*
X118070000Y-97035000D01*
X132080000Y-98955000D02*
X132080000Y-97035000D01*
X132080000Y-110555000D02*
X132080000Y-111005000D01*
X132080000Y-111005000D02*
X128470000Y-111005000D01*
G04 #@! TO.C,TP1*
X135600000Y-98600000D02*
X135600000Y-100000000D01*
X135600000Y-100000000D02*
X137000000Y-100000000D01*
X137000000Y-98600000D02*
X135600000Y-98600000D01*
X137000000Y-100000000D02*
X137000000Y-98600000D01*
G04 #@! TO.C,C14*
X133992164Y-105840000D02*
X134207836Y-105840000D01*
X133992164Y-106560000D02*
X134207836Y-106560000D01*
G04 #@! TO.C,C13*
X138440000Y-109992164D02*
X138440000Y-110207836D01*
X139160000Y-109992164D02*
X139160000Y-110207836D01*
G04 #@! TO.C,C24*
X133992164Y-104840000D02*
X134207836Y-104840000D01*
X133992164Y-105560000D02*
X134207836Y-105560000D01*
G04 #@! TO.C,TP4*
X113600000Y-103000000D02*
X113600000Y-104400000D01*
X113600000Y-104400000D02*
X115000000Y-104400000D01*
X115000000Y-103000000D02*
X113600000Y-103000000D01*
X115000000Y-104400000D02*
X115000000Y-103000000D01*
G04 #@! TO.C,C22*
X133992164Y-102740000D02*
X134207836Y-102740000D01*
X133992164Y-103460000D02*
X134207836Y-103460000D01*
G04 #@! TO.C,U7*
X136600000Y-105000000D02*
X136600000Y-105200000D01*
X136600000Y-106300000D02*
X136600000Y-106100000D01*
X137150000Y-105000000D02*
X136600000Y-105000000D01*
X137150000Y-106300000D02*
X136600000Y-106300000D01*
X137580000Y-104890000D02*
X137860000Y-104890000D01*
X137580000Y-104610000D01*
X137580000Y-104890000D01*
G36*
X137860000Y-104890000D02*
G01*
X137580000Y-104890000D01*
X137580000Y-104610000D01*
X137860000Y-104890000D01*
G37*
G04 #@! TO.C,J2*
X138240000Y-106900000D02*
X138240000Y-107500000D01*
X139750000Y-99590000D02*
X139750000Y-99010000D01*
X139750000Y-108810000D02*
X139750000Y-109390000D01*
G04 #@! TO.C,C16*
X133992164Y-101740000D02*
X134207836Y-101740000D01*
X133992164Y-102460000D02*
X134207836Y-102460000D01*
G04 #@! TO.C,TP2*
X133400000Y-98600000D02*
X133400000Y-100000000D01*
X133400000Y-100000000D02*
X134800000Y-100000000D01*
X134800000Y-98600000D02*
X133400000Y-98600000D01*
X134800000Y-100000000D02*
X134800000Y-98600000D01*
G04 #@! TO.C,C18*
X133992164Y-100740000D02*
X134207836Y-100740000D01*
X133992164Y-101460000D02*
X134207836Y-101460000D01*
G04 #@! TO.C,TP3*
X137600000Y-97600000D02*
X137600000Y-99000000D01*
X137600000Y-99000000D02*
X139000000Y-99000000D01*
X139000000Y-97600000D02*
X137600000Y-97600000D01*
X139000000Y-99000000D02*
X139000000Y-97600000D01*
G04 #@! TD*
%LPC*%
D12*
G04 #@! TO.C,J4*
X131920000Y-101255000D03*
X131920000Y-102355000D03*
X131920000Y-103455000D03*
X131920000Y-104555000D03*
X131920000Y-105655000D03*
X131920000Y-106755000D03*
X131920000Y-107855000D03*
X131920000Y-108955000D03*
X131920000Y-109905000D03*
D13*
X121420000Y-110855000D03*
D14*
X117270000Y-110855000D03*
D15*
X127620000Y-110855000D03*
X131920000Y-99705000D03*
D16*
X116820000Y-97355000D03*
G04 #@! TD*
D17*
G04 #@! TO.C,TP1*
X136300000Y-99300000D03*
G04 #@! TD*
D18*
G04 #@! TO.C,FID6*
X136400000Y-110500000D03*
G04 #@! TD*
D19*
G04 #@! TO.C,C14*
X133620000Y-106200000D03*
X134580000Y-106200000D03*
G04 #@! TD*
D20*
G04 #@! TO.C,C13*
X138800000Y-109620000D03*
X138800000Y-110580000D03*
G04 #@! TD*
D19*
G04 #@! TO.C,C24*
X133620000Y-105200000D03*
X134580000Y-105200000D03*
G04 #@! TD*
D17*
G04 #@! TO.C,TP4*
X114300000Y-103700000D03*
G04 #@! TD*
D19*
G04 #@! TO.C,C22*
X133620000Y-103100000D03*
X134580000Y-103100000D03*
G04 #@! TD*
D21*
G04 #@! TO.C,U7*
X137575000Y-105300000D03*
X137575000Y-106000000D03*
X136725000Y-105650000D03*
G04 #@! TD*
D22*
G04 #@! TO.C,J2*
X141850000Y-101950000D03*
X141850000Y-106450000D03*
D23*
X139400000Y-107200000D03*
X139400000Y-105200000D03*
X139400000Y-103200000D03*
X139400000Y-101200000D03*
X139400000Y-100200000D03*
X139400000Y-102200000D03*
X139400000Y-104200000D03*
X139400000Y-106200000D03*
D24*
X139400000Y-108200000D03*
D25*
X141850000Y-98350000D03*
X141850000Y-110050000D03*
G04 #@! TD*
D19*
G04 #@! TO.C,C16*
X133620000Y-102100000D03*
X134580000Y-102100000D03*
G04 #@! TD*
D17*
G04 #@! TO.C,TP2*
X134100000Y-99300000D03*
G04 #@! TD*
D18*
G04 #@! TO.C,FID5*
X111800000Y-108900000D03*
G04 #@! TD*
D19*
G04 #@! TO.C,C18*
X133620000Y-101100000D03*
X134580000Y-101100000D03*
G04 #@! TD*
D17*
G04 #@! TO.C,TP3*
X138300000Y-98300000D03*
G04 #@! TD*
D18*
G04 #@! TO.C,FID1*
X113700000Y-98700000D03*
G04 #@! TD*
%LPD*%
M02*
