G04 #@! TF.GenerationSoftware,KiCad,Pcbnew,10.0.3*
G04 #@! TF.CreationDate,2026-06-22T13:39:02+02:00*
G04 #@! TF.ProjectId,ovrdrive,6f767264-7269-4766-952e-6b696361645f,rev?*
G04 #@! TF.SameCoordinates,Original*
G04 #@! TF.FileFunction,Copper,L3,Inr*
G04 #@! TF.FilePolarity,Positive*
%FSLAX46Y46*%
G04 Gerber Fmt 4.6, Leading zero omitted, Abs format (unit mm)*
G04 Created by KiCad (PCBNEW 10.0.3) date 2026-06-22 13:39:02*
%MOMM*%
%LPD*%
G01*
G04 APERTURE LIST*
G04 #@! TA.AperFunction,HeatsinkPad*
%ADD10O,4.000000X1.600000*%
G04 #@! TD*
G04 #@! TA.AperFunction,ViaPad*
%ADD11C,0.400000*%
G04 #@! TD*
G04 #@! TA.AperFunction,Conductor*
%ADD12C,0.500000*%
G04 #@! TD*
G04 APERTURE END LIST*
D10*
G04 #@! TO.N,GND*
G04 #@! TO.C,J2*
X141850000Y-98350000D03*
X141850000Y-110050000D03*
G04 #@! TD*
D11*
G04 #@! TO.N,+3V3*
X123400000Y-101700000D03*
X121400000Y-100100000D03*
X133064869Y-106423456D03*
X121400000Y-99600000D03*
X131447500Y-104500000D03*
X121400000Y-99100000D03*
X121400000Y-98600000D03*
X133100000Y-101200000D03*
X130595454Y-109400000D03*
G04 #@! TO.N,Net-(J4-DET_A)*
X120700000Y-110700000D03*
G04 #@! TO.N,+1V2*
X120100000Y-108300000D03*
X132904707Y-105130475D03*
X131019998Y-107000000D03*
X133278732Y-103614926D03*
X120100000Y-108800000D03*
X129322500Y-108589999D03*
G04 #@! TO.N,GND*
X136500000Y-102300000D03*
X133400000Y-104100000D03*
X137700000Y-102400000D03*
X114800000Y-97600000D03*
X138100000Y-100700000D03*
X115400000Y-97600000D03*
X115490000Y-103280000D03*
X135700000Y-104400000D03*
X137050000Y-105250000D03*
X127900000Y-109900000D03*
X136100000Y-102700000D03*
X133900000Y-104100000D03*
X114760000Y-109010000D03*
X137900000Y-104300000D03*
X111500000Y-103400000D03*
X112900000Y-103400000D03*
X136100000Y-104000000D03*
X115030000Y-109980000D03*
X120320000Y-103320000D03*
X137300000Y-101500000D03*
X137500000Y-108400000D03*
X124670000Y-99450000D03*
X137400000Y-107500000D03*
X135700000Y-103100000D03*
X136200000Y-106300000D03*
X136900000Y-101900000D03*
X135600000Y-106200000D03*
X138200000Y-103200000D03*
X110900000Y-104000000D03*
X133500000Y-106850000D03*
X117700000Y-109700000D03*
X134700000Y-106850000D03*
X132100000Y-98700000D03*
X117600000Y-101700000D03*
X135300000Y-107900000D03*
X136900000Y-103200000D03*
X123400000Y-99300000D03*
X135300000Y-104900000D03*
X138100000Y-105900000D03*
X133360000Y-107790000D03*
X117700000Y-108500000D03*
X132600000Y-110700000D03*
X136900000Y-107000000D03*
X136500000Y-107400000D03*
X131500000Y-98700000D03*
X132700000Y-98700000D03*
X133500000Y-100200000D03*
X136500000Y-103600000D03*
X135100000Y-100300000D03*
X115500000Y-101100000D03*
X135100000Y-109800000D03*
X134400000Y-104100000D03*
X122190000Y-105170000D03*
X138100000Y-106700000D03*
X138400000Y-111300000D03*
X131780000Y-110630000D03*
X136000000Y-107600000D03*
X117700000Y-109100000D03*
X113120000Y-107310000D03*
X134100000Y-106850000D03*
X135200000Y-106600000D03*
X137300000Y-102800000D03*
X134620000Y-107780000D03*
X137800000Y-104800000D03*
X122300000Y-97900000D03*
X114800000Y-105800000D03*
X119300000Y-99700000D03*
X137700000Y-101100000D03*
X118550000Y-106390000D03*
X137900000Y-103700000D03*
X136400000Y-105200000D03*
X135800000Y-105200000D03*
X134900000Y-103900000D03*
X138100000Y-102000000D03*
X138000000Y-107700000D03*
X115400000Y-104700000D03*
X112900000Y-100200000D03*
X136200000Y-101300000D03*
X115400000Y-105200000D03*
X123990000Y-108250000D03*
X112200000Y-103400000D03*
X135300000Y-103500000D03*
X133990000Y-107780000D03*
X116700000Y-107700000D03*
X114020000Y-101780000D03*
G04 #@! TO.N,/USB_SSTX_R-*
X139400000Y-106200000D03*
G04 #@! TO.N,/USB_SSTX_R+*
X139400000Y-108200000D03*
G04 #@! TO.N,VBUS*
X112300000Y-105900000D03*
X112300000Y-106400000D03*
X140900000Y-108600000D03*
X115000000Y-101400000D03*
X140900000Y-108100000D03*
X115000000Y-101900000D03*
X140900000Y-107600000D03*
G04 #@! TO.N,/SD_CLK*
X127112576Y-100701015D03*
G04 #@! TO.N,/RST#*
X125200000Y-98100000D03*
G04 #@! TO.N,/SD_CMD*
X127508412Y-101006492D03*
G04 #@! TO.N,/SD_D0*
X128604429Y-107166217D03*
X128100000Y-100900000D03*
G04 #@! TO.N,/SD_D1*
X131890258Y-108953765D03*
X128580001Y-101039998D03*
G04 #@! TO.N,/SD_D2*
X128900000Y-99300000D03*
G04 #@! TO.N,/SD_D3*
X129300000Y-101039998D03*
G04 #@! TO.N,/ISP*
X129800000Y-100800000D03*
X122100000Y-105900000D03*
G04 #@! TO.N,/USB_D+*
X135567222Y-107019228D03*
G04 #@! TO.N,/USB_D-*
X135237058Y-107394719D03*
G04 #@! TO.N,/USB_SSRX+*
X139400000Y-102200000D03*
G04 #@! TO.N,/USB_SSRX-*
X139400000Y-100200000D03*
G04 #@! TO.N,/UART_TXD*
X136300000Y-99300000D03*
G04 #@! TO.N,/UART_RXD*
X134100000Y-99300000D03*
G04 #@! TO.N,/SD_DET*
X129100000Y-109500000D03*
G04 #@! TD*
G04 #@! TO.N,+1V2*
D12*
X120100000Y-108800000D02*
X129112499Y-108800000D01*
X129322500Y-107377500D02*
X129700000Y-107000000D01*
X120100000Y-108300000D02*
X120100000Y-108800000D01*
X129700000Y-107000000D02*
X131019998Y-107000000D01*
X129322500Y-108589999D02*
X129322500Y-107377500D01*
X129112499Y-108800000D02*
X129322500Y-108589999D01*
G04 #@! TO.N,VBUS*
X133327818Y-110650000D02*
X132757818Y-110080000D01*
X115000000Y-102400000D02*
X115000000Y-101900000D01*
X132757818Y-110080000D02*
X131370000Y-110080000D01*
X120927818Y-110150000D02*
X118027818Y-110150000D01*
X130850000Y-110600000D02*
X121377818Y-110600000D01*
X118027818Y-110150000D02*
X117647818Y-110530000D01*
X140900000Y-107600000D02*
X140900000Y-108500000D01*
X140900000Y-108500000D02*
X140150000Y-108500000D01*
X140150000Y-108500000D02*
X138000000Y-110650000D01*
X114530000Y-110530000D02*
X112300000Y-108300000D01*
X121377818Y-110600000D02*
X120927818Y-110150000D01*
X115000000Y-101900000D02*
X115000000Y-101400000D01*
X112300000Y-106400000D02*
X112300000Y-105900000D01*
X112300000Y-105100000D02*
X115000000Y-102400000D01*
X112300000Y-108300000D02*
X112300000Y-106400000D01*
X117647818Y-110530000D02*
X114530000Y-110530000D01*
X138000000Y-110650000D02*
X133327818Y-110650000D01*
X112300000Y-106400000D02*
X112300000Y-105100000D01*
X131370000Y-110080000D02*
X130850000Y-110600000D01*
G04 #@! TD*
G04 #@! TA.AperFunction,Conductor*
G04 #@! TO.N,+3V3*
G36*
X131333401Y-98239428D02*
G01*
X131379561Y-98291878D01*
X131390036Y-98360958D01*
X131361501Y-98424735D01*
X131329167Y-98451643D01*
X131315489Y-98459539D01*
X131259541Y-98515487D01*
X131259535Y-98515495D01*
X131219982Y-98584004D01*
X131219979Y-98584009D01*
X131206326Y-98634962D01*
X131199500Y-98660438D01*
X131199500Y-98739562D01*
X131200000Y-98741427D01*
X131219979Y-98815990D01*
X131219982Y-98815995D01*
X131259535Y-98884504D01*
X131259539Y-98884509D01*
X131259540Y-98884511D01*
X131315489Y-98940460D01*
X131315491Y-98940461D01*
X131315495Y-98940464D01*
X131384004Y-98980017D01*
X131384011Y-98980021D01*
X131460438Y-99000500D01*
X131460440Y-99000500D01*
X131539560Y-99000500D01*
X131539562Y-99000500D01*
X131615989Y-98980021D01*
X131684511Y-98940460D01*
X131712319Y-98912652D01*
X131773642Y-98879167D01*
X131843334Y-98884151D01*
X131887681Y-98912652D01*
X131915489Y-98940460D01*
X131915491Y-98940461D01*
X131915495Y-98940464D01*
X131984004Y-98980017D01*
X131984011Y-98980021D01*
X132060438Y-99000500D01*
X132060440Y-99000500D01*
X132139560Y-99000500D01*
X132139562Y-99000500D01*
X132215989Y-98980021D01*
X132284511Y-98940460D01*
X132312319Y-98912652D01*
X132373642Y-98879167D01*
X132443334Y-98884151D01*
X132487681Y-98912652D01*
X132515489Y-98940460D01*
X132515491Y-98940461D01*
X132515495Y-98940464D01*
X132584004Y-98980017D01*
X132584011Y-98980021D01*
X132660438Y-99000500D01*
X132660440Y-99000500D01*
X132739560Y-99000500D01*
X132739562Y-99000500D01*
X132815989Y-98980021D01*
X132884511Y-98940460D01*
X132940460Y-98884511D01*
X132968613Y-98835747D01*
X133019179Y-98787533D01*
X133087786Y-98774309D01*
X133152651Y-98800277D01*
X133193180Y-98857190D01*
X133200000Y-98897748D01*
X133200000Y-100158572D01*
X133199500Y-100160438D01*
X133199500Y-100239562D01*
X133200000Y-100241427D01*
X133200000Y-103241802D01*
X133180315Y-103308841D01*
X133138001Y-103349188D01*
X133094227Y-103374461D01*
X133094219Y-103374467D01*
X133038273Y-103430413D01*
X133038267Y-103430421D01*
X132998714Y-103498930D01*
X132998711Y-103498935D01*
X132997217Y-103504511D01*
X132978232Y-103575364D01*
X132978232Y-103654488D01*
X132991884Y-103705439D01*
X132998711Y-103730916D01*
X132998714Y-103730921D01*
X133038267Y-103799430D01*
X133038273Y-103799438D01*
X133091521Y-103852686D01*
X133125006Y-103914009D01*
X133120589Y-103975760D01*
X133122083Y-103976161D01*
X133119979Y-103984009D01*
X133119979Y-103984011D01*
X133099500Y-104060438D01*
X133099500Y-104139562D01*
X133105963Y-104163681D01*
X133119979Y-104215990D01*
X133119982Y-104215995D01*
X133159535Y-104284504D01*
X133159541Y-104284512D01*
X133163681Y-104288652D01*
X133197166Y-104349975D01*
X133200000Y-104376333D01*
X133200000Y-104739201D01*
X133180315Y-104806240D01*
X133127511Y-104851995D01*
X133058353Y-104861939D01*
X133028951Y-104851764D01*
X133028206Y-104853565D01*
X133020697Y-104850454D01*
X132995220Y-104843627D01*
X132944269Y-104829975D01*
X132865145Y-104829975D01*
X132826931Y-104840214D01*
X132788716Y-104850454D01*
X132788711Y-104850457D01*
X132720202Y-104890010D01*
X132720194Y-104890016D01*
X132664248Y-104945962D01*
X132664242Y-104945970D01*
X132624689Y-105014479D01*
X132624686Y-105014484D01*
X132614095Y-105054011D01*
X132604207Y-105090913D01*
X132604207Y-105170037D01*
X132614798Y-105209562D01*
X132624686Y-105246465D01*
X132624689Y-105246470D01*
X132664242Y-105314979D01*
X132664246Y-105314984D01*
X132664247Y-105314986D01*
X132720196Y-105370935D01*
X132720198Y-105370936D01*
X132720202Y-105370939D01*
X132788656Y-105410460D01*
X132788718Y-105410496D01*
X132865145Y-105430975D01*
X132865147Y-105430975D01*
X132944267Y-105430975D01*
X132944269Y-105430975D01*
X133020696Y-105410496D01*
X133020699Y-105410493D01*
X133028206Y-105407385D01*
X133029549Y-105410629D01*
X133081638Y-105397876D01*
X133147713Y-105420589D01*
X133191020Y-105475418D01*
X133200000Y-105521748D01*
X133200000Y-106808572D01*
X133199500Y-106810438D01*
X133199500Y-106889562D01*
X133200000Y-106891427D01*
X133200000Y-107473666D01*
X133180315Y-107540705D01*
X133163682Y-107561346D01*
X133119541Y-107605487D01*
X133119535Y-107605495D01*
X133079982Y-107674004D01*
X133079979Y-107674009D01*
X133066326Y-107724962D01*
X133059500Y-107750438D01*
X133059500Y-107829562D01*
X133073152Y-107880513D01*
X133079979Y-107905990D01*
X133079982Y-107905995D01*
X133119535Y-107974504D01*
X133119541Y-107974512D01*
X133163681Y-108018652D01*
X133197166Y-108079975D01*
X133200000Y-108106333D01*
X133200000Y-109148638D01*
X133180315Y-109215677D01*
X133163681Y-109236319D01*
X132736319Y-109663681D01*
X132674996Y-109697166D01*
X132648638Y-109700000D01*
X130651362Y-109700000D01*
X130584323Y-109680315D01*
X130563681Y-109663681D01*
X130136319Y-109236319D01*
X130121615Y-109209391D01*
X130105023Y-109183573D01*
X130104131Y-109177372D01*
X130102834Y-109174996D01*
X130100000Y-109148638D01*
X130100000Y-108914203D01*
X131589758Y-108914203D01*
X131589758Y-108993327D01*
X131603410Y-109044278D01*
X131610237Y-109069755D01*
X131610240Y-109069760D01*
X131649793Y-109138269D01*
X131649797Y-109138274D01*
X131649798Y-109138276D01*
X131705747Y-109194225D01*
X131705749Y-109194226D01*
X131705753Y-109194229D01*
X131732015Y-109209391D01*
X131774269Y-109233786D01*
X131850696Y-109254265D01*
X131850698Y-109254265D01*
X131929818Y-109254265D01*
X131929820Y-109254265D01*
X132006247Y-109233786D01*
X132074769Y-109194225D01*
X132130718Y-109138276D01*
X132170279Y-109069754D01*
X132190758Y-108993327D01*
X132190758Y-108914203D01*
X132170279Y-108837776D01*
X132151478Y-108805211D01*
X132130722Y-108769260D01*
X132130716Y-108769252D01*
X132074770Y-108713306D01*
X132074762Y-108713300D01*
X132006253Y-108673747D01*
X132006248Y-108673744D01*
X131980771Y-108666917D01*
X131929820Y-108653265D01*
X131850696Y-108653265D01*
X131812482Y-108663504D01*
X131774267Y-108673744D01*
X131774262Y-108673747D01*
X131705753Y-108713300D01*
X131705745Y-108713306D01*
X131649799Y-108769252D01*
X131649793Y-108769260D01*
X131610240Y-108837769D01*
X131610237Y-108837774D01*
X131596584Y-108888727D01*
X131589758Y-108914203D01*
X130100000Y-108914203D01*
X130100000Y-107474500D01*
X130119685Y-107407461D01*
X130172489Y-107361706D01*
X130224000Y-107350500D01*
X131066140Y-107350500D01*
X131066142Y-107350500D01*
X131155286Y-107326614D01*
X131235210Y-107280469D01*
X131300467Y-107215212D01*
X131346612Y-107135288D01*
X131370498Y-107046144D01*
X131370498Y-106953856D01*
X131346612Y-106864712D01*
X131346609Y-106864706D01*
X131300471Y-106784794D01*
X131300468Y-106784791D01*
X131300467Y-106784788D01*
X131235210Y-106719531D01*
X131235207Y-106719529D01*
X131235203Y-106719526D01*
X131155291Y-106673388D01*
X131155288Y-106673387D01*
X131155287Y-106673386D01*
X131155286Y-106673386D01*
X131066142Y-106649500D01*
X130224000Y-106649500D01*
X130156961Y-106629815D01*
X130111206Y-106577011D01*
X130100000Y-106525500D01*
X130100000Y-104200000D01*
X129600000Y-104200000D01*
X121451362Y-104200000D01*
X121384323Y-104180315D01*
X121363681Y-104163681D01*
X120936319Y-103736319D01*
X120902834Y-103674996D01*
X120900000Y-103648638D01*
X120900000Y-100661453D01*
X126812076Y-100661453D01*
X126812076Y-100740577D01*
X126817275Y-100759980D01*
X126832555Y-100817005D01*
X126832558Y-100817010D01*
X126872111Y-100885519D01*
X126872115Y-100885524D01*
X126872116Y-100885526D01*
X126928065Y-100941475D01*
X126928067Y-100941476D01*
X126928071Y-100941479D01*
X126985590Y-100974687D01*
X126996587Y-100981036D01*
X127073014Y-101001515D01*
X127073016Y-101001515D01*
X127100830Y-101001515D01*
X127167869Y-101021200D01*
X127213624Y-101074004D01*
X127220601Y-101093412D01*
X127228391Y-101122481D01*
X127228392Y-101122482D01*
X127228394Y-101122487D01*
X127267947Y-101190996D01*
X127267951Y-101191001D01*
X127267952Y-101191003D01*
X127323901Y-101246952D01*
X127323903Y-101246953D01*
X127323907Y-101246956D01*
X127381932Y-101280456D01*
X127392423Y-101286513D01*
X127468850Y-101306992D01*
X127468852Y-101306992D01*
X127547972Y-101306992D01*
X127547974Y-101306992D01*
X127624401Y-101286513D01*
X127692923Y-101246952D01*
X127748872Y-101191003D01*
X127750410Y-101188339D01*
X127752296Y-101186540D01*
X127753822Y-101184552D01*
X127754131Y-101184789D01*
X127800972Y-101140123D01*
X127869579Y-101126896D01*
X127919797Y-101142947D01*
X127984011Y-101180021D01*
X128060438Y-101200500D01*
X128060440Y-101200500D01*
X128139561Y-101200500D01*
X128139562Y-101200500D01*
X128210122Y-101181593D01*
X128279972Y-101183255D01*
X128333245Y-101219310D01*
X128333794Y-101218762D01*
X128336637Y-101221605D01*
X128337835Y-101222416D01*
X128339345Y-101224313D01*
X128339540Y-101224508D01*
X128339541Y-101224509D01*
X128395490Y-101280458D01*
X128395492Y-101280459D01*
X128395496Y-101280462D01*
X128441448Y-101306992D01*
X128464012Y-101320019D01*
X128540439Y-101340498D01*
X128540441Y-101340498D01*
X128619561Y-101340498D01*
X128619563Y-101340498D01*
X128695990Y-101320019D01*
X128764512Y-101280458D01*
X128820461Y-101224509D01*
X128832614Y-101203460D01*
X128883177Y-101155246D01*
X128951784Y-101142021D01*
X129016649Y-101167987D01*
X129047387Y-101203460D01*
X129059537Y-101224505D01*
X129059539Y-101224508D01*
X129059540Y-101224509D01*
X129115489Y-101280458D01*
X129115491Y-101280459D01*
X129115495Y-101280462D01*
X129161447Y-101306992D01*
X129184011Y-101320019D01*
X129260438Y-101340498D01*
X129260440Y-101340498D01*
X129339560Y-101340498D01*
X129339562Y-101340498D01*
X129415989Y-101320019D01*
X129484511Y-101280458D01*
X129540460Y-101224509D01*
X129561342Y-101188341D01*
X129584085Y-101148949D01*
X129587074Y-101150675D01*
X129620837Y-101108677D01*
X129687105Y-101086533D01*
X129723769Y-101090674D01*
X129760438Y-101100500D01*
X129760439Y-101100500D01*
X129839560Y-101100500D01*
X129839562Y-101100500D01*
X129915989Y-101080021D01*
X129984511Y-101040460D01*
X130040460Y-100984511D01*
X130080021Y-100915989D01*
X130100500Y-100839562D01*
X130100500Y-100760438D01*
X130080021Y-100684011D01*
X130066594Y-100660755D01*
X130040464Y-100615495D01*
X130040458Y-100615487D01*
X129984512Y-100559541D01*
X129984504Y-100559535D01*
X129915995Y-100519982D01*
X129915990Y-100519979D01*
X129890513Y-100513152D01*
X129839562Y-100499500D01*
X129760438Y-100499500D01*
X129722224Y-100509739D01*
X129684009Y-100519979D01*
X129684004Y-100519982D01*
X129615495Y-100559535D01*
X129615487Y-100559541D01*
X129559541Y-100615487D01*
X129559535Y-100615495D01*
X129515915Y-100691049D01*
X129512964Y-100689345D01*
X129478915Y-100731492D01*
X129412594Y-100753474D01*
X129376229Y-100749323D01*
X129339562Y-100739498D01*
X129260438Y-100739498D01*
X129223771Y-100749323D01*
X129184009Y-100759977D01*
X129184004Y-100759980D01*
X129115495Y-100799533D01*
X129115487Y-100799539D01*
X129059541Y-100855485D01*
X129059537Y-100855490D01*
X129047386Y-100876537D01*
X128996818Y-100924751D01*
X128928211Y-100937973D01*
X128863347Y-100912004D01*
X128832612Y-100876534D01*
X128820461Y-100855487D01*
X128764513Y-100799539D01*
X128764505Y-100799533D01*
X128695996Y-100759980D01*
X128695991Y-100759977D01*
X128670514Y-100753150D01*
X128619563Y-100739498D01*
X128540439Y-100739498D01*
X128540438Y-100739498D01*
X128469876Y-100758405D01*
X128400026Y-100756742D01*
X128346755Y-100720687D01*
X128346207Y-100721236D01*
X128343358Y-100718387D01*
X128342164Y-100717579D01*
X128340656Y-100715685D01*
X128284512Y-100659541D01*
X128284504Y-100659535D01*
X128215995Y-100619982D01*
X128215990Y-100619979D01*
X128190513Y-100613152D01*
X128139562Y-100599500D01*
X128060438Y-100599500D01*
X128022224Y-100609739D01*
X127984009Y-100619979D01*
X127984004Y-100619982D01*
X127915495Y-100659535D01*
X127915487Y-100659541D01*
X127859541Y-100715487D01*
X127859535Y-100715495D01*
X127857995Y-100718163D01*
X127856107Y-100719962D01*
X127854590Y-100721940D01*
X127854281Y-100721703D01*
X127807425Y-100766375D01*
X127738817Y-100779594D01*
X127712625Y-100774194D01*
X127695608Y-100768717D01*
X127692923Y-100766032D01*
X127624401Y-100726471D01*
X127547974Y-100705992D01*
X127500697Y-100705992D01*
X127482171Y-100700030D01*
X127468720Y-100690888D01*
X127453119Y-100686307D01*
X127440423Y-100671655D01*
X127424385Y-100660755D01*
X127418011Y-100645790D01*
X127407364Y-100633503D01*
X127400386Y-100614094D01*
X127392597Y-100585026D01*
X127392593Y-100585019D01*
X127353040Y-100516510D01*
X127353034Y-100516502D01*
X127297088Y-100460556D01*
X127297080Y-100460550D01*
X127228571Y-100420997D01*
X127228566Y-100420994D01*
X127203089Y-100414167D01*
X127152138Y-100400515D01*
X127073014Y-100400515D01*
X127034800Y-100410754D01*
X126996585Y-100420994D01*
X126996580Y-100420997D01*
X126928071Y-100460550D01*
X126928063Y-100460556D01*
X126872117Y-100516502D01*
X126872111Y-100516510D01*
X126832558Y-100585019D01*
X126832555Y-100585024D01*
X126823189Y-100619979D01*
X126812076Y-100661453D01*
X120900000Y-100661453D01*
X120900000Y-99260438D01*
X123099500Y-99260438D01*
X123099500Y-99339562D01*
X123107714Y-99370215D01*
X123119979Y-99415990D01*
X123119982Y-99415995D01*
X123159535Y-99484504D01*
X123159539Y-99484509D01*
X123159540Y-99484511D01*
X123215489Y-99540460D01*
X123215491Y-99540461D01*
X123215495Y-99540464D01*
X123259708Y-99565990D01*
X123284011Y-99580021D01*
X123360438Y-99600500D01*
X123360440Y-99600500D01*
X123439560Y-99600500D01*
X123439562Y-99600500D01*
X123515989Y-99580021D01*
X123584511Y-99540460D01*
X123640460Y-99484511D01*
X123680021Y-99415989D01*
X123681508Y-99410438D01*
X124369500Y-99410438D01*
X124369500Y-99489562D01*
X124383138Y-99540458D01*
X124389979Y-99565990D01*
X124389982Y-99565995D01*
X124429535Y-99634504D01*
X124429539Y-99634509D01*
X124429540Y-99634511D01*
X124485489Y-99690460D01*
X124485491Y-99690461D01*
X124485495Y-99690464D01*
X124554004Y-99730017D01*
X124554011Y-99730021D01*
X124630438Y-99750500D01*
X124630440Y-99750500D01*
X124709560Y-99750500D01*
X124709562Y-99750500D01*
X124785989Y-99730021D01*
X124854511Y-99690460D01*
X124910460Y-99634511D01*
X124950021Y-99565989D01*
X124970500Y-99489562D01*
X124970500Y-99410438D01*
X124950021Y-99334011D01*
X124938645Y-99314307D01*
X124910462Y-99265492D01*
X124910458Y-99265487D01*
X124905409Y-99260438D01*
X128599500Y-99260438D01*
X128599500Y-99339562D01*
X128607714Y-99370215D01*
X128619979Y-99415990D01*
X128619982Y-99415995D01*
X128659535Y-99484504D01*
X128659539Y-99484509D01*
X128659540Y-99484511D01*
X128715489Y-99540460D01*
X128715491Y-99540461D01*
X128715495Y-99540464D01*
X128759708Y-99565990D01*
X128784011Y-99580021D01*
X128860438Y-99600500D01*
X128860440Y-99600500D01*
X128939560Y-99600500D01*
X128939562Y-99600500D01*
X129015989Y-99580021D01*
X129084511Y-99540460D01*
X129140460Y-99484511D01*
X129180021Y-99415989D01*
X129200500Y-99339562D01*
X129200500Y-99260438D01*
X129180021Y-99184011D01*
X129180017Y-99184004D01*
X129140464Y-99115495D01*
X129140458Y-99115487D01*
X129084512Y-99059541D01*
X129084504Y-99059535D01*
X129015995Y-99019982D01*
X129015990Y-99019979D01*
X128990513Y-99013152D01*
X128939562Y-98999500D01*
X128860438Y-98999500D01*
X128822224Y-99009739D01*
X128784009Y-99019979D01*
X128784004Y-99019982D01*
X128715495Y-99059535D01*
X128715487Y-99059541D01*
X128659541Y-99115487D01*
X128659535Y-99115495D01*
X128619982Y-99184004D01*
X128619979Y-99184009D01*
X128613138Y-99209540D01*
X128599500Y-99260438D01*
X124905409Y-99260438D01*
X124854512Y-99209541D01*
X124854504Y-99209535D01*
X124785995Y-99169982D01*
X124785990Y-99169979D01*
X124760513Y-99163152D01*
X124709562Y-99149500D01*
X124630438Y-99149500D01*
X124592224Y-99159739D01*
X124554009Y-99169979D01*
X124554004Y-99169982D01*
X124485495Y-99209535D01*
X124485487Y-99209541D01*
X124429541Y-99265487D01*
X124429535Y-99265495D01*
X124389982Y-99334004D01*
X124389979Y-99334009D01*
X124380278Y-99370215D01*
X124369500Y-99410438D01*
X123681508Y-99410438D01*
X123684337Y-99399880D01*
X123692287Y-99370215D01*
X123695448Y-99358414D01*
X123700500Y-99339562D01*
X123700500Y-99260438D01*
X123680021Y-99184011D01*
X123680017Y-99184004D01*
X123640464Y-99115495D01*
X123640458Y-99115487D01*
X123584512Y-99059541D01*
X123584504Y-99059535D01*
X123515995Y-99019982D01*
X123515990Y-99019979D01*
X123490513Y-99013152D01*
X123439562Y-98999500D01*
X123360438Y-98999500D01*
X123322224Y-99009739D01*
X123284009Y-99019979D01*
X123284004Y-99019982D01*
X123215495Y-99059535D01*
X123215487Y-99059541D01*
X123159541Y-99115487D01*
X123159535Y-99115495D01*
X123119982Y-99184004D01*
X123119979Y-99184009D01*
X123113138Y-99209540D01*
X123099500Y-99260438D01*
X120900000Y-99260438D01*
X120900000Y-98851083D01*
X120919685Y-98784044D01*
X120935982Y-98763740D01*
X120993890Y-98705385D01*
X121364003Y-98332412D01*
X121425196Y-98298693D01*
X121451065Y-98295761D01*
X124892003Y-98269292D01*
X124959189Y-98288459D01*
X124980635Y-98305606D01*
X125015489Y-98340460D01*
X125015491Y-98340461D01*
X125015495Y-98340464D01*
X125084004Y-98380017D01*
X125084011Y-98380021D01*
X125160438Y-98400500D01*
X125160440Y-98400500D01*
X125239560Y-98400500D01*
X125239562Y-98400500D01*
X125315989Y-98380021D01*
X125384511Y-98340460D01*
X125424125Y-98300846D01*
X125485448Y-98267361D01*
X125510845Y-98264531D01*
X127050000Y-98252692D01*
X131266212Y-98220260D01*
X131333401Y-98239428D01*
G37*
G04 #@! TD.AperFunction*
G04 #@! TD*
M02*
