G04 #@! TF.GenerationSoftware,KiCad,Pcbnew,10.0.3*
G04 #@! TF.CreationDate,2026-06-29T08:50:39+02:00*
G04 #@! TF.ProjectId,ovrdrive,6f767264-7269-4766-952e-6b696361645f,rev?*
G04 #@! TF.SameCoordinates,Original*
G04 #@! TF.FileFunction,Soldermask,Bot*
G04 #@! TF.FilePolarity,Negative*
%FSLAX46Y46*%
G04 Gerber Fmt 4.6, Leading zero omitted, Abs format (unit mm)*
G04 Created by KiCad (PCBNEW 10.0.3) date 2026-06-29 08:50:39*
%MOMM*%
%LPD*%
G01*
G04 APERTURE LIST*
G04 Aperture macros list*
%AMRoundRect*
0 Rectangle with rounded corners*
0 $1 Rounding radius*
0 $2 $3 $4 $5 $6 $7 $8 $9 X,Y pos of 4 corners*
0 Add a 4 corners polygon primitive as box body*
4,1,4,$2,$3,$4,$5,$6,$7,$8,$9,$2,$3,0*
0 Add four circle primitives for the rounded corners*
1,1,$1+$1,$2,$3*
1,1,$1+$1,$4,$5*
1,1,$1+$1,$6,$7*
1,1,$1+$1,$8,$9*
0 Add four rect primitives between the rounded corners*
20,1,$1+$1,$2,$3,$4,$5,0*
20,1,$1+$1,$4,$5,$6,$7,0*
20,1,$1+$1,$6,$7,$8,$9,0*
20,1,$1+$1,$8,$9,$2,$3,0*%
G04 Aperture macros list end*
%ADD10R,1.200000X0.700000*%
%ADD11R,0.800000X1.000000*%
%ADD12R,2.800000X1.000000*%
%ADD13R,1.200000X1.000000*%
%ADD14R,1.900000X1.300000*%
%ADD15R,1.000000X1.000000*%
%ADD16C,1.000000*%
%ADD17RoundRect,0.140000X-0.140000X-0.170000X0.140000X-0.170000X0.140000X0.170000X-0.140000X0.170000X0*%
%ADD18RoundRect,0.140000X-0.170000X0.140000X-0.170000X-0.140000X0.170000X-0.140000X0.170000X0.140000X0*%
%ADD19RoundRect,0.075000X-0.075000X0.075000X-0.075000X-0.075000X0.075000X-0.075000X0.075000X0.075000X0*%
%ADD20C,1.100000*%
%ADD21RoundRect,0.175000X-0.725000X0.175000X-0.725000X-0.175000X0.725000X-0.175000X0.725000X0.175000X0*%
%ADD22RoundRect,0.175000X-0.725000X-0.175000X0.725000X-0.175000X0.725000X0.175000X-0.725000X0.175000X0*%
%ADD23O,4.000000X1.600000*%
G04 APERTURE END LIST*
D10*
G04 #@! TO.C,J4*
X131920000Y-101255000D03*
X131920000Y-102355000D03*
X131920000Y-103455000D03*
X131920000Y-104555000D03*
X131920000Y-105655000D03*
X131920000Y-106755000D03*
X131920000Y-107855000D03*
X131920000Y-108955000D03*
X131920000Y-109905000D03*
D11*
X121420000Y-110855000D03*
D12*
X117270000Y-110855000D03*
D13*
X127620000Y-110855000D03*
X131920000Y-99705000D03*
D14*
X116820000Y-97355000D03*
G04 #@! TD*
D15*
G04 #@! TO.C,TP1*
X136300000Y-99300000D03*
G04 #@! TD*
D16*
G04 #@! TO.C,FID6*
X136400000Y-110500000D03*
G04 #@! TD*
D17*
G04 #@! TO.C,C14*
X133620000Y-106200000D03*
X134580000Y-106200000D03*
G04 #@! TD*
D18*
G04 #@! TO.C,C13*
X138800000Y-109620000D03*
X138800000Y-110580000D03*
G04 #@! TD*
D17*
G04 #@! TO.C,C24*
X133620000Y-105200000D03*
X134580000Y-105200000D03*
G04 #@! TD*
D15*
G04 #@! TO.C,TP4*
X114300000Y-103700000D03*
G04 #@! TD*
D17*
G04 #@! TO.C,C22*
X133620000Y-103100000D03*
X134580000Y-103100000D03*
G04 #@! TD*
D19*
G04 #@! TO.C,U7*
X137575000Y-105300000D03*
X137575000Y-106000000D03*
X136725000Y-105650000D03*
G04 #@! TD*
D20*
G04 #@! TO.C,J2*
X141850000Y-101950000D03*
X141850000Y-106450000D03*
D21*
X139400000Y-107200000D03*
X139400000Y-105200000D03*
X139400000Y-103200000D03*
X139400000Y-101200000D03*
X139400000Y-100200000D03*
X139400000Y-102200000D03*
X139400000Y-104200000D03*
X139400000Y-106200000D03*
D22*
X139400000Y-108200000D03*
D23*
X141850000Y-98350000D03*
X141850000Y-110050000D03*
G04 #@! TD*
D17*
G04 #@! TO.C,C16*
X133620000Y-102100000D03*
X134580000Y-102100000D03*
G04 #@! TD*
D15*
G04 #@! TO.C,TP2*
X134100000Y-99300000D03*
G04 #@! TD*
D16*
G04 #@! TO.C,FID5*
X111800000Y-108900000D03*
G04 #@! TD*
D17*
G04 #@! TO.C,C18*
X133620000Y-101100000D03*
X134580000Y-101100000D03*
G04 #@! TD*
D15*
G04 #@! TO.C,TP3*
X138300000Y-98300000D03*
G04 #@! TD*
D16*
G04 #@! TO.C,FID1*
X113700000Y-98700000D03*
G04 #@! TD*
M02*
