G04 #@! TF.GenerationSoftware,KiCad,Pcbnew,10.0.5*
G04 #@! TF.CreationDate,2026-08-18T20:26:12+02:00*
G04 #@! TF.ProjectId,ovrdrive,6f767264-7269-4766-952e-6b696361645f,rev?*
G04 #@! TF.SameCoordinates,Original*
G04 #@! TF.FileFunction,Copper,L2,Inr*
G04 #@! TF.FilePolarity,Positive*
%FSLAX46Y46*%
G04 Gerber Fmt 4.6, Leading zero omitted, Abs format (unit mm)*
G04 Created by KiCad (PCBNEW 10.0.5) date 2026-08-18 20:26:12*
%MOMM*%
%LPD*%
G01*
G04 APERTURE LIST*
G04 #@! TA.AperFunction,HeatsinkPad*
%ADD10O,4.000000X1.600000*%
G04 #@! TD*
G04 #@! TA.AperFunction,ViaPad*
%ADD11C,0.400000*%
G04 #@! TD*
G04 #@! TA.AperFunction,Conductor*
%ADD12C,0.100000*%
G04 #@! TD*
G04 APERTURE END LIST*
D10*
G04 #@! TO.N,GND*
G04 #@! TO.C,J2*
X141850000Y-98350000D03*
X141850000Y-110050000D03*
G04 #@! TD*
D11*
G04 #@! TO.N,+3V3*
X123400000Y-101700000D03*
X121400000Y-100100000D03*
X133064869Y-106423456D03*
X121400000Y-99600000D03*
X131447500Y-104500000D03*
X121400000Y-99100000D03*
X121400000Y-98600000D03*
X133100000Y-101200000D03*
X130595454Y-109400000D03*
G04 #@! TO.N,Net-(J4-DET_A)*
X120700000Y-110700000D03*
G04 #@! TO.N,+1V2*
X120100000Y-108300000D03*
X132904707Y-105130475D03*
X131019998Y-107000000D03*
X133278732Y-103614926D03*
X120100000Y-108800000D03*
X129322500Y-108589999D03*
G04 #@! TO.N,GND*
X136500000Y-102300000D03*
X133400000Y-104100000D03*
X137700000Y-102400000D03*
X114800000Y-97600000D03*
X138100000Y-100700000D03*
X115400000Y-97600000D03*
X115490000Y-103280000D03*
X135700000Y-104400000D03*
X137050000Y-105250000D03*
X127900000Y-109900000D03*
X136100000Y-102700000D03*
X133900000Y-104100000D03*
X114760000Y-109010000D03*
X137900000Y-104300000D03*
X111500000Y-103400000D03*
X112900000Y-103400000D03*
X136100000Y-104000000D03*
X115030000Y-109980000D03*
X120320000Y-103320000D03*
X137300000Y-101500000D03*
X137500000Y-108400000D03*
X124670000Y-99450000D03*
X137400000Y-107500000D03*
X135700000Y-103100000D03*
X136200000Y-106300000D03*
X136900000Y-101900000D03*
X135600000Y-106200000D03*
X138200000Y-103200000D03*
X110900000Y-104000000D03*
X133500000Y-106850000D03*
X117700000Y-109700000D03*
X134700000Y-106850000D03*
X132100000Y-98700000D03*
X117600000Y-101700000D03*
X135300000Y-107900000D03*
X136900000Y-103200000D03*
X123400000Y-99300000D03*
X135300000Y-104900000D03*
X138100000Y-105900000D03*
X133360000Y-107790000D03*
X117700000Y-108500000D03*
X132600000Y-110700000D03*
X136900000Y-107000000D03*
X136500000Y-107400000D03*
X131500000Y-98700000D03*
X132700000Y-98700000D03*
X133500000Y-100200000D03*
X136500000Y-103600000D03*
X135100000Y-100300000D03*
X115500000Y-101100000D03*
X135100000Y-109800000D03*
X134400000Y-104100000D03*
X122190000Y-105170000D03*
X138100000Y-106700000D03*
X138400000Y-111300000D03*
X131780000Y-110630000D03*
X136000000Y-107600000D03*
X117700000Y-109100000D03*
X113120000Y-107310000D03*
X134100000Y-106850000D03*
X135200000Y-106600000D03*
X137300000Y-102800000D03*
X134620000Y-107780000D03*
X137800000Y-104800000D03*
X122300000Y-97900000D03*
X114800000Y-105800000D03*
X119300000Y-99700000D03*
X137700000Y-101100000D03*
X118550000Y-106390000D03*
X137900000Y-103700000D03*
X136400000Y-105200000D03*
X135800000Y-105200000D03*
X134900000Y-103900000D03*
X138100000Y-102000000D03*
X138000000Y-107700000D03*
X115400000Y-104700000D03*
X112900000Y-100200000D03*
X136200000Y-101300000D03*
X115400000Y-105200000D03*
X123990000Y-108250000D03*
X112200000Y-103400000D03*
X135300000Y-103500000D03*
X133990000Y-107780000D03*
X116700000Y-107700000D03*
X114020000Y-101780000D03*
G04 #@! TO.N,/USB_SSTX_R-*
X139400000Y-106200000D03*
G04 #@! TO.N,/USB_SSTX_R+*
X139400000Y-108200000D03*
G04 #@! TO.N,VBUS*
X112300000Y-105900000D03*
X112300000Y-106400000D03*
X140900000Y-108600000D03*
X115000000Y-101400000D03*
X140900000Y-108100000D03*
X115000000Y-101900000D03*
X140900000Y-107600000D03*
G04 #@! TO.N,/SD_CLK*
X127112576Y-100701015D03*
G04 #@! TO.N,/RST#*
X125200000Y-98100000D03*
G04 #@! TO.N,/SD_CMD*
X127508412Y-101006492D03*
G04 #@! TO.N,/SD_D0*
X128604429Y-107166217D03*
X128100000Y-100900000D03*
G04 #@! TO.N,/SD_D1*
X131890258Y-108953765D03*
X128580001Y-101039998D03*
G04 #@! TO.N,/SD_D2*
X128900000Y-99300000D03*
G04 #@! TO.N,/SD_D3*
X129300000Y-101039998D03*
G04 #@! TO.N,/ISP*
X129800000Y-100800000D03*
X122100000Y-105900000D03*
G04 #@! TO.N,/USB_D+*
X135567222Y-107019228D03*
G04 #@! TO.N,/USB_D-*
X135237058Y-107394719D03*
G04 #@! TO.N,/USB_SSRX+*
X139400000Y-102200000D03*
G04 #@! TO.N,/USB_SSRX-*
X139400000Y-100200000D03*
G04 #@! TO.N,/UART_TXD*
X136300000Y-99300000D03*
G04 #@! TO.N,/UART_RXD*
X134100000Y-99300000D03*
G04 #@! TO.N,/SD_DET*
X129100000Y-109500000D03*
G04 #@! TD*
G04 #@! TO.N,/SD_CLK*
D12*
X127112576Y-100701015D02*
X127157099Y-100656492D01*
G04 #@! TO.N,/SD_D0*
X128100000Y-106700000D02*
X128100000Y-100900000D01*
X128566217Y-107166217D02*
X128100000Y-106700000D01*
X128604429Y-107166217D02*
X128566217Y-107166217D01*
G04 #@! TO.N,/SD_D1*
X128920735Y-102608844D02*
X128920735Y-102648844D01*
X128580001Y-102808844D02*
X128580001Y-102848844D01*
X128580001Y-101039998D02*
X128580001Y-102248844D01*
X129200000Y-106700000D02*
X130100000Y-106700000D01*
X128500001Y-102528844D02*
X128660001Y-102528844D01*
X131890258Y-108490258D02*
X131890258Y-108953765D01*
X128460001Y-102528844D02*
X128500001Y-102528844D01*
X130100000Y-106700000D02*
X131890258Y-108490258D01*
X128380001Y-102408844D02*
X128380001Y-102448844D01*
X128840735Y-102728844D02*
X128660001Y-102728844D01*
X128580001Y-102848844D02*
X128580001Y-104362244D01*
X128580001Y-104362244D02*
X128580001Y-106080001D01*
X128580001Y-106080001D02*
X129200000Y-106700000D01*
X128500001Y-102328844D02*
X128460001Y-102328844D01*
X128660001Y-102528844D02*
X128840735Y-102528844D01*
X128920735Y-102648844D02*
G75*
G02*
X128840735Y-102728835I-80035J44D01*
G01*
X128380001Y-102448844D02*
G75*
G03*
X128460001Y-102528799I79999J44D01*
G01*
X128580001Y-102248844D02*
G75*
G02*
X128500001Y-102328801I-80001J44D01*
G01*
X128660001Y-102728844D02*
G75*
G03*
X128580044Y-102808844I-1J-79956D01*
G01*
X128460001Y-102328844D02*
G75*
G03*
X128380044Y-102408844I-1J-79956D01*
G01*
X128840735Y-102528844D02*
G75*
G02*
X128920656Y-102608844I-35J-79956D01*
G01*
G04 #@! TD*
G04 #@! TA.AperFunction,Conductor*
G04 #@! TO.N,GND*
G36*
X143496571Y-96638571D02*
G01*
X143498935Y-96641108D01*
X143557525Y-96708651D01*
X143725450Y-96856903D01*
X143725455Y-96856907D01*
X143771356Y-96887703D01*
X143783883Y-96896108D01*
X143795132Y-96905390D01*
X143815467Y-96917298D01*
X143911465Y-96981707D01*
X144000649Y-97025742D01*
X144036867Y-97046952D01*
X144068162Y-97059077D01*
X144112319Y-97080880D01*
X144207089Y-97112954D01*
X144209024Y-97113655D01*
X144298080Y-97148161D01*
X144396146Y-97171047D01*
X144426625Y-97192897D01*
X144434009Y-97218764D01*
X144434009Y-98104352D01*
X144419657Y-98139000D01*
X144385009Y-98153352D01*
X144350361Y-98139000D01*
X144336612Y-98112017D01*
X144325793Y-98043711D01*
X144325792Y-98043708D01*
X144262172Y-97847903D01*
X144168701Y-97664458D01*
X144047685Y-97497893D01*
X144047682Y-97497889D01*
X143902111Y-97352318D01*
X143902106Y-97352314D01*
X143735541Y-97231298D01*
X143552096Y-97137827D01*
X143356291Y-97074207D01*
X143356288Y-97074206D01*
X143152941Y-97042000D01*
X142104000Y-97042000D01*
X142104000Y-97850000D01*
X141596000Y-97850000D01*
X141596000Y-97042000D01*
X140547059Y-97042000D01*
X140343711Y-97074206D01*
X140343708Y-97074207D01*
X140147903Y-97137827D01*
X139964458Y-97231298D01*
X139797893Y-97352314D01*
X139652314Y-97497893D01*
X139531298Y-97664458D01*
X139437827Y-97847903D01*
X139374207Y-98043708D01*
X139374206Y-98043711D01*
X139365925Y-98095999D01*
X139365926Y-98096000D01*
X140669297Y-98096000D01*
X140634075Y-98157007D01*
X140600000Y-98284174D01*
X140600000Y-98415826D01*
X140634075Y-98542993D01*
X140669297Y-98604000D01*
X139365925Y-98604000D01*
X139374206Y-98656288D01*
X139374207Y-98656291D01*
X139437827Y-98852096D01*
X139531298Y-99035541D01*
X139652314Y-99202106D01*
X139652318Y-99202111D01*
X139797889Y-99347682D01*
X139797893Y-99347685D01*
X139964458Y-99468701D01*
X140147903Y-99562172D01*
X140343708Y-99625792D01*
X140343711Y-99625793D01*
X140547059Y-99658000D01*
X141596000Y-99658000D01*
X141596000Y-98850000D01*
X142104000Y-98850000D01*
X142104000Y-99658000D01*
X143152941Y-99658000D01*
X143356288Y-99625793D01*
X143356291Y-99625792D01*
X143552096Y-99562172D01*
X143735541Y-99468701D01*
X143902106Y-99347685D01*
X143902111Y-99347682D01*
X144047682Y-99202111D01*
X144047685Y-99202106D01*
X144168701Y-99035541D01*
X144262172Y-98852096D01*
X144325792Y-98656291D01*
X144325793Y-98656288D01*
X144336612Y-98587982D01*
X144356207Y-98556005D01*
X144392674Y-98547250D01*
X144424651Y-98566845D01*
X144434009Y-98595647D01*
X144434009Y-109804352D01*
X144419657Y-109839000D01*
X144385009Y-109853352D01*
X144350361Y-109839000D01*
X144336612Y-109812017D01*
X144325793Y-109743711D01*
X144325792Y-109743708D01*
X144262172Y-109547903D01*
X144168701Y-109364458D01*
X144047685Y-109197893D01*
X144047682Y-109197889D01*
X143902111Y-109052318D01*
X143902106Y-109052314D01*
X143735541Y-108931298D01*
X143552096Y-108837827D01*
X143356291Y-108774207D01*
X143356288Y-108774206D01*
X143152941Y-108742000D01*
X142104000Y-108742000D01*
X142104000Y-109550000D01*
X141596000Y-109550000D01*
X141596000Y-108742000D01*
X141236910Y-108742000D01*
X141202262Y-108727648D01*
X141187910Y-108693000D01*
X141189580Y-108680318D01*
X141200500Y-108639564D01*
X141200500Y-108560436D01*
X141180155Y-108484512D01*
X141180021Y-108484011D01*
X141180020Y-108484009D01*
X141180020Y-108484008D01*
X141146727Y-108426344D01*
X141140460Y-108415489D01*
X141109619Y-108384648D01*
X141095267Y-108350000D01*
X141109619Y-108315352D01*
X141140459Y-108284512D01*
X141140460Y-108284511D01*
X141180021Y-108215989D01*
X141200500Y-108139562D01*
X141200500Y-108060438D01*
X141200500Y-108060436D01*
X141189659Y-108019979D01*
X141180021Y-107984011D01*
X141180020Y-107984009D01*
X141180020Y-107984008D01*
X141140459Y-107915488D01*
X141109619Y-107884648D01*
X141095267Y-107850000D01*
X141109619Y-107815352D01*
X141140459Y-107784512D01*
X141140460Y-107784511D01*
X141180021Y-107715989D01*
X141200500Y-107639562D01*
X141200500Y-107560438D01*
X141200500Y-107560436D01*
X141187175Y-107510710D01*
X141180021Y-107484011D01*
X141180020Y-107484009D01*
X141180020Y-107484008D01*
X141151310Y-107434282D01*
X141140460Y-107415489D01*
X141084511Y-107359540D01*
X141040413Y-107334080D01*
X141015990Y-107319979D01*
X140939564Y-107299500D01*
X140939562Y-107299500D01*
X140860438Y-107299500D01*
X140860436Y-107299500D01*
X140784010Y-107319979D01*
X140784008Y-107319979D01*
X140715488Y-107359540D01*
X140715488Y-107359541D01*
X140659541Y-107415488D01*
X140659540Y-107415488D01*
X140619979Y-107484008D01*
X140619979Y-107484010D01*
X140599500Y-107560436D01*
X140599500Y-107639563D01*
X140619979Y-107715989D01*
X140619979Y-107715991D01*
X140659540Y-107784511D01*
X140690381Y-107815352D01*
X140704733Y-107850000D01*
X140690381Y-107884648D01*
X140659541Y-107915488D01*
X140659540Y-107915488D01*
X140619979Y-107984008D01*
X140619979Y-107984010D01*
X140599500Y-108060436D01*
X140599500Y-108139563D01*
X140619979Y-108215989D01*
X140619979Y-108215991D01*
X140659540Y-108284511D01*
X140690381Y-108315352D01*
X140704733Y-108350000D01*
X140690381Y-108384648D01*
X140659540Y-108415489D01*
X140653273Y-108426344D01*
X140619979Y-108484008D01*
X140619979Y-108484010D01*
X140599500Y-108560436D01*
X140599500Y-108639564D01*
X140610420Y-108680318D01*
X140605525Y-108717500D01*
X140575772Y-108740330D01*
X140563090Y-108742000D01*
X140547059Y-108742000D01*
X140343711Y-108774206D01*
X140343708Y-108774207D01*
X140147903Y-108837827D01*
X139964458Y-108931298D01*
X139797893Y-109052314D01*
X139652314Y-109197893D01*
X139531298Y-109364458D01*
X139437827Y-109547903D01*
X139374207Y-109743708D01*
X139374206Y-109743711D01*
X139365925Y-109795999D01*
X139365926Y-109796000D01*
X140669297Y-109796000D01*
X140634075Y-109857007D01*
X140600000Y-109984174D01*
X140600000Y-110115826D01*
X140634075Y-110242993D01*
X140669297Y-110304000D01*
X139365925Y-110304000D01*
X139374206Y-110356288D01*
X139374207Y-110356291D01*
X139437827Y-110552096D01*
X139531298Y-110735541D01*
X139652314Y-110902106D01*
X139652318Y-110902111D01*
X139797889Y-111047682D01*
X139797893Y-111047685D01*
X139964458Y-111168701D01*
X140147903Y-111262172D01*
X140343708Y-111325792D01*
X140343711Y-111325793D01*
X140547059Y-111358000D01*
X141596000Y-111358000D01*
X141596000Y-110550000D01*
X142104000Y-110550000D01*
X142104000Y-111358000D01*
X143152941Y-111358000D01*
X143356288Y-111325793D01*
X143356291Y-111325792D01*
X143552096Y-111262172D01*
X143735541Y-111168701D01*
X143902106Y-111047685D01*
X143902111Y-111047682D01*
X144047682Y-110902111D01*
X144047685Y-110902106D01*
X144168701Y-110735541D01*
X144262172Y-110552096D01*
X144325792Y-110356291D01*
X144325793Y-110356288D01*
X144336612Y-110287982D01*
X144356207Y-110256005D01*
X144392674Y-110247250D01*
X144424651Y-110266845D01*
X144434009Y-110295647D01*
X144434009Y-111032972D01*
X144428806Y-111045531D01*
X144426563Y-111058938D01*
X144421933Y-111062124D01*
X144419657Y-111067620D01*
X144396032Y-111080716D01*
X144395218Y-111080903D01*
X144324499Y-111094750D01*
X144301436Y-111102555D01*
X144299051Y-111103106D01*
X144298979Y-111103094D01*
X144298442Y-111103243D01*
X144297816Y-111103379D01*
X144287801Y-111107141D01*
X144286280Y-111107684D01*
X144112313Y-111166562D01*
X144059293Y-111192740D01*
X144059294Y-111192741D01*
X144057104Y-111193822D01*
X144035994Y-111201754D01*
X144006735Y-111218691D01*
X144005265Y-111219418D01*
X143911463Y-111265734D01*
X143824680Y-111323960D01*
X143824680Y-111323961D01*
X143823331Y-111324866D01*
X143793936Y-111341883D01*
X143776447Y-111356319D01*
X143774425Y-111357677D01*
X143725458Y-111390531D01*
X143588534Y-111511411D01*
X143588533Y-111511410D01*
X143587867Y-111511997D01*
X143578244Y-111519942D01*
X143575777Y-111522671D01*
X143573704Y-111524502D01*
X143573697Y-111524510D01*
X143557528Y-111538785D01*
X143557522Y-111538792D01*
X143498939Y-111606327D01*
X143465394Y-111623096D01*
X143461925Y-111623219D01*
X115820670Y-111623219D01*
X115800439Y-111623214D01*
X115800425Y-111623208D01*
X115799165Y-111623197D01*
X115328445Y-111610843D01*
X115326626Y-111610762D01*
X115213906Y-111603605D01*
X115212393Y-111603485D01*
X114799042Y-111564351D01*
X114797082Y-111564125D01*
X114689141Y-111549502D01*
X114687789Y-111549300D01*
X114273428Y-111481349D01*
X114271339Y-111480960D01*
X114171470Y-111460100D01*
X114170285Y-111459837D01*
X113754197Y-111362108D01*
X113751993Y-111361536D01*
X113664193Y-111336558D01*
X113663174Y-111336256D01*
X113243994Y-111207117D01*
X113241692Y-111206345D01*
X113170970Y-111180657D01*
X113170117Y-111180338D01*
X112786766Y-111032972D01*
X112745329Y-111017042D01*
X112742977Y-111016067D01*
X112696335Y-110995256D01*
X112695665Y-110994951D01*
X112260740Y-110792765D01*
X112258299Y-110791547D01*
X112251394Y-110787856D01*
X112246872Y-110785439D01*
X112246399Y-110785183D01*
X112091962Y-110700150D01*
X112043097Y-110673245D01*
X112019833Y-110660436D01*
X120399500Y-110660436D01*
X120399500Y-110739563D01*
X120419979Y-110815989D01*
X120419979Y-110815991D01*
X120459540Y-110884511D01*
X120515489Y-110940460D01*
X120584011Y-110980021D01*
X120619478Y-110989524D01*
X120660436Y-111000500D01*
X120660438Y-111000500D01*
X120739564Y-111000500D01*
X120766230Y-110993354D01*
X120815989Y-110980021D01*
X120884511Y-110940460D01*
X120940460Y-110884511D01*
X120980021Y-110815989D01*
X121000500Y-110739562D01*
X121000500Y-110660438D01*
X121000500Y-110660436D01*
X120991843Y-110628134D01*
X120980021Y-110584011D01*
X120980020Y-110584009D01*
X120980020Y-110584008D01*
X120952914Y-110537060D01*
X120940460Y-110515489D01*
X120884511Y-110459540D01*
X120868159Y-110450099D01*
X120815990Y-110419979D01*
X120739564Y-110399500D01*
X120739562Y-110399500D01*
X120660438Y-110399500D01*
X120660436Y-110399500D01*
X120584010Y-110419979D01*
X120584008Y-110419979D01*
X120515488Y-110459540D01*
X120515488Y-110459541D01*
X120459541Y-110515488D01*
X120459540Y-110515488D01*
X120419979Y-110584008D01*
X120419979Y-110584010D01*
X120399500Y-110660436D01*
X112019833Y-110660436D01*
X111798862Y-110538768D01*
X111795995Y-110537060D01*
X111474873Y-110330569D01*
X111357413Y-110255039D01*
X111354668Y-110253138D01*
X110936325Y-109941917D01*
X110933715Y-109939834D01*
X110537520Y-109600830D01*
X110535059Y-109598574D01*
X110426649Y-109492201D01*
X110394276Y-109460436D01*
X128799500Y-109460436D01*
X128799500Y-109539563D01*
X128819979Y-109615989D01*
X128819979Y-109615991D01*
X128856947Y-109680020D01*
X128859540Y-109684511D01*
X128915489Y-109740460D01*
X128984011Y-109780021D01*
X129019478Y-109789524D01*
X129060436Y-109800500D01*
X129060438Y-109800500D01*
X129139564Y-109800500D01*
X129166230Y-109793354D01*
X129215989Y-109780021D01*
X129284511Y-109740460D01*
X129340460Y-109684511D01*
X129380021Y-109615989D01*
X129400500Y-109539562D01*
X129400500Y-109460438D01*
X129400500Y-109460436D01*
X129380021Y-109384011D01*
X129378702Y-109381727D01*
X129378701Y-109381725D01*
X129366410Y-109360436D01*
X130294954Y-109360436D01*
X130294954Y-109439563D01*
X130315433Y-109515989D01*
X130315433Y-109515991D01*
X130329043Y-109539563D01*
X130354994Y-109584511D01*
X130410943Y-109640460D01*
X130479465Y-109680021D01*
X130514932Y-109689524D01*
X130555890Y-109700500D01*
X130555892Y-109700500D01*
X130635018Y-109700500D01*
X130661684Y-109693354D01*
X130711443Y-109680021D01*
X130779965Y-109640460D01*
X130835914Y-109584511D01*
X130875475Y-109515989D01*
X130895954Y-109439562D01*
X130895954Y-109360438D01*
X130895954Y-109360436D01*
X130887297Y-109328134D01*
X130875475Y-109284011D01*
X130875474Y-109284009D01*
X130875474Y-109284008D01*
X130846477Y-109233785D01*
X130835914Y-109215489D01*
X130779965Y-109159540D01*
X130711444Y-109119979D01*
X130635018Y-109099500D01*
X130635016Y-109099500D01*
X130555892Y-109099500D01*
X130555890Y-109099500D01*
X130479464Y-109119979D01*
X130479462Y-109119979D01*
X130410942Y-109159540D01*
X130410942Y-109159541D01*
X130354995Y-109215488D01*
X130354994Y-109215488D01*
X130315433Y-109284008D01*
X130315433Y-109284010D01*
X130294954Y-109360436D01*
X129366410Y-109360436D01*
X129340459Y-109315488D01*
X129284511Y-109259540D01*
X129215990Y-109219979D01*
X129139564Y-109199500D01*
X129139562Y-109199500D01*
X129060438Y-109199500D01*
X129060436Y-109199500D01*
X128984010Y-109219979D01*
X128984008Y-109219979D01*
X128915488Y-109259540D01*
X128915488Y-109259541D01*
X128859541Y-109315488D01*
X128859540Y-109315488D01*
X128819979Y-109384008D01*
X128819979Y-109384010D01*
X128799500Y-109460436D01*
X110394276Y-109460436D01*
X110314058Y-109381725D01*
X110162876Y-109233383D01*
X110160580Y-109230971D01*
X110131172Y-109197893D01*
X109814127Y-108841280D01*
X109812000Y-108838717D01*
X109811311Y-108837827D01*
X109492894Y-108426342D01*
X109490944Y-108423635D01*
X109397707Y-108284511D01*
X109397705Y-108284509D01*
X109381572Y-108260436D01*
X119799500Y-108260436D01*
X119799500Y-108339563D01*
X119819979Y-108415989D01*
X119819979Y-108415991D01*
X119859540Y-108484511D01*
X119890381Y-108515352D01*
X119904733Y-108550000D01*
X119890381Y-108584648D01*
X119859541Y-108615488D01*
X119859540Y-108615488D01*
X119819979Y-108684008D01*
X119819979Y-108684010D01*
X119799500Y-108760436D01*
X119799500Y-108839563D01*
X119819979Y-108915989D01*
X119819979Y-108915991D01*
X119859540Y-108984511D01*
X119915489Y-109040460D01*
X119984011Y-109080021D01*
X120019478Y-109089524D01*
X120060436Y-109100500D01*
X120060438Y-109100500D01*
X120139564Y-109100500D01*
X120166230Y-109093354D01*
X120215989Y-109080021D01*
X120284511Y-109040460D01*
X120340460Y-108984511D01*
X120380021Y-108915989D01*
X120400038Y-108841286D01*
X120400500Y-108839563D01*
X120400500Y-108760436D01*
X120391714Y-108727648D01*
X120380021Y-108684011D01*
X120380020Y-108684009D01*
X120380020Y-108684008D01*
X120354358Y-108639562D01*
X120340460Y-108615489D01*
X120309619Y-108584648D01*
X120295447Y-108550435D01*
X129022000Y-108550435D01*
X129022000Y-108629562D01*
X129042479Y-108705988D01*
X129042479Y-108705990D01*
X129077365Y-108766413D01*
X129082040Y-108774510D01*
X129137989Y-108830459D01*
X129206511Y-108870020D01*
X129241978Y-108879523D01*
X129282936Y-108890499D01*
X129282938Y-108890499D01*
X129362064Y-108890499D01*
X129388730Y-108883353D01*
X129438489Y-108870020D01*
X129507011Y-108830459D01*
X129562960Y-108774510D01*
X129602521Y-108705988D01*
X129623000Y-108629561D01*
X129623000Y-108550437D01*
X129623000Y-108550435D01*
X129605335Y-108484512D01*
X129602521Y-108474010D01*
X129602520Y-108474008D01*
X129602520Y-108474007D01*
X129569024Y-108415991D01*
X129562960Y-108405488D01*
X129507011Y-108349539D01*
X129489730Y-108339562D01*
X129438490Y-108309978D01*
X129362064Y-108289499D01*
X129362062Y-108289499D01*
X129282938Y-108289499D01*
X129282936Y-108289499D01*
X129206510Y-108309978D01*
X129206508Y-108309978D01*
X129137988Y-108349539D01*
X129137988Y-108349540D01*
X129082041Y-108405487D01*
X129082040Y-108405487D01*
X129042479Y-108474007D01*
X129042479Y-108474009D01*
X129022000Y-108550435D01*
X120295447Y-108550435D01*
X120295267Y-108550000D01*
X120309619Y-108515352D01*
X120340459Y-108484512D01*
X120340460Y-108484511D01*
X120380021Y-108415989D01*
X120397827Y-108349539D01*
X120400500Y-108339563D01*
X120400500Y-108260436D01*
X120388590Y-108215991D01*
X120380021Y-108184011D01*
X120380020Y-108184009D01*
X120380020Y-108184008D01*
X120340459Y-108115488D01*
X120284511Y-108059540D01*
X120215990Y-108019979D01*
X120139564Y-107999500D01*
X120139562Y-107999500D01*
X120060438Y-107999500D01*
X120060436Y-107999500D01*
X119984010Y-108019979D01*
X119984008Y-108019979D01*
X119915488Y-108059540D01*
X119915488Y-108059541D01*
X119859541Y-108115488D01*
X119859540Y-108115488D01*
X119819979Y-108184008D01*
X119819979Y-108184010D01*
X119799500Y-108260436D01*
X109381572Y-108260436D01*
X109200649Y-107990469D01*
X109198900Y-107987657D01*
X108943318Y-107543615D01*
X108943058Y-107543156D01*
X108937590Y-107533377D01*
X108936327Y-107530963D01*
X108894968Y-107446237D01*
X108725124Y-107098299D01*
X108724873Y-107097773D01*
X108703926Y-107053121D01*
X108702918Y-107050816D01*
X108530894Y-106627471D01*
X108530590Y-106626703D01*
X108523379Y-106607967D01*
X108504235Y-106558222D01*
X108503431Y-106555969D01*
X108365770Y-106137501D01*
X108365456Y-106136509D01*
X108359001Y-106115352D01*
X108339389Y-106051071D01*
X108338785Y-106048917D01*
X108290726Y-105860436D01*
X111999500Y-105860436D01*
X111999500Y-105939563D01*
X112019979Y-106015989D01*
X112019979Y-106015991D01*
X112059540Y-106084511D01*
X112090381Y-106115352D01*
X112104733Y-106150000D01*
X112090381Y-106184648D01*
X112059541Y-106215488D01*
X112059540Y-106215488D01*
X112019979Y-106284008D01*
X112019979Y-106284010D01*
X111999500Y-106360436D01*
X111999500Y-106439563D01*
X112019979Y-106515989D01*
X112019979Y-106515991D01*
X112052555Y-106572413D01*
X112059540Y-106584511D01*
X112115489Y-106640460D01*
X112184011Y-106680021D01*
X112219478Y-106689524D01*
X112260436Y-106700500D01*
X112260438Y-106700500D01*
X112339564Y-106700500D01*
X112366230Y-106693354D01*
X112415989Y-106680021D01*
X112484511Y-106640460D01*
X112540460Y-106584511D01*
X112574720Y-106525170D01*
X112580020Y-106515991D01*
X112580020Y-106515990D01*
X112580021Y-106515989D01*
X112596171Y-106455713D01*
X112600500Y-106439563D01*
X112600500Y-106360436D01*
X112588590Y-106315990D01*
X112580021Y-106284011D01*
X112580020Y-106284009D01*
X112580020Y-106284008D01*
X112540459Y-106215488D01*
X112509619Y-106184648D01*
X112495267Y-106150000D01*
X112509619Y-106115352D01*
X112540459Y-106084512D01*
X112540460Y-106084511D01*
X112580021Y-106015989D01*
X112600500Y-105939562D01*
X112600500Y-105860438D01*
X112600500Y-105860436D01*
X121799500Y-105860436D01*
X121799500Y-105939563D01*
X121819979Y-106015989D01*
X121819979Y-106015991D01*
X121855817Y-106078062D01*
X121859540Y-106084511D01*
X121915489Y-106140460D01*
X121984011Y-106180021D01*
X122019478Y-106189524D01*
X122060436Y-106200500D01*
X122060438Y-106200500D01*
X122139564Y-106200500D01*
X122166230Y-106193354D01*
X122215989Y-106180021D01*
X122284511Y-106140460D01*
X122340460Y-106084511D01*
X122380021Y-106015989D01*
X122400500Y-105939562D01*
X122400500Y-105860438D01*
X122400500Y-105860436D01*
X122380263Y-105784916D01*
X122380021Y-105784011D01*
X122380020Y-105784009D01*
X122380020Y-105784008D01*
X122354939Y-105740568D01*
X122340460Y-105715489D01*
X122284511Y-105659540D01*
X122215990Y-105619979D01*
X122139564Y-105599500D01*
X122139562Y-105599500D01*
X122060438Y-105599500D01*
X122060436Y-105599500D01*
X121984010Y-105619979D01*
X121984008Y-105619979D01*
X121915488Y-105659540D01*
X121915488Y-105659541D01*
X121859541Y-105715488D01*
X121859540Y-105715488D01*
X121819979Y-105784008D01*
X121819979Y-105784010D01*
X121799500Y-105860436D01*
X112600500Y-105860436D01*
X112580263Y-105784916D01*
X112580021Y-105784011D01*
X112580020Y-105784009D01*
X112580020Y-105784008D01*
X112554939Y-105740568D01*
X112540460Y-105715489D01*
X112484511Y-105659540D01*
X112415990Y-105619979D01*
X112339564Y-105599500D01*
X112339562Y-105599500D01*
X112260438Y-105599500D01*
X112260436Y-105599500D01*
X112184010Y-105619979D01*
X112184008Y-105619979D01*
X112115488Y-105659540D01*
X112115488Y-105659541D01*
X112059541Y-105715488D01*
X112059540Y-105715488D01*
X112019979Y-105784008D01*
X112019979Y-105784010D01*
X111999500Y-105860436D01*
X108290726Y-105860436D01*
X108232674Y-105632762D01*
X108232417Y-105631697D01*
X108210120Y-105534223D01*
X108209696Y-105532164D01*
X108187366Y-105410495D01*
X108133526Y-105117134D01*
X108133302Y-105115807D01*
X108129447Y-105090911D01*
X108116957Y-105010255D01*
X108116709Y-105008410D01*
X108069480Y-104593555D01*
X108069347Y-104592195D01*
X108060239Y-104481882D01*
X108060130Y-104480179D01*
X108041207Y-104061846D01*
X108053978Y-104026588D01*
X108087943Y-104010685D01*
X108092297Y-104010682D01*
X108219771Y-104016285D01*
X108219771Y-104016284D01*
X108219773Y-104016285D01*
X108323447Y-104010627D01*
X108582639Y-103996484D01*
X108941790Y-103941019D01*
X109121338Y-103894803D01*
X109293719Y-103850432D01*
X109293720Y-103850431D01*
X109293726Y-103850430D01*
X109351571Y-103829272D01*
X109353560Y-103828730D01*
X109361752Y-103825548D01*
X109635021Y-103725598D01*
X109700601Y-103693971D01*
X109709015Y-103690705D01*
X109734679Y-103677536D01*
X109962354Y-103567740D01*
X110034325Y-103523806D01*
X110048283Y-103516646D01*
X110081114Y-103495243D01*
X110272536Y-103378393D01*
X110349291Y-103320433D01*
X110367722Y-103308420D01*
X110401878Y-103280723D01*
X110562548Y-103159398D01*
X110562552Y-103159394D01*
X110562555Y-103159392D01*
X110562558Y-103159389D01*
X110568457Y-103153942D01*
X110642228Y-103085837D01*
X110663904Y-103068263D01*
X110695971Y-103036222D01*
X110829566Y-102912889D01*
X110910115Y-102822264D01*
X110933650Y-102798751D01*
X110961600Y-102764339D01*
X111070992Y-102641266D01*
X111150141Y-102532229D01*
X111174065Y-102502778D01*
X111196885Y-102467835D01*
X111284474Y-102347173D01*
X111359751Y-102218454D01*
X111382568Y-102183520D01*
X111399914Y-102149780D01*
X111467934Y-102033473D01*
X111536638Y-101883855D01*
X111556923Y-101844404D01*
X111569001Y-101813378D01*
X111619586Y-101703220D01*
X111678794Y-101531353D01*
X111695257Y-101489069D01*
X111702644Y-101462122D01*
X111737676Y-101360436D01*
X114699500Y-101360436D01*
X114699500Y-101439563D01*
X114719979Y-101515989D01*
X114719979Y-101515991D01*
X114759540Y-101584511D01*
X114790381Y-101615352D01*
X114804733Y-101650000D01*
X114790381Y-101684648D01*
X114759541Y-101715488D01*
X114759540Y-101715488D01*
X114719979Y-101784008D01*
X114719979Y-101784010D01*
X114699500Y-101860436D01*
X114699500Y-101939563D01*
X114719979Y-102015989D01*
X114719979Y-102015991D01*
X114759250Y-102084008D01*
X114759540Y-102084511D01*
X114815489Y-102140460D01*
X114884011Y-102180021D01*
X114919478Y-102189524D01*
X114960436Y-102200500D01*
X114960438Y-102200500D01*
X115039564Y-102200500D01*
X115066230Y-102193354D01*
X115115989Y-102180021D01*
X115184511Y-102140460D01*
X115240460Y-102084511D01*
X115274720Y-102025170D01*
X115280020Y-102015991D01*
X115280020Y-102015990D01*
X115280021Y-102015989D01*
X115296171Y-101955713D01*
X115300500Y-101939563D01*
X115300500Y-101860436D01*
X115288590Y-101815991D01*
X115280021Y-101784011D01*
X115280020Y-101784009D01*
X115280020Y-101784008D01*
X115240459Y-101715488D01*
X115209619Y-101684648D01*
X115199590Y-101660436D01*
X123099500Y-101660436D01*
X123099500Y-101739563D01*
X123119979Y-101815989D01*
X123119979Y-101815991D01*
X123159182Y-101883891D01*
X123159540Y-101884511D01*
X123215489Y-101940460D01*
X123284011Y-101980021D01*
X123319478Y-101989524D01*
X123360436Y-102000500D01*
X123360438Y-102000500D01*
X123439564Y-102000500D01*
X123466230Y-101993354D01*
X123515989Y-101980021D01*
X123584511Y-101940460D01*
X123640460Y-101884511D01*
X123680021Y-101815989D01*
X123700500Y-101739562D01*
X123700500Y-101660438D01*
X123700500Y-101660436D01*
X123688419Y-101615352D01*
X123680021Y-101584011D01*
X123680020Y-101584009D01*
X123680020Y-101584008D01*
X123650164Y-101532297D01*
X123640460Y-101515489D01*
X123584511Y-101459540D01*
X123515990Y-101419979D01*
X123439564Y-101399500D01*
X123439562Y-101399500D01*
X123360438Y-101399500D01*
X123360436Y-101399500D01*
X123284010Y-101419979D01*
X123284008Y-101419979D01*
X123215488Y-101459540D01*
X123215488Y-101459541D01*
X123159541Y-101515488D01*
X123159540Y-101515488D01*
X123119979Y-101584008D01*
X123119979Y-101584010D01*
X123099500Y-101660436D01*
X115199590Y-101660436D01*
X115195267Y-101650000D01*
X115209619Y-101615352D01*
X115240459Y-101584512D01*
X115240460Y-101584511D01*
X115280021Y-101515989D01*
X115296171Y-101455713D01*
X115300500Y-101439563D01*
X115300500Y-101360436D01*
X115291843Y-101328134D01*
X115280021Y-101284011D01*
X115280020Y-101284009D01*
X115280020Y-101284008D01*
X115254358Y-101239562D01*
X115240460Y-101215489D01*
X115184511Y-101159540D01*
X115178362Y-101155990D01*
X115115990Y-101119979D01*
X115039564Y-101099500D01*
X115039562Y-101099500D01*
X114960438Y-101099500D01*
X114960436Y-101099500D01*
X114884010Y-101119979D01*
X114884008Y-101119979D01*
X114815488Y-101159540D01*
X114815488Y-101159541D01*
X114759541Y-101215488D01*
X114759540Y-101215488D01*
X114719979Y-101284008D01*
X114719979Y-101284010D01*
X114699500Y-101360436D01*
X111737676Y-101360436D01*
X111737954Y-101359629D01*
X111742496Y-101340498D01*
X111755689Y-101284916D01*
X111784427Y-101163849D01*
X111796086Y-101121329D01*
X111799685Y-101099569D01*
X111821886Y-101006046D01*
X111851911Y-100783905D01*
X111858327Y-100745131D01*
X111859275Y-100729419D01*
X111868463Y-100661451D01*
X126812076Y-100661451D01*
X126812076Y-100740578D01*
X126832555Y-100817004D01*
X126832555Y-100817006D01*
X126872116Y-100885526D01*
X126928065Y-100941475D01*
X126996587Y-100981036D01*
X127017240Y-100986570D01*
X127073012Y-101001515D01*
X127073014Y-101001515D01*
X127152135Y-101001515D01*
X127152138Y-101001515D01*
X127152140Y-101001514D01*
X127152605Y-101001453D01*
X127152837Y-101001515D01*
X127155350Y-101001515D01*
X127155350Y-101002187D01*
X127188832Y-101011151D01*
X127207591Y-101043625D01*
X127207592Y-101043632D01*
X127207910Y-101046050D01*
X127228391Y-101122481D01*
X127228391Y-101122483D01*
X127259118Y-101175702D01*
X127267952Y-101191003D01*
X127323901Y-101246952D01*
X127334060Y-101252817D01*
X127388087Y-101284010D01*
X127392423Y-101286513D01*
X127419379Y-101293736D01*
X127468848Y-101306992D01*
X127468850Y-101306992D01*
X127547976Y-101306992D01*
X127574642Y-101299846D01*
X127624401Y-101286513D01*
X127692923Y-101246952D01*
X127748872Y-101191003D01*
X127788433Y-101122481D01*
X127789516Y-101118436D01*
X127796560Y-101109254D01*
X127800421Y-101098340D01*
X127807539Y-101094941D01*
X127812341Y-101088682D01*
X127823818Y-101087169D01*
X127834265Y-101082182D01*
X127841269Y-101084869D01*
X127849522Y-101083782D01*
X127869621Y-101094688D01*
X127870578Y-101095549D01*
X127915489Y-101140460D01*
X127929452Y-101148521D01*
X127933274Y-101151960D01*
X127939306Y-101164594D01*
X127947830Y-101175702D01*
X127949056Y-101185017D01*
X127949432Y-101185804D01*
X127949233Y-101186364D01*
X127949500Y-101188386D01*
X127949500Y-106729936D01*
X127958990Y-106752848D01*
X127972412Y-106785252D01*
X127972413Y-106785254D01*
X128289577Y-107102416D01*
X128303929Y-107137064D01*
X128303929Y-107205780D01*
X128324408Y-107282206D01*
X128324408Y-107282208D01*
X128346071Y-107319728D01*
X128363969Y-107350728D01*
X128419918Y-107406677D01*
X128488440Y-107446238D01*
X128523907Y-107455741D01*
X128564865Y-107466717D01*
X128564867Y-107466717D01*
X128643993Y-107466717D01*
X128670659Y-107459571D01*
X128720418Y-107446238D01*
X128788940Y-107406677D01*
X128844889Y-107350728D01*
X128884450Y-107282206D01*
X128903742Y-107210208D01*
X128904929Y-107205780D01*
X128904929Y-107126653D01*
X128892392Y-107079867D01*
X128884450Y-107050228D01*
X128884449Y-107050226D01*
X128884449Y-107050225D01*
X128844888Y-106981705D01*
X128788940Y-106925757D01*
X128720419Y-106886196D01*
X128643993Y-106865717D01*
X128643991Y-106865717D01*
X128564867Y-106865717D01*
X128564866Y-106865717D01*
X128524120Y-106876634D01*
X128486938Y-106871738D01*
X128476791Y-106863951D01*
X128264852Y-106652012D01*
X128250500Y-106617364D01*
X128250500Y-102677714D01*
X128264852Y-102643066D01*
X128299500Y-102628714D01*
X128328299Y-102638071D01*
X128354053Y-102656782D01*
X128409654Y-102674847D01*
X128438172Y-102699203D01*
X128441115Y-102736590D01*
X128429501Y-102772337D01*
X128429501Y-106109939D01*
X128433659Y-106119973D01*
X128433660Y-106119980D01*
X128433661Y-106119980D01*
X128440508Y-106136509D01*
X128452412Y-106165252D01*
X129114744Y-106827585D01*
X129114747Y-106827587D01*
X129114748Y-106827588D01*
X129147149Y-106841008D01*
X129147150Y-106841009D01*
X129147151Y-106841009D01*
X129170064Y-106850500D01*
X130017364Y-106850500D01*
X130052012Y-106864852D01*
X131725406Y-108538245D01*
X131739758Y-108572893D01*
X131739758Y-108665378D01*
X131725406Y-108700026D01*
X131715260Y-108707812D01*
X131705752Y-108713301D01*
X131705743Y-108713308D01*
X131649799Y-108769253D01*
X131649798Y-108769253D01*
X131610237Y-108837773D01*
X131610237Y-108837775D01*
X131589758Y-108914201D01*
X131589758Y-108993328D01*
X131610237Y-109069754D01*
X131610237Y-109069756D01*
X131639234Y-109119979D01*
X131649798Y-109138276D01*
X131705747Y-109194225D01*
X131774269Y-109233786D01*
X131809736Y-109243289D01*
X131850694Y-109254265D01*
X131850696Y-109254265D01*
X131929822Y-109254265D01*
X131956488Y-109247119D01*
X132006247Y-109233786D01*
X132074769Y-109194225D01*
X132130718Y-109138276D01*
X132170279Y-109069754D01*
X132190758Y-108993327D01*
X132190758Y-108914203D01*
X132190758Y-108914201D01*
X132178919Y-108870020D01*
X132170279Y-108837776D01*
X132170278Y-108837774D01*
X132170278Y-108837773D01*
X132145197Y-108794333D01*
X132130718Y-108769254D01*
X132074769Y-108713305D01*
X132074765Y-108713303D01*
X132074763Y-108713301D01*
X132065256Y-108707812D01*
X132042427Y-108678058D01*
X132040758Y-108665378D01*
X132040758Y-108460324D01*
X132040757Y-108460320D01*
X132022187Y-108415489D01*
X132022186Y-108415487D01*
X132017845Y-108405006D01*
X132017843Y-108405004D01*
X132017842Y-108405002D01*
X131804714Y-108191874D01*
X131773276Y-108160436D01*
X139099500Y-108160436D01*
X139099500Y-108239563D01*
X139119979Y-108315989D01*
X139119979Y-108315991D01*
X139139615Y-108350000D01*
X139159540Y-108384511D01*
X139215489Y-108440460D01*
X139249888Y-108460320D01*
X139273599Y-108474010D01*
X139284011Y-108480021D01*
X139319478Y-108489524D01*
X139360436Y-108500500D01*
X139360438Y-108500500D01*
X139439564Y-108500500D01*
X139466230Y-108493354D01*
X139515989Y-108480021D01*
X139584511Y-108440460D01*
X139640460Y-108384511D01*
X139680021Y-108315989D01*
X139700500Y-108239562D01*
X139700500Y-108160438D01*
X139700500Y-108160436D01*
X139691843Y-108128134D01*
X139680021Y-108084011D01*
X139680020Y-108084009D01*
X139680020Y-108084008D01*
X139640459Y-108015488D01*
X139584511Y-107959540D01*
X139515990Y-107919979D01*
X139439564Y-107899500D01*
X139439562Y-107899500D01*
X139360438Y-107899500D01*
X139360436Y-107899500D01*
X139284010Y-107919979D01*
X139284008Y-107919979D01*
X139215488Y-107959540D01*
X139215488Y-107959541D01*
X139159541Y-108015488D01*
X139159540Y-108015488D01*
X139119979Y-108084008D01*
X139119979Y-108084010D01*
X139099500Y-108160436D01*
X131773276Y-108160436D01*
X130999432Y-107386593D01*
X130996987Y-107384148D01*
X130984977Y-107355155D01*
X134936558Y-107355155D01*
X134936558Y-107434282D01*
X134957037Y-107510708D01*
X134957037Y-107510710D01*
X134976039Y-107543621D01*
X134996598Y-107579230D01*
X135052547Y-107635179D01*
X135121069Y-107674740D01*
X135156536Y-107684243D01*
X135197494Y-107695219D01*
X135197496Y-107695219D01*
X135276622Y-107695219D01*
X135303288Y-107688073D01*
X135353047Y-107674740D01*
X135421569Y-107635179D01*
X135477518Y-107579230D01*
X135517079Y-107510708D01*
X135537558Y-107434281D01*
X135537558Y-107368728D01*
X135551910Y-107334080D01*
X135586558Y-107319728D01*
X135606786Y-107319728D01*
X135633452Y-107312582D01*
X135683211Y-107299249D01*
X135751733Y-107259688D01*
X135807682Y-107203739D01*
X135847243Y-107135217D01*
X135863393Y-107074941D01*
X135867722Y-107058791D01*
X135867722Y-106979664D01*
X135853989Y-106928415D01*
X135847243Y-106903239D01*
X135847242Y-106903237D01*
X135847242Y-106903236D01*
X135816794Y-106850499D01*
X135807682Y-106834717D01*
X135751733Y-106778768D01*
X135718429Y-106759540D01*
X135683212Y-106739207D01*
X135606786Y-106718728D01*
X135606784Y-106718728D01*
X135527660Y-106718728D01*
X135527658Y-106718728D01*
X135451232Y-106739207D01*
X135451230Y-106739207D01*
X135382710Y-106778768D01*
X135382710Y-106778769D01*
X135326763Y-106834716D01*
X135326762Y-106834716D01*
X135287201Y-106903236D01*
X135287201Y-106903238D01*
X135266722Y-106979664D01*
X135266722Y-107045219D01*
X135252370Y-107079867D01*
X135217722Y-107094219D01*
X135197494Y-107094219D01*
X135121068Y-107114698D01*
X135121066Y-107114698D01*
X135052546Y-107154259D01*
X135052546Y-107154260D01*
X134996599Y-107210207D01*
X134996598Y-107210207D01*
X134957037Y-107278727D01*
X134957037Y-107278729D01*
X134936558Y-107355155D01*
X130984977Y-107355155D01*
X130982635Y-107349500D01*
X130996987Y-107314852D01*
X131031635Y-107300500D01*
X131059562Y-107300500D01*
X131086228Y-107293354D01*
X131135987Y-107280021D01*
X131204509Y-107240460D01*
X131260458Y-107184511D01*
X131300019Y-107115989D01*
X131316865Y-107053121D01*
X131320498Y-107039563D01*
X131320498Y-106960436D01*
X131300604Y-106886196D01*
X131300019Y-106884011D01*
X131300018Y-106884009D01*
X131300018Y-106884008D01*
X131267443Y-106827588D01*
X131260458Y-106815489D01*
X131204509Y-106759540D01*
X131192918Y-106752848D01*
X131135988Y-106719979D01*
X131059562Y-106699500D01*
X131059560Y-106699500D01*
X130980436Y-106699500D01*
X130980434Y-106699500D01*
X130904008Y-106719979D01*
X130904006Y-106719979D01*
X130835486Y-106759540D01*
X130835486Y-106759541D01*
X130779539Y-106815488D01*
X130779538Y-106815488D01*
X130739977Y-106884008D01*
X130739977Y-106884010D01*
X130719498Y-106960436D01*
X130719498Y-106988362D01*
X130705146Y-107023010D01*
X130670498Y-107037362D01*
X130635850Y-107023010D01*
X130185254Y-106572413D01*
X130185252Y-106572412D01*
X130152848Y-106558990D01*
X130129936Y-106549500D01*
X129282636Y-106549500D01*
X129247988Y-106535148D01*
X129096732Y-106383892D01*
X132764369Y-106383892D01*
X132764369Y-106463019D01*
X132784848Y-106539445D01*
X132784848Y-106539447D01*
X132810867Y-106584512D01*
X132824409Y-106607967D01*
X132880358Y-106663916D01*
X132889017Y-106668915D01*
X132943723Y-106700500D01*
X132948880Y-106703477D01*
X132984347Y-106712980D01*
X133025305Y-106723956D01*
X133025307Y-106723956D01*
X133104433Y-106723956D01*
X133131099Y-106716810D01*
X133180858Y-106703477D01*
X133249380Y-106663916D01*
X133305329Y-106607967D01*
X133344890Y-106539445D01*
X133365369Y-106463018D01*
X133365369Y-106383894D01*
X133365369Y-106383892D01*
X133356066Y-106349175D01*
X133344890Y-106307467D01*
X133344889Y-106307465D01*
X133344889Y-106307464D01*
X133319808Y-106264024D01*
X133305329Y-106238945D01*
X133249380Y-106182996D01*
X133244225Y-106180020D01*
X133210305Y-106160436D01*
X139099500Y-106160436D01*
X139099500Y-106239563D01*
X139119979Y-106315989D01*
X139119979Y-106315991D01*
X139159183Y-106383892D01*
X139159540Y-106384511D01*
X139215489Y-106440460D01*
X139284011Y-106480021D01*
X139319478Y-106489524D01*
X139360436Y-106500500D01*
X139360438Y-106500500D01*
X139439564Y-106500500D01*
X139466230Y-106493354D01*
X139515989Y-106480021D01*
X139584511Y-106440460D01*
X139640460Y-106384511D01*
X139645329Y-106376078D01*
X141099500Y-106376078D01*
X141099500Y-106523921D01*
X141128340Y-106668906D01*
X141128342Y-106668915D01*
X141176531Y-106785252D01*
X141184916Y-106805495D01*
X141267049Y-106928416D01*
X141371584Y-107032951D01*
X141494505Y-107115084D01*
X141543115Y-107135219D01*
X141631084Y-107171657D01*
X141631085Y-107171657D01*
X141631087Y-107171658D01*
X141776082Y-107200500D01*
X141923918Y-107200500D01*
X142068913Y-107171658D01*
X142205495Y-107115084D01*
X142328416Y-107032951D01*
X142432951Y-106928416D01*
X142515084Y-106805495D01*
X142571658Y-106668913D01*
X142600500Y-106523918D01*
X142600500Y-106376082D01*
X142571658Y-106231087D01*
X142558988Y-106200500D01*
X142532902Y-106137522D01*
X142515084Y-106094505D01*
X142432951Y-105971584D01*
X142328416Y-105867049D01*
X142205495Y-105784916D01*
X142205492Y-105784914D01*
X142205491Y-105784914D01*
X142068915Y-105728342D01*
X142068906Y-105728340D01*
X141923921Y-105699500D01*
X141923918Y-105699500D01*
X141776082Y-105699500D01*
X141776078Y-105699500D01*
X141631093Y-105728340D01*
X141631084Y-105728342D01*
X141494508Y-105784914D01*
X141371584Y-105867048D01*
X141267048Y-105971584D01*
X141184914Y-106094508D01*
X141128342Y-106231084D01*
X141128340Y-106231093D01*
X141099500Y-106376078D01*
X139645329Y-106376078D01*
X139680021Y-106315989D01*
X139700500Y-106239562D01*
X139700500Y-106160438D01*
X139700500Y-106160436D01*
X139691843Y-106128134D01*
X139680021Y-106084011D01*
X139680020Y-106084009D01*
X139680020Y-106084008D01*
X139641714Y-106017661D01*
X139640460Y-106015489D01*
X139584511Y-105959540D01*
X139549908Y-105939562D01*
X139515990Y-105919979D01*
X139439564Y-105899500D01*
X139439562Y-105899500D01*
X139360438Y-105899500D01*
X139360436Y-105899500D01*
X139284010Y-105919979D01*
X139284008Y-105919979D01*
X139215488Y-105959540D01*
X139215488Y-105959541D01*
X139159541Y-106015488D01*
X139159540Y-106015488D01*
X139119979Y-106084008D01*
X139119979Y-106084010D01*
X139099500Y-106160436D01*
X133210305Y-106160436D01*
X133180859Y-106143435D01*
X133104433Y-106122956D01*
X133104431Y-106122956D01*
X133025307Y-106122956D01*
X133025305Y-106122956D01*
X132948879Y-106143435D01*
X132948877Y-106143435D01*
X132880357Y-106182996D01*
X132880357Y-106182997D01*
X132824410Y-106238944D01*
X132824409Y-106238944D01*
X132784848Y-106307464D01*
X132784848Y-106307466D01*
X132764369Y-106383892D01*
X129096732Y-106383892D01*
X128744853Y-106032013D01*
X128730501Y-105997365D01*
X128730501Y-105090911D01*
X132604207Y-105090911D01*
X132604207Y-105170038D01*
X132624686Y-105246464D01*
X132624686Y-105246466D01*
X132663270Y-105313294D01*
X132664247Y-105314986D01*
X132720196Y-105370935D01*
X132788718Y-105410496D01*
X132824185Y-105419999D01*
X132865143Y-105430975D01*
X132865145Y-105430975D01*
X132944271Y-105430975D01*
X132970937Y-105423829D01*
X133020696Y-105410496D01*
X133089218Y-105370935D01*
X133145167Y-105314986D01*
X133184728Y-105246464D01*
X133205207Y-105170037D01*
X133205207Y-105090913D01*
X133205207Y-105090911D01*
X133195161Y-105053423D01*
X133184728Y-105014486D01*
X133184727Y-105014484D01*
X133184727Y-105014483D01*
X133145166Y-104945963D01*
X133089218Y-104890015D01*
X133020697Y-104850454D01*
X132944271Y-104829975D01*
X132944269Y-104829975D01*
X132865145Y-104829975D01*
X132865143Y-104829975D01*
X132788717Y-104850454D01*
X132788715Y-104850454D01*
X132720195Y-104890015D01*
X132720195Y-104890016D01*
X132664248Y-104945963D01*
X132664247Y-104945963D01*
X132624686Y-105014483D01*
X132624686Y-105014485D01*
X132604207Y-105090911D01*
X128730501Y-105090911D01*
X128730501Y-104460436D01*
X131147000Y-104460436D01*
X131147000Y-104539563D01*
X131167479Y-104615989D01*
X131167479Y-104615991D01*
X131207040Y-104684511D01*
X131262989Y-104740460D01*
X131331511Y-104780021D01*
X131366978Y-104789524D01*
X131407936Y-104800500D01*
X131407938Y-104800500D01*
X131487064Y-104800500D01*
X131513730Y-104793354D01*
X131563489Y-104780021D01*
X131632011Y-104740460D01*
X131687960Y-104684511D01*
X131727521Y-104615989D01*
X131748000Y-104539562D01*
X131748000Y-104460438D01*
X131748000Y-104460436D01*
X131739343Y-104428134D01*
X131727521Y-104384011D01*
X131727520Y-104384009D01*
X131727520Y-104384008D01*
X131687959Y-104315488D01*
X131632011Y-104259540D01*
X131563490Y-104219979D01*
X131487064Y-104199500D01*
X131487062Y-104199500D01*
X131407938Y-104199500D01*
X131407936Y-104199500D01*
X131331510Y-104219979D01*
X131331508Y-104219979D01*
X131262988Y-104259540D01*
X131262988Y-104259541D01*
X131207041Y-104315488D01*
X131207040Y-104315488D01*
X131167479Y-104384008D01*
X131167479Y-104384010D01*
X131147000Y-104460436D01*
X128730501Y-104460436D01*
X128730501Y-103575362D01*
X132978232Y-103575362D01*
X132978232Y-103654489D01*
X132998711Y-103730915D01*
X132998711Y-103730917D01*
X133031161Y-103787121D01*
X133038272Y-103799437D01*
X133094221Y-103855386D01*
X133144381Y-103884346D01*
X133162493Y-103894803D01*
X133162743Y-103894947D01*
X133198210Y-103904450D01*
X133239168Y-103915426D01*
X133239170Y-103915426D01*
X133318296Y-103915426D01*
X133344962Y-103908280D01*
X133394721Y-103894947D01*
X133394971Y-103894803D01*
X133403902Y-103889646D01*
X133463243Y-103855386D01*
X133519192Y-103799437D01*
X133558753Y-103730915D01*
X133579232Y-103654488D01*
X133579232Y-103575364D01*
X133579232Y-103575362D01*
X133565672Y-103524759D01*
X133558753Y-103498937D01*
X133558752Y-103498935D01*
X133558752Y-103498934D01*
X133519191Y-103430414D01*
X133463243Y-103374466D01*
X133394722Y-103334905D01*
X133318296Y-103314426D01*
X133318294Y-103314426D01*
X133239170Y-103314426D01*
X133239168Y-103314426D01*
X133162742Y-103334905D01*
X133162740Y-103334905D01*
X133094220Y-103374466D01*
X133094220Y-103374467D01*
X133038273Y-103430414D01*
X133038272Y-103430414D01*
X132998711Y-103498934D01*
X132998711Y-103498936D01*
X132978232Y-103575362D01*
X128730501Y-103575362D01*
X128730501Y-102928344D01*
X128744853Y-102893696D01*
X128779501Y-102879344D01*
X128877242Y-102879344D01*
X128911299Y-102868277D01*
X128946683Y-102856782D01*
X129005755Y-102813864D01*
X129048673Y-102754792D01*
X129065534Y-102702896D01*
X129071235Y-102685350D01*
X129071235Y-102572337D01*
X129048672Y-102502894D01*
X129032053Y-102480020D01*
X129005755Y-102443824D01*
X128976219Y-102422365D01*
X128946684Y-102400906D01*
X128877242Y-102378344D01*
X128877240Y-102378344D01*
X128870671Y-102378344D01*
X128767729Y-102378344D01*
X128733081Y-102363992D01*
X128718729Y-102329344D01*
X128721127Y-102314203D01*
X128730501Y-102285350D01*
X128730501Y-102160436D01*
X139099500Y-102160436D01*
X139099500Y-102239563D01*
X139119979Y-102315989D01*
X139119979Y-102315991D01*
X139147693Y-102363992D01*
X139159540Y-102384511D01*
X139215489Y-102440460D01*
X139284011Y-102480021D01*
X139319478Y-102489524D01*
X139360436Y-102500500D01*
X139360438Y-102500500D01*
X139439564Y-102500500D01*
X139466230Y-102493354D01*
X139515989Y-102480021D01*
X139584511Y-102440460D01*
X139640460Y-102384511D01*
X139680021Y-102315989D01*
X139700500Y-102239562D01*
X139700500Y-102160438D01*
X139700500Y-102160436D01*
X139680155Y-102084512D01*
X139680021Y-102084011D01*
X139680020Y-102084009D01*
X139680020Y-102084008D01*
X139645326Y-102023918D01*
X139640460Y-102015489D01*
X139584511Y-101959540D01*
X139515993Y-101919981D01*
X139515990Y-101919980D01*
X139515989Y-101919979D01*
X139515987Y-101919978D01*
X139515986Y-101919978D01*
X139439564Y-101899500D01*
X139439562Y-101899500D01*
X139360438Y-101899500D01*
X139360436Y-101899500D01*
X139284010Y-101919979D01*
X139284008Y-101919979D01*
X139215488Y-101959540D01*
X139215488Y-101959541D01*
X139159541Y-102015488D01*
X139159540Y-102015488D01*
X139119979Y-102084008D01*
X139119979Y-102084010D01*
X139099500Y-102160436D01*
X128730501Y-102160436D01*
X128730501Y-101876078D01*
X141099500Y-101876078D01*
X141099500Y-102023921D01*
X141128340Y-102168906D01*
X141128342Y-102168915D01*
X141183839Y-102302896D01*
X141184916Y-102305495D01*
X141267049Y-102428416D01*
X141371584Y-102532951D01*
X141494505Y-102615084D01*
X141527411Y-102628714D01*
X141631084Y-102671657D01*
X141631085Y-102671657D01*
X141631087Y-102671658D01*
X141776082Y-102700500D01*
X141923918Y-102700500D01*
X142068913Y-102671658D01*
X142205495Y-102615084D01*
X142328416Y-102532951D01*
X142432951Y-102428416D01*
X142515084Y-102305495D01*
X142571658Y-102168913D01*
X142600500Y-102023918D01*
X142600500Y-101876082D01*
X142571658Y-101731087D01*
X142515084Y-101594505D01*
X142432951Y-101471584D01*
X142328416Y-101367049D01*
X142317311Y-101359629D01*
X142287810Y-101339917D01*
X142205495Y-101284916D01*
X142205492Y-101284914D01*
X142205491Y-101284914D01*
X142068915Y-101228342D01*
X142068906Y-101228340D01*
X141923921Y-101199500D01*
X141923918Y-101199500D01*
X141776082Y-101199500D01*
X141776078Y-101199500D01*
X141631093Y-101228340D01*
X141631084Y-101228342D01*
X141494508Y-101284914D01*
X141371584Y-101367048D01*
X141267048Y-101471584D01*
X141184914Y-101594508D01*
X141128342Y-101731084D01*
X141128340Y-101731093D01*
X141099500Y-101876078D01*
X128730501Y-101876078D01*
X128730501Y-101328384D01*
X128744853Y-101293736D01*
X128755003Y-101285948D01*
X128764505Y-101280462D01*
X128764504Y-101280462D01*
X128764512Y-101280458D01*
X128820461Y-101224509D01*
X128860022Y-101155987D01*
X128878462Y-101087169D01*
X128880501Y-101079561D01*
X128880501Y-101000434D01*
X128999500Y-101000434D01*
X128999500Y-101079561D01*
X129019979Y-101155987D01*
X129019979Y-101155989D01*
X129054332Y-101215488D01*
X129059540Y-101224509D01*
X129115489Y-101280458D01*
X129184011Y-101320019D01*
X129215229Y-101328384D01*
X129260436Y-101340498D01*
X129260438Y-101340498D01*
X129339564Y-101340498D01*
X129366230Y-101333352D01*
X129415989Y-101320019D01*
X129484511Y-101280458D01*
X129540460Y-101224509D01*
X129577452Y-101160436D01*
X132799500Y-101160436D01*
X132799500Y-101239563D01*
X132819979Y-101315989D01*
X132819979Y-101315991D01*
X132849458Y-101367049D01*
X132859540Y-101384511D01*
X132915489Y-101440460D01*
X132984011Y-101480021D01*
X133017778Y-101489069D01*
X133060436Y-101500500D01*
X133060438Y-101500500D01*
X133139564Y-101500500D01*
X133166230Y-101493354D01*
X133215989Y-101480021D01*
X133284511Y-101440460D01*
X133340460Y-101384511D01*
X133380021Y-101315989D01*
X133400500Y-101239562D01*
X133400500Y-101160438D01*
X133400500Y-101160436D01*
X133390329Y-101122481D01*
X133380021Y-101084011D01*
X133380020Y-101084009D01*
X133380020Y-101084008D01*
X133346223Y-101025471D01*
X133340460Y-101015489D01*
X133284511Y-100959540D01*
X133215990Y-100919979D01*
X133139564Y-100899500D01*
X133139562Y-100899500D01*
X133060438Y-100899500D01*
X133060436Y-100899500D01*
X132984010Y-100919979D01*
X132984008Y-100919979D01*
X132915488Y-100959540D01*
X132915488Y-100959541D01*
X132859541Y-101015488D01*
X132859540Y-101015488D01*
X132819979Y-101084008D01*
X132819979Y-101084010D01*
X132799500Y-101160436D01*
X129577452Y-101160436D01*
X129580021Y-101155987D01*
X129595054Y-101099885D01*
X129617885Y-101070132D01*
X129655067Y-101065238D01*
X129666884Y-101070133D01*
X129683214Y-101079561D01*
X129684011Y-101080021D01*
X129716334Y-101088682D01*
X129760436Y-101100500D01*
X129760438Y-101100500D01*
X129839564Y-101100500D01*
X129866230Y-101093354D01*
X129915989Y-101080021D01*
X129916788Y-101079560D01*
X129925170Y-101074720D01*
X129984511Y-101040460D01*
X130040460Y-100984511D01*
X130080021Y-100915989D01*
X130100500Y-100839562D01*
X130100500Y-100760438D01*
X130100500Y-100760436D01*
X130089915Y-100720936D01*
X130080021Y-100684011D01*
X130080020Y-100684009D01*
X130080020Y-100684008D01*
X130040459Y-100615488D01*
X129984511Y-100559540D01*
X129915990Y-100519979D01*
X129839564Y-100499500D01*
X129839562Y-100499500D01*
X129760438Y-100499500D01*
X129760436Y-100499500D01*
X129684010Y-100519979D01*
X129684008Y-100519979D01*
X129615488Y-100559540D01*
X129615488Y-100559541D01*
X129559541Y-100615488D01*
X129559540Y-100615488D01*
X129519979Y-100684008D01*
X129504945Y-100740113D01*
X129482114Y-100769865D01*
X129444931Y-100774759D01*
X129433117Y-100769865D01*
X129415989Y-100759977D01*
X129415988Y-100759976D01*
X129415987Y-100759976D01*
X129339564Y-100739498D01*
X129339562Y-100739498D01*
X129260438Y-100739498D01*
X129260436Y-100739498D01*
X129184010Y-100759977D01*
X129184008Y-100759977D01*
X129115488Y-100799538D01*
X129115488Y-100799539D01*
X129059541Y-100855486D01*
X129059540Y-100855486D01*
X129019979Y-100924006D01*
X129019979Y-100924008D01*
X128999500Y-101000434D01*
X128880501Y-101000434D01*
X128864702Y-100941475D01*
X128860022Y-100924009D01*
X128860021Y-100924007D01*
X128860021Y-100924006D01*
X128820460Y-100855486D01*
X128764512Y-100799538D01*
X128695991Y-100759977D01*
X128619565Y-100739498D01*
X128619563Y-100739498D01*
X128540439Y-100739498D01*
X128540437Y-100739498D01*
X128464011Y-100759977D01*
X128433045Y-100777855D01*
X128395863Y-100782749D01*
X128366111Y-100759919D01*
X128340460Y-100715489D01*
X128284511Y-100659540D01*
X128270890Y-100651676D01*
X128215990Y-100619979D01*
X128139564Y-100599500D01*
X128139562Y-100599500D01*
X128060438Y-100599500D01*
X128060436Y-100599500D01*
X127984010Y-100619979D01*
X127984008Y-100619979D01*
X127915488Y-100659540D01*
X127915488Y-100659541D01*
X127859541Y-100715488D01*
X127859540Y-100715488D01*
X127819979Y-100784008D01*
X127819979Y-100784010D01*
X127818894Y-100788060D01*
X127796063Y-100817813D01*
X127758881Y-100822707D01*
X127736916Y-100810025D01*
X127692923Y-100766032D01*
X127624402Y-100726471D01*
X127547976Y-100705992D01*
X127547974Y-100705992D01*
X127468850Y-100705992D01*
X127468847Y-100705992D01*
X127468368Y-100706055D01*
X127468133Y-100705992D01*
X127465638Y-100705992D01*
X127465638Y-100705323D01*
X127432143Y-100696346D01*
X127413394Y-100663867D01*
X127413394Y-100663866D01*
X127413076Y-100661452D01*
X127401963Y-100619979D01*
X127392597Y-100585026D01*
X127392596Y-100585024D01*
X127392596Y-100585023D01*
X127353035Y-100516503D01*
X127297087Y-100460555D01*
X127228566Y-100420994D01*
X127152140Y-100400515D01*
X127152138Y-100400515D01*
X127073014Y-100400515D01*
X127073012Y-100400515D01*
X126996586Y-100420994D01*
X126996584Y-100420994D01*
X126928064Y-100460555D01*
X126928064Y-100460556D01*
X126872117Y-100516503D01*
X126872116Y-100516503D01*
X126832555Y-100585023D01*
X126832555Y-100585025D01*
X126812076Y-100661451D01*
X111868463Y-100661451D01*
X111870563Y-100645912D01*
X111879564Y-100393460D01*
X111881313Y-100364512D01*
X111880919Y-100355443D01*
X111883512Y-100282735D01*
X111865189Y-99992591D01*
X111864798Y-99983557D01*
X111864485Y-99981447D01*
X111860608Y-99920049D01*
X111802073Y-99561386D01*
X111708477Y-99210238D01*
X111580731Y-98870023D01*
X111553805Y-98815352D01*
X111516545Y-98739700D01*
X111514111Y-98702276D01*
X111526764Y-98682516D01*
X111655361Y-98560436D01*
X121099500Y-98560436D01*
X121099500Y-98639563D01*
X121119979Y-98715989D01*
X121119979Y-98715991D01*
X121159540Y-98784511D01*
X121190381Y-98815352D01*
X121204733Y-98850000D01*
X121190381Y-98884648D01*
X121159541Y-98915488D01*
X121159540Y-98915488D01*
X121119979Y-98984008D01*
X121119979Y-98984010D01*
X121099500Y-99060436D01*
X121099500Y-99139563D01*
X121119979Y-99215989D01*
X121119979Y-99215991D01*
X121159540Y-99284511D01*
X121190381Y-99315352D01*
X121204733Y-99350000D01*
X121190381Y-99384648D01*
X121159541Y-99415488D01*
X121159540Y-99415488D01*
X121119979Y-99484008D01*
X121119979Y-99484010D01*
X121099500Y-99560436D01*
X121099500Y-99639563D01*
X121119979Y-99715989D01*
X121119979Y-99715991D01*
X121159540Y-99784511D01*
X121190381Y-99815352D01*
X121204733Y-99850000D01*
X121190381Y-99884648D01*
X121159541Y-99915488D01*
X121159540Y-99915488D01*
X121119979Y-99984008D01*
X121119979Y-99984010D01*
X121099500Y-100060436D01*
X121099500Y-100139563D01*
X121119979Y-100215989D01*
X121119979Y-100215991D01*
X121133589Y-100239563D01*
X121159540Y-100284511D01*
X121215489Y-100340460D01*
X121284011Y-100380021D01*
X121319478Y-100389524D01*
X121360436Y-100400500D01*
X121360438Y-100400500D01*
X121439564Y-100400500D01*
X121466230Y-100393354D01*
X121515989Y-100380021D01*
X121584511Y-100340460D01*
X121640460Y-100284511D01*
X121680021Y-100215989D01*
X121694907Y-100160436D01*
X139099500Y-100160436D01*
X139099500Y-100239563D01*
X139119979Y-100315989D01*
X139119979Y-100315991D01*
X139156947Y-100380020D01*
X139159540Y-100384511D01*
X139215489Y-100440460D01*
X139284011Y-100480021D01*
X139319478Y-100489524D01*
X139360436Y-100500500D01*
X139360438Y-100500500D01*
X139439564Y-100500500D01*
X139466230Y-100493354D01*
X139515989Y-100480021D01*
X139584511Y-100440460D01*
X139640460Y-100384511D01*
X139680021Y-100315989D01*
X139700500Y-100239562D01*
X139700500Y-100160438D01*
X139700500Y-100160436D01*
X139684694Y-100101452D01*
X139680021Y-100084011D01*
X139680020Y-100084009D01*
X139680020Y-100084008D01*
X139640459Y-100015488D01*
X139584511Y-99959540D01*
X139515990Y-99919979D01*
X139439564Y-99899500D01*
X139439562Y-99899500D01*
X139360438Y-99899500D01*
X139360436Y-99899500D01*
X139284010Y-99919979D01*
X139284008Y-99919979D01*
X139215488Y-99959540D01*
X139215488Y-99959541D01*
X139159541Y-100015488D01*
X139159540Y-100015488D01*
X139119979Y-100084008D01*
X139119979Y-100084010D01*
X139099500Y-100160436D01*
X121694907Y-100160436D01*
X121700500Y-100139562D01*
X121700500Y-100060438D01*
X121700500Y-100060436D01*
X121691843Y-100028134D01*
X121680021Y-99984011D01*
X121680020Y-99984009D01*
X121680020Y-99984008D01*
X121654939Y-99940568D01*
X121640460Y-99915489D01*
X121609619Y-99884648D01*
X121595267Y-99850000D01*
X121609619Y-99815352D01*
X121640459Y-99784512D01*
X121640460Y-99784511D01*
X121680021Y-99715989D01*
X121700500Y-99639562D01*
X121700500Y-99560438D01*
X121700500Y-99560436D01*
X121680155Y-99484512D01*
X121680021Y-99484011D01*
X121680020Y-99484009D01*
X121680020Y-99484008D01*
X121654939Y-99440568D01*
X121640460Y-99415489D01*
X121609619Y-99384648D01*
X121595267Y-99350000D01*
X121609619Y-99315352D01*
X121640459Y-99284512D01*
X121640460Y-99284511D01*
X121654360Y-99260436D01*
X128599500Y-99260436D01*
X128599500Y-99339563D01*
X128619979Y-99415989D01*
X128619979Y-99415991D01*
X128650412Y-99468701D01*
X128659540Y-99484511D01*
X128715489Y-99540460D01*
X128784011Y-99580021D01*
X128819478Y-99589524D01*
X128860436Y-99600500D01*
X128860438Y-99600500D01*
X128939564Y-99600500D01*
X128966230Y-99593354D01*
X129015989Y-99580021D01*
X129084511Y-99540460D01*
X129140460Y-99484511D01*
X129180021Y-99415989D01*
X129197703Y-99350000D01*
X129200500Y-99339563D01*
X129200500Y-99260436D01*
X133799500Y-99260436D01*
X133799500Y-99339563D01*
X133819979Y-99415989D01*
X133819979Y-99415991D01*
X133850412Y-99468701D01*
X133859540Y-99484511D01*
X133915489Y-99540460D01*
X133984011Y-99580021D01*
X134019478Y-99589524D01*
X134060436Y-99600500D01*
X134060438Y-99600500D01*
X134139564Y-99600500D01*
X134166230Y-99593354D01*
X134215989Y-99580021D01*
X134284511Y-99540460D01*
X134340460Y-99484511D01*
X134380021Y-99415989D01*
X134397703Y-99350000D01*
X134400500Y-99339563D01*
X134400500Y-99260436D01*
X135999500Y-99260436D01*
X135999500Y-99339563D01*
X136019979Y-99415989D01*
X136019979Y-99415991D01*
X136050412Y-99468701D01*
X136059540Y-99484511D01*
X136115489Y-99540460D01*
X136184011Y-99580021D01*
X136219478Y-99589524D01*
X136260436Y-99600500D01*
X136260438Y-99600500D01*
X136339564Y-99600500D01*
X136366230Y-99593354D01*
X136415989Y-99580021D01*
X136484511Y-99540460D01*
X136540460Y-99484511D01*
X136580021Y-99415989D01*
X136597703Y-99350000D01*
X136600500Y-99339563D01*
X136600500Y-99260436D01*
X136588590Y-99215990D01*
X136580021Y-99184011D01*
X136580020Y-99184009D01*
X136580020Y-99184008D01*
X136540459Y-99115488D01*
X136484511Y-99059540D01*
X136415990Y-99019979D01*
X136339564Y-98999500D01*
X136339562Y-98999500D01*
X136260438Y-98999500D01*
X136260436Y-98999500D01*
X136184010Y-99019979D01*
X136184008Y-99019979D01*
X136115488Y-99059540D01*
X136115488Y-99059541D01*
X136059541Y-99115488D01*
X136059540Y-99115488D01*
X136019979Y-99184008D01*
X136019979Y-99184010D01*
X135999500Y-99260436D01*
X134400500Y-99260436D01*
X134388590Y-99215990D01*
X134380021Y-99184011D01*
X134380020Y-99184009D01*
X134380020Y-99184008D01*
X134340459Y-99115488D01*
X134284511Y-99059540D01*
X134215990Y-99019979D01*
X134139564Y-98999500D01*
X134139562Y-98999500D01*
X134060438Y-98999500D01*
X134060436Y-98999500D01*
X133984010Y-99019979D01*
X133984008Y-99019979D01*
X133915488Y-99059540D01*
X133915488Y-99059541D01*
X133859541Y-99115488D01*
X133859540Y-99115488D01*
X133819979Y-99184008D01*
X133819979Y-99184010D01*
X133799500Y-99260436D01*
X129200500Y-99260436D01*
X129188590Y-99215990D01*
X129180021Y-99184011D01*
X129180020Y-99184009D01*
X129180020Y-99184008D01*
X129140459Y-99115488D01*
X129084511Y-99059540D01*
X129015990Y-99019979D01*
X128939564Y-98999500D01*
X128939562Y-98999500D01*
X128860438Y-98999500D01*
X128860436Y-98999500D01*
X128784010Y-99019979D01*
X128784008Y-99019979D01*
X128715488Y-99059540D01*
X128715488Y-99059541D01*
X128659541Y-99115488D01*
X128659540Y-99115488D01*
X128619979Y-99184008D01*
X128619979Y-99184010D01*
X128599500Y-99260436D01*
X121654360Y-99260436D01*
X121680021Y-99215989D01*
X121700500Y-99139562D01*
X121700500Y-99060438D01*
X121700500Y-99060436D01*
X121684171Y-98999500D01*
X121680021Y-98984011D01*
X121680020Y-98984009D01*
X121680020Y-98984008D01*
X121640459Y-98915488D01*
X121609619Y-98884648D01*
X121595267Y-98850000D01*
X121609619Y-98815352D01*
X121640459Y-98784512D01*
X121640460Y-98784511D01*
X121680021Y-98715989D01*
X121700500Y-98639562D01*
X121700500Y-98560438D01*
X121700500Y-98560436D01*
X121690117Y-98521689D01*
X121680021Y-98484011D01*
X121680020Y-98484009D01*
X121680020Y-98484008D01*
X121654939Y-98440568D01*
X121640460Y-98415489D01*
X121584511Y-98359540D01*
X121515990Y-98319979D01*
X121439564Y-98299500D01*
X121439562Y-98299500D01*
X121360438Y-98299500D01*
X121360436Y-98299500D01*
X121284010Y-98319979D01*
X121284008Y-98319979D01*
X121215488Y-98359540D01*
X121215488Y-98359541D01*
X121159541Y-98415488D01*
X121159540Y-98415488D01*
X121119979Y-98484008D01*
X121119979Y-98484010D01*
X121099500Y-98560436D01*
X111655361Y-98560436D01*
X111821330Y-98402877D01*
X111822765Y-98401570D01*
X111906046Y-98328887D01*
X111906938Y-98328130D01*
X112209357Y-98078063D01*
X112211175Y-98076635D01*
X112232866Y-98060436D01*
X124899500Y-98060436D01*
X124899500Y-98139563D01*
X124919979Y-98215989D01*
X124919979Y-98215991D01*
X124959345Y-98284174D01*
X124959540Y-98284511D01*
X125015489Y-98340460D01*
X125084011Y-98380021D01*
X125119478Y-98389524D01*
X125160436Y-98400500D01*
X125160438Y-98400500D01*
X125239564Y-98400500D01*
X125266230Y-98393354D01*
X125315989Y-98380021D01*
X125384511Y-98340460D01*
X125440460Y-98284511D01*
X125480021Y-98215989D01*
X125500500Y-98139562D01*
X125500500Y-98060438D01*
X125500500Y-98060436D01*
X125488972Y-98017415D01*
X125480021Y-97984011D01*
X125480020Y-97984009D01*
X125480020Y-97984008D01*
X125440459Y-97915488D01*
X125384511Y-97859540D01*
X125315990Y-97819979D01*
X125239564Y-97799500D01*
X125239562Y-97799500D01*
X125160438Y-97799500D01*
X125160436Y-97799500D01*
X125084010Y-97819979D01*
X125084008Y-97819979D01*
X125015488Y-97859540D01*
X125015488Y-97859541D01*
X124959541Y-97915488D01*
X124959540Y-97915488D01*
X124919979Y-97984008D01*
X124919979Y-97984010D01*
X124899500Y-98060436D01*
X112232866Y-98060436D01*
X112280395Y-98024941D01*
X112281084Y-98024437D01*
X112621253Y-97780337D01*
X112623443Y-97778859D01*
X112638256Y-97769460D01*
X113037783Y-97522338D01*
X113040667Y-97520688D01*
X113468606Y-97294927D01*
X113471588Y-97293483D01*
X113913979Y-97097535D01*
X113917042Y-97096303D01*
X114358653Y-96935871D01*
X114375141Y-96930094D01*
X114377685Y-96929284D01*
X114780235Y-96813542D01*
X114780929Y-96813349D01*
X114864270Y-96791094D01*
X114866574Y-96790540D01*
X115250380Y-96708140D01*
X115251553Y-96707904D01*
X115359953Y-96687635D01*
X115361923Y-96687309D01*
X115796663Y-96624718D01*
X115803646Y-96624219D01*
X143461923Y-96624219D01*
X143496571Y-96638571D01*
G37*
G04 #@! TD.AperFunction*
G04 #@! TD*
M02*
