G04 #@! TF.GenerationSoftware,KiCad,Pcbnew,10.0.3*
G04 #@! TF.CreationDate,2026-06-29T08:50:39+02:00*
G04 #@! TF.ProjectId,ovrdrive,6f767264-7269-4766-952e-6b696361645f,rev?*
G04 #@! TF.SameCoordinates,Original*
G04 #@! TF.FileFunction,AssemblyDrawing,Top*
%FSLAX46Y46*%
G04 Gerber Fmt 4.6, Leading zero omitted, Abs format (unit mm)*
G04 Created by KiCad (PCBNEW 10.0.3) date 2026-06-29 08:50:39*
%MOMM*%
%LPD*%
G01*
G04 APERTURE LIST*
%ADD10C,0.050000*%
%ADD11C,0.150000*%
%ADD12C,0.100000*%
G04 APERTURE END LIST*
D10*
X118650000Y-104136185D02*
X118550000Y-103993328D01*
X118478571Y-104136185D02*
X118478571Y-103836185D01*
X118478571Y-103836185D02*
X118592857Y-103836185D01*
X118592857Y-103836185D02*
X118621428Y-103850471D01*
X118621428Y-103850471D02*
X118635714Y-103864757D01*
X118635714Y-103864757D02*
X118650000Y-103893328D01*
X118650000Y-103893328D02*
X118650000Y-103936185D01*
X118650000Y-103936185D02*
X118635714Y-103964757D01*
X118635714Y-103964757D02*
X118621428Y-103979042D01*
X118621428Y-103979042D02*
X118592857Y-103993328D01*
X118592857Y-103993328D02*
X118478571Y-103993328D01*
X118921428Y-103836185D02*
X118778571Y-103836185D01*
X118778571Y-103836185D02*
X118764285Y-103979042D01*
X118764285Y-103979042D02*
X118778571Y-103964757D01*
X118778571Y-103964757D02*
X118807143Y-103950471D01*
X118807143Y-103950471D02*
X118878571Y-103950471D01*
X118878571Y-103950471D02*
X118907143Y-103964757D01*
X118907143Y-103964757D02*
X118921428Y-103979042D01*
X118921428Y-103979042D02*
X118935714Y-104007614D01*
X118935714Y-104007614D02*
X118935714Y-104079042D01*
X118935714Y-104079042D02*
X118921428Y-104107614D01*
X118921428Y-104107614D02*
X118907143Y-104121900D01*
X118907143Y-104121900D02*
X118878571Y-104136185D01*
X118878571Y-104136185D02*
X118807143Y-104136185D01*
X118807143Y-104136185D02*
X118778571Y-104121900D01*
X118778571Y-104121900D02*
X118764285Y-104107614D01*
X118930000Y-110807614D02*
X118915714Y-110821900D01*
X118915714Y-110821900D02*
X118872857Y-110836185D01*
X118872857Y-110836185D02*
X118844285Y-110836185D01*
X118844285Y-110836185D02*
X118801428Y-110821900D01*
X118801428Y-110821900D02*
X118772857Y-110793328D01*
X118772857Y-110793328D02*
X118758571Y-110764757D01*
X118758571Y-110764757D02*
X118744285Y-110707614D01*
X118744285Y-110707614D02*
X118744285Y-110664757D01*
X118744285Y-110664757D02*
X118758571Y-110607614D01*
X118758571Y-110607614D02*
X118772857Y-110579042D01*
X118772857Y-110579042D02*
X118801428Y-110550471D01*
X118801428Y-110550471D02*
X118844285Y-110536185D01*
X118844285Y-110536185D02*
X118872857Y-110536185D01*
X118872857Y-110536185D02*
X118915714Y-110550471D01*
X118915714Y-110550471D02*
X118930000Y-110564757D01*
X119101428Y-110664757D02*
X119072857Y-110650471D01*
X119072857Y-110650471D02*
X119058571Y-110636185D01*
X119058571Y-110636185D02*
X119044285Y-110607614D01*
X119044285Y-110607614D02*
X119044285Y-110593328D01*
X119044285Y-110593328D02*
X119058571Y-110564757D01*
X119058571Y-110564757D02*
X119072857Y-110550471D01*
X119072857Y-110550471D02*
X119101428Y-110536185D01*
X119101428Y-110536185D02*
X119158571Y-110536185D01*
X119158571Y-110536185D02*
X119187143Y-110550471D01*
X119187143Y-110550471D02*
X119201428Y-110564757D01*
X119201428Y-110564757D02*
X119215714Y-110593328D01*
X119215714Y-110593328D02*
X119215714Y-110607614D01*
X119215714Y-110607614D02*
X119201428Y-110636185D01*
X119201428Y-110636185D02*
X119187143Y-110650471D01*
X119187143Y-110650471D02*
X119158571Y-110664757D01*
X119158571Y-110664757D02*
X119101428Y-110664757D01*
X119101428Y-110664757D02*
X119072857Y-110679042D01*
X119072857Y-110679042D02*
X119058571Y-110693328D01*
X119058571Y-110693328D02*
X119044285Y-110721900D01*
X119044285Y-110721900D02*
X119044285Y-110779042D01*
X119044285Y-110779042D02*
X119058571Y-110807614D01*
X119058571Y-110807614D02*
X119072857Y-110821900D01*
X119072857Y-110821900D02*
X119101428Y-110836185D01*
X119101428Y-110836185D02*
X119158571Y-110836185D01*
X119158571Y-110836185D02*
X119187143Y-110821900D01*
X119187143Y-110821900D02*
X119201428Y-110807614D01*
X119201428Y-110807614D02*
X119215714Y-110779042D01*
X119215714Y-110779042D02*
X119215714Y-110721900D01*
X119215714Y-110721900D02*
X119201428Y-110693328D01*
X119201428Y-110693328D02*
X119187143Y-110679042D01*
X119187143Y-110679042D02*
X119158571Y-110664757D01*
D11*
X137254819Y-111866666D02*
X137254819Y-111295238D01*
X138254819Y-111580952D02*
X137254819Y-111580952D01*
X138254819Y-110961904D02*
X137254819Y-110961904D01*
X137254819Y-110961904D02*
X137254819Y-110580952D01*
X137254819Y-110580952D02*
X137302438Y-110485714D01*
X137302438Y-110485714D02*
X137350057Y-110438095D01*
X137350057Y-110438095D02*
X137445295Y-110390476D01*
X137445295Y-110390476D02*
X137588152Y-110390476D01*
X137588152Y-110390476D02*
X137683390Y-110438095D01*
X137683390Y-110438095D02*
X137731009Y-110485714D01*
X137731009Y-110485714D02*
X137778628Y-110580952D01*
X137778628Y-110580952D02*
X137778628Y-110961904D01*
X138254819Y-109961904D02*
X137254819Y-109961904D01*
X137254819Y-109961904D02*
X137254819Y-109723809D01*
X137254819Y-109723809D02*
X137302438Y-109580952D01*
X137302438Y-109580952D02*
X137397676Y-109485714D01*
X137397676Y-109485714D02*
X137492914Y-109438095D01*
X137492914Y-109438095D02*
X137683390Y-109390476D01*
X137683390Y-109390476D02*
X137826247Y-109390476D01*
X137826247Y-109390476D02*
X138016723Y-109438095D01*
X138016723Y-109438095D02*
X138111961Y-109485714D01*
X138111961Y-109485714D02*
X138207200Y-109580952D01*
X138207200Y-109580952D02*
X138254819Y-109723809D01*
X138254819Y-109723809D02*
X138254819Y-109961904D01*
X137350057Y-109009523D02*
X137302438Y-108961904D01*
X137302438Y-108961904D02*
X137254819Y-108866666D01*
X137254819Y-108866666D02*
X137254819Y-108628571D01*
X137254819Y-108628571D02*
X137302438Y-108533333D01*
X137302438Y-108533333D02*
X137350057Y-108485714D01*
X137350057Y-108485714D02*
X137445295Y-108438095D01*
X137445295Y-108438095D02*
X137540533Y-108438095D01*
X137540533Y-108438095D02*
X137683390Y-108485714D01*
X137683390Y-108485714D02*
X138254819Y-109057142D01*
X138254819Y-109057142D02*
X138254819Y-108438095D01*
X137731009Y-108009523D02*
X137731009Y-107676190D01*
X138254819Y-107533333D02*
X138254819Y-108009523D01*
X138254819Y-108009523D02*
X137254819Y-108009523D01*
X137254819Y-108009523D02*
X137254819Y-107533333D01*
X137254819Y-107104761D02*
X138064342Y-107104761D01*
X138064342Y-107104761D02*
X138159580Y-107057142D01*
X138159580Y-107057142D02*
X138207200Y-107009523D01*
X138207200Y-107009523D02*
X138254819Y-106914285D01*
X138254819Y-106914285D02*
X138254819Y-106723809D01*
X138254819Y-106723809D02*
X138207200Y-106628571D01*
X138207200Y-106628571D02*
X138159580Y-106580952D01*
X138159580Y-106580952D02*
X138064342Y-106533333D01*
X138064342Y-106533333D02*
X137254819Y-106533333D01*
X138207200Y-106104761D02*
X138254819Y-105961904D01*
X138254819Y-105961904D02*
X138254819Y-105723809D01*
X138254819Y-105723809D02*
X138207200Y-105628571D01*
X138207200Y-105628571D02*
X138159580Y-105580952D01*
X138159580Y-105580952D02*
X138064342Y-105533333D01*
X138064342Y-105533333D02*
X137969104Y-105533333D01*
X137969104Y-105533333D02*
X137873866Y-105580952D01*
X137873866Y-105580952D02*
X137826247Y-105628571D01*
X137826247Y-105628571D02*
X137778628Y-105723809D01*
X137778628Y-105723809D02*
X137731009Y-105914285D01*
X137731009Y-105914285D02*
X137683390Y-106009523D01*
X137683390Y-106009523D02*
X137635771Y-106057142D01*
X137635771Y-106057142D02*
X137540533Y-106104761D01*
X137540533Y-106104761D02*
X137445295Y-106104761D01*
X137445295Y-106104761D02*
X137350057Y-106057142D01*
X137350057Y-106057142D02*
X137302438Y-106009523D01*
X137302438Y-106009523D02*
X137254819Y-105914285D01*
X137254819Y-105914285D02*
X137254819Y-105676190D01*
X137254819Y-105676190D02*
X137302438Y-105533333D01*
X137731009Y-104771428D02*
X137778628Y-104628571D01*
X137778628Y-104628571D02*
X137826247Y-104580952D01*
X137826247Y-104580952D02*
X137921485Y-104533333D01*
X137921485Y-104533333D02*
X138064342Y-104533333D01*
X138064342Y-104533333D02*
X138159580Y-104580952D01*
X138159580Y-104580952D02*
X138207200Y-104628571D01*
X138207200Y-104628571D02*
X138254819Y-104723809D01*
X138254819Y-104723809D02*
X138254819Y-105104761D01*
X138254819Y-105104761D02*
X137254819Y-105104761D01*
X137254819Y-105104761D02*
X137254819Y-104771428D01*
X137254819Y-104771428D02*
X137302438Y-104676190D01*
X137302438Y-104676190D02*
X137350057Y-104628571D01*
X137350057Y-104628571D02*
X137445295Y-104580952D01*
X137445295Y-104580952D02*
X137540533Y-104580952D01*
X137540533Y-104580952D02*
X137635771Y-104628571D01*
X137635771Y-104628571D02*
X137683390Y-104676190D01*
X137683390Y-104676190D02*
X137731009Y-104771428D01*
X137731009Y-104771428D02*
X137731009Y-105104761D01*
X137254819Y-104199999D02*
X137254819Y-103580952D01*
X137254819Y-103580952D02*
X137635771Y-103914285D01*
X137635771Y-103914285D02*
X137635771Y-103771428D01*
X137635771Y-103771428D02*
X137683390Y-103676190D01*
X137683390Y-103676190D02*
X137731009Y-103628571D01*
X137731009Y-103628571D02*
X137826247Y-103580952D01*
X137826247Y-103580952D02*
X138064342Y-103580952D01*
X138064342Y-103580952D02*
X138159580Y-103628571D01*
X138159580Y-103628571D02*
X138207200Y-103676190D01*
X138207200Y-103676190D02*
X138254819Y-103771428D01*
X138254819Y-103771428D02*
X138254819Y-104057142D01*
X138254819Y-104057142D02*
X138207200Y-104152380D01*
X138207200Y-104152380D02*
X138159580Y-104199999D01*
X137254819Y-102961904D02*
X137254819Y-102866666D01*
X137254819Y-102866666D02*
X137302438Y-102771428D01*
X137302438Y-102771428D02*
X137350057Y-102723809D01*
X137350057Y-102723809D02*
X137445295Y-102676190D01*
X137445295Y-102676190D02*
X137635771Y-102628571D01*
X137635771Y-102628571D02*
X137873866Y-102628571D01*
X137873866Y-102628571D02*
X138064342Y-102676190D01*
X138064342Y-102676190D02*
X138159580Y-102723809D01*
X138159580Y-102723809D02*
X138207200Y-102771428D01*
X138207200Y-102771428D02*
X138254819Y-102866666D01*
X138254819Y-102866666D02*
X138254819Y-102961904D01*
X138254819Y-102961904D02*
X138207200Y-103057142D01*
X138207200Y-103057142D02*
X138159580Y-103104761D01*
X138159580Y-103104761D02*
X138064342Y-103152380D01*
X138064342Y-103152380D02*
X137873866Y-103199999D01*
X137873866Y-103199999D02*
X137635771Y-103199999D01*
X137635771Y-103199999D02*
X137445295Y-103152380D01*
X137445295Y-103152380D02*
X137350057Y-103104761D01*
X137350057Y-103104761D02*
X137302438Y-103057142D01*
X137302438Y-103057142D02*
X137254819Y-102961904D01*
X140254819Y-107961904D02*
X141064342Y-107961904D01*
X141064342Y-107961904D02*
X141159580Y-107914285D01*
X141159580Y-107914285D02*
X141207200Y-107866666D01*
X141207200Y-107866666D02*
X141254819Y-107771428D01*
X141254819Y-107771428D02*
X141254819Y-107580952D01*
X141254819Y-107580952D02*
X141207200Y-107485714D01*
X141207200Y-107485714D02*
X141159580Y-107438095D01*
X141159580Y-107438095D02*
X141064342Y-107390476D01*
X141064342Y-107390476D02*
X140254819Y-107390476D01*
X140254819Y-106438095D02*
X140254819Y-106914285D01*
X140254819Y-106914285D02*
X140731009Y-106961904D01*
X140731009Y-106961904D02*
X140683390Y-106914285D01*
X140683390Y-106914285D02*
X140635771Y-106819047D01*
X140635771Y-106819047D02*
X140635771Y-106580952D01*
X140635771Y-106580952D02*
X140683390Y-106485714D01*
X140683390Y-106485714D02*
X140731009Y-106438095D01*
X140731009Y-106438095D02*
X140826247Y-106390476D01*
X140826247Y-106390476D02*
X141064342Y-106390476D01*
X141064342Y-106390476D02*
X141159580Y-106438095D01*
X141159580Y-106438095D02*
X141207200Y-106485714D01*
X141207200Y-106485714D02*
X141254819Y-106580952D01*
X141254819Y-106580952D02*
X141254819Y-106819047D01*
X141254819Y-106819047D02*
X141207200Y-106914285D01*
X141207200Y-106914285D02*
X141159580Y-106961904D01*
D10*
X114416185Y-107528571D02*
X114659042Y-107528571D01*
X114659042Y-107528571D02*
X114687614Y-107514285D01*
X114687614Y-107514285D02*
X114701900Y-107500000D01*
X114701900Y-107500000D02*
X114716185Y-107471428D01*
X114716185Y-107471428D02*
X114716185Y-107414285D01*
X114716185Y-107414285D02*
X114701900Y-107385714D01*
X114701900Y-107385714D02*
X114687614Y-107371428D01*
X114687614Y-107371428D02*
X114659042Y-107357142D01*
X114659042Y-107357142D02*
X114416185Y-107357142D01*
X114444757Y-107228571D02*
X114430471Y-107214285D01*
X114430471Y-107214285D02*
X114416185Y-107185714D01*
X114416185Y-107185714D02*
X114416185Y-107114285D01*
X114416185Y-107114285D02*
X114430471Y-107085714D01*
X114430471Y-107085714D02*
X114444757Y-107071428D01*
X114444757Y-107071428D02*
X114473328Y-107057142D01*
X114473328Y-107057142D02*
X114501900Y-107057142D01*
X114501900Y-107057142D02*
X114544757Y-107071428D01*
X114544757Y-107071428D02*
X114716185Y-107242856D01*
X114716185Y-107242856D02*
X114716185Y-107057142D01*
X112807614Y-104769999D02*
X112821900Y-104784285D01*
X112821900Y-104784285D02*
X112836185Y-104827142D01*
X112836185Y-104827142D02*
X112836185Y-104855714D01*
X112836185Y-104855714D02*
X112821900Y-104898571D01*
X112821900Y-104898571D02*
X112793328Y-104927142D01*
X112793328Y-104927142D02*
X112764757Y-104941428D01*
X112764757Y-104941428D02*
X112707614Y-104955714D01*
X112707614Y-104955714D02*
X112664757Y-104955714D01*
X112664757Y-104955714D02*
X112607614Y-104941428D01*
X112607614Y-104941428D02*
X112579042Y-104927142D01*
X112579042Y-104927142D02*
X112550471Y-104898571D01*
X112550471Y-104898571D02*
X112536185Y-104855714D01*
X112536185Y-104855714D02*
X112536185Y-104827142D01*
X112536185Y-104827142D02*
X112550471Y-104784285D01*
X112550471Y-104784285D02*
X112564757Y-104769999D01*
X112636185Y-104512857D02*
X112836185Y-104512857D01*
X112521900Y-104584285D02*
X112736185Y-104655714D01*
X112736185Y-104655714D02*
X112736185Y-104469999D01*
X119190000Y-97507614D02*
X119175714Y-97521900D01*
X119175714Y-97521900D02*
X119132857Y-97536185D01*
X119132857Y-97536185D02*
X119104285Y-97536185D01*
X119104285Y-97536185D02*
X119061428Y-97521900D01*
X119061428Y-97521900D02*
X119032857Y-97493328D01*
X119032857Y-97493328D02*
X119018571Y-97464757D01*
X119018571Y-97464757D02*
X119004285Y-97407614D01*
X119004285Y-97407614D02*
X119004285Y-97364757D01*
X119004285Y-97364757D02*
X119018571Y-97307614D01*
X119018571Y-97307614D02*
X119032857Y-97279042D01*
X119032857Y-97279042D02*
X119061428Y-97250471D01*
X119061428Y-97250471D02*
X119104285Y-97236185D01*
X119104285Y-97236185D02*
X119132857Y-97236185D01*
X119132857Y-97236185D02*
X119175714Y-97250471D01*
X119175714Y-97250471D02*
X119190000Y-97264757D01*
X119332857Y-97536185D02*
X119390000Y-97536185D01*
X119390000Y-97536185D02*
X119418571Y-97521900D01*
X119418571Y-97521900D02*
X119432857Y-97507614D01*
X119432857Y-97507614D02*
X119461428Y-97464757D01*
X119461428Y-97464757D02*
X119475714Y-97407614D01*
X119475714Y-97407614D02*
X119475714Y-97293328D01*
X119475714Y-97293328D02*
X119461428Y-97264757D01*
X119461428Y-97264757D02*
X119447143Y-97250471D01*
X119447143Y-97250471D02*
X119418571Y-97236185D01*
X119418571Y-97236185D02*
X119361428Y-97236185D01*
X119361428Y-97236185D02*
X119332857Y-97250471D01*
X119332857Y-97250471D02*
X119318571Y-97264757D01*
X119318571Y-97264757D02*
X119304285Y-97293328D01*
X119304285Y-97293328D02*
X119304285Y-97364757D01*
X119304285Y-97364757D02*
X119318571Y-97393328D01*
X119318571Y-97393328D02*
X119332857Y-97407614D01*
X119332857Y-97407614D02*
X119361428Y-97421900D01*
X119361428Y-97421900D02*
X119418571Y-97421900D01*
X119418571Y-97421900D02*
X119447143Y-97407614D01*
X119447143Y-97407614D02*
X119461428Y-97393328D01*
X119461428Y-97393328D02*
X119475714Y-97364757D01*
X111807614Y-104769999D02*
X111821900Y-104784285D01*
X111821900Y-104784285D02*
X111836185Y-104827142D01*
X111836185Y-104827142D02*
X111836185Y-104855714D01*
X111836185Y-104855714D02*
X111821900Y-104898571D01*
X111821900Y-104898571D02*
X111793328Y-104927142D01*
X111793328Y-104927142D02*
X111764757Y-104941428D01*
X111764757Y-104941428D02*
X111707614Y-104955714D01*
X111707614Y-104955714D02*
X111664757Y-104955714D01*
X111664757Y-104955714D02*
X111607614Y-104941428D01*
X111607614Y-104941428D02*
X111579042Y-104927142D01*
X111579042Y-104927142D02*
X111550471Y-104898571D01*
X111550471Y-104898571D02*
X111536185Y-104855714D01*
X111536185Y-104855714D02*
X111536185Y-104827142D01*
X111536185Y-104827142D02*
X111550471Y-104784285D01*
X111550471Y-104784285D02*
X111564757Y-104769999D01*
X111536185Y-104512857D02*
X111536185Y-104569999D01*
X111536185Y-104569999D02*
X111550471Y-104598571D01*
X111550471Y-104598571D02*
X111564757Y-104612857D01*
X111564757Y-104612857D02*
X111607614Y-104641428D01*
X111607614Y-104641428D02*
X111664757Y-104655714D01*
X111664757Y-104655714D02*
X111779042Y-104655714D01*
X111779042Y-104655714D02*
X111807614Y-104641428D01*
X111807614Y-104641428D02*
X111821900Y-104627142D01*
X111821900Y-104627142D02*
X111836185Y-104598571D01*
X111836185Y-104598571D02*
X111836185Y-104541428D01*
X111836185Y-104541428D02*
X111821900Y-104512857D01*
X111821900Y-104512857D02*
X111807614Y-104498571D01*
X111807614Y-104498571D02*
X111779042Y-104484285D01*
X111779042Y-104484285D02*
X111707614Y-104484285D01*
X111707614Y-104484285D02*
X111679042Y-104498571D01*
X111679042Y-104498571D02*
X111664757Y-104512857D01*
X111664757Y-104512857D02*
X111650471Y-104541428D01*
X111650471Y-104541428D02*
X111650471Y-104598571D01*
X111650471Y-104598571D02*
X111664757Y-104627142D01*
X111664757Y-104627142D02*
X111679042Y-104641428D01*
X111679042Y-104641428D02*
X111707614Y-104655714D01*
X120947143Y-97507614D02*
X120932857Y-97521900D01*
X120932857Y-97521900D02*
X120890000Y-97536185D01*
X120890000Y-97536185D02*
X120861428Y-97536185D01*
X120861428Y-97536185D02*
X120818571Y-97521900D01*
X120818571Y-97521900D02*
X120790000Y-97493328D01*
X120790000Y-97493328D02*
X120775714Y-97464757D01*
X120775714Y-97464757D02*
X120761428Y-97407614D01*
X120761428Y-97407614D02*
X120761428Y-97364757D01*
X120761428Y-97364757D02*
X120775714Y-97307614D01*
X120775714Y-97307614D02*
X120790000Y-97279042D01*
X120790000Y-97279042D02*
X120818571Y-97250471D01*
X120818571Y-97250471D02*
X120861428Y-97236185D01*
X120861428Y-97236185D02*
X120890000Y-97236185D01*
X120890000Y-97236185D02*
X120932857Y-97250471D01*
X120932857Y-97250471D02*
X120947143Y-97264757D01*
X121232857Y-97536185D02*
X121061428Y-97536185D01*
X121147143Y-97536185D02*
X121147143Y-97236185D01*
X121147143Y-97236185D02*
X121118571Y-97279042D01*
X121118571Y-97279042D02*
X121090000Y-97307614D01*
X121090000Y-97307614D02*
X121061428Y-97321900D01*
X121418571Y-97236185D02*
X121447142Y-97236185D01*
X121447142Y-97236185D02*
X121475714Y-97250471D01*
X121475714Y-97250471D02*
X121490000Y-97264757D01*
X121490000Y-97264757D02*
X121504285Y-97293328D01*
X121504285Y-97293328D02*
X121518571Y-97350471D01*
X121518571Y-97350471D02*
X121518571Y-97421900D01*
X121518571Y-97421900D02*
X121504285Y-97479042D01*
X121504285Y-97479042D02*
X121490000Y-97507614D01*
X121490000Y-97507614D02*
X121475714Y-97521900D01*
X121475714Y-97521900D02*
X121447142Y-97536185D01*
X121447142Y-97536185D02*
X121418571Y-97536185D01*
X121418571Y-97536185D02*
X121390000Y-97521900D01*
X121390000Y-97521900D02*
X121375714Y-97507614D01*
X121375714Y-97507614D02*
X121361428Y-97479042D01*
X121361428Y-97479042D02*
X121347142Y-97421900D01*
X121347142Y-97421900D02*
X121347142Y-97350471D01*
X121347142Y-97350471D02*
X121361428Y-97293328D01*
X121361428Y-97293328D02*
X121375714Y-97264757D01*
X121375714Y-97264757D02*
X121390000Y-97250471D01*
X121390000Y-97250471D02*
X121418571Y-97236185D01*
X133932143Y-106257614D02*
X133917857Y-106271900D01*
X133917857Y-106271900D02*
X133875000Y-106286185D01*
X133875000Y-106286185D02*
X133846428Y-106286185D01*
X133846428Y-106286185D02*
X133803571Y-106271900D01*
X133803571Y-106271900D02*
X133775000Y-106243328D01*
X133775000Y-106243328D02*
X133760714Y-106214757D01*
X133760714Y-106214757D02*
X133746428Y-106157614D01*
X133746428Y-106157614D02*
X133746428Y-106114757D01*
X133746428Y-106114757D02*
X133760714Y-106057614D01*
X133760714Y-106057614D02*
X133775000Y-106029042D01*
X133775000Y-106029042D02*
X133803571Y-106000471D01*
X133803571Y-106000471D02*
X133846428Y-105986185D01*
X133846428Y-105986185D02*
X133875000Y-105986185D01*
X133875000Y-105986185D02*
X133917857Y-106000471D01*
X133917857Y-106000471D02*
X133932143Y-106014757D01*
X134046428Y-106014757D02*
X134060714Y-106000471D01*
X134060714Y-106000471D02*
X134089286Y-105986185D01*
X134089286Y-105986185D02*
X134160714Y-105986185D01*
X134160714Y-105986185D02*
X134189286Y-106000471D01*
X134189286Y-106000471D02*
X134203571Y-106014757D01*
X134203571Y-106014757D02*
X134217857Y-106043328D01*
X134217857Y-106043328D02*
X134217857Y-106071900D01*
X134217857Y-106071900D02*
X134203571Y-106114757D01*
X134203571Y-106114757D02*
X134032143Y-106286185D01*
X134032143Y-106286185D02*
X134217857Y-106286185D01*
X134389285Y-106114757D02*
X134360714Y-106100471D01*
X134360714Y-106100471D02*
X134346428Y-106086185D01*
X134346428Y-106086185D02*
X134332142Y-106057614D01*
X134332142Y-106057614D02*
X134332142Y-106043328D01*
X134332142Y-106043328D02*
X134346428Y-106014757D01*
X134346428Y-106014757D02*
X134360714Y-106000471D01*
X134360714Y-106000471D02*
X134389285Y-105986185D01*
X134389285Y-105986185D02*
X134446428Y-105986185D01*
X134446428Y-105986185D02*
X134475000Y-106000471D01*
X134475000Y-106000471D02*
X134489285Y-106014757D01*
X134489285Y-106014757D02*
X134503571Y-106043328D01*
X134503571Y-106043328D02*
X134503571Y-106057614D01*
X134503571Y-106057614D02*
X134489285Y-106086185D01*
X134489285Y-106086185D02*
X134475000Y-106100471D01*
X134475000Y-106100471D02*
X134446428Y-106114757D01*
X134446428Y-106114757D02*
X134389285Y-106114757D01*
X134389285Y-106114757D02*
X134360714Y-106129042D01*
X134360714Y-106129042D02*
X134346428Y-106143328D01*
X134346428Y-106143328D02*
X134332142Y-106171900D01*
X134332142Y-106171900D02*
X134332142Y-106229042D01*
X134332142Y-106229042D02*
X134346428Y-106257614D01*
X134346428Y-106257614D02*
X134360714Y-106271900D01*
X134360714Y-106271900D02*
X134389285Y-106286185D01*
X134389285Y-106286185D02*
X134446428Y-106286185D01*
X134446428Y-106286185D02*
X134475000Y-106271900D01*
X134475000Y-106271900D02*
X134489285Y-106257614D01*
X134489285Y-106257614D02*
X134503571Y-106229042D01*
X134503571Y-106229042D02*
X134503571Y-106171900D01*
X134503571Y-106171900D02*
X134489285Y-106143328D01*
X134489285Y-106143328D02*
X134475000Y-106129042D01*
X134475000Y-106129042D02*
X134446428Y-106114757D01*
X129707614Y-109692856D02*
X129721900Y-109707142D01*
X129721900Y-109707142D02*
X129736185Y-109749999D01*
X129736185Y-109749999D02*
X129736185Y-109778571D01*
X129736185Y-109778571D02*
X129721900Y-109821428D01*
X129721900Y-109821428D02*
X129693328Y-109849999D01*
X129693328Y-109849999D02*
X129664757Y-109864285D01*
X129664757Y-109864285D02*
X129607614Y-109878571D01*
X129607614Y-109878571D02*
X129564757Y-109878571D01*
X129564757Y-109878571D02*
X129507614Y-109864285D01*
X129507614Y-109864285D02*
X129479042Y-109849999D01*
X129479042Y-109849999D02*
X129450471Y-109821428D01*
X129450471Y-109821428D02*
X129436185Y-109778571D01*
X129436185Y-109778571D02*
X129436185Y-109749999D01*
X129436185Y-109749999D02*
X129450471Y-109707142D01*
X129450471Y-109707142D02*
X129464757Y-109692856D01*
X129736185Y-109407142D02*
X129736185Y-109578571D01*
X129736185Y-109492856D02*
X129436185Y-109492856D01*
X129436185Y-109492856D02*
X129479042Y-109521428D01*
X129479042Y-109521428D02*
X129507614Y-109549999D01*
X129507614Y-109549999D02*
X129521900Y-109578571D01*
X129436185Y-109135714D02*
X129436185Y-109278571D01*
X129436185Y-109278571D02*
X129579042Y-109292857D01*
X129579042Y-109292857D02*
X129564757Y-109278571D01*
X129564757Y-109278571D02*
X129550471Y-109250000D01*
X129550471Y-109250000D02*
X129550471Y-109178571D01*
X129550471Y-109178571D02*
X129564757Y-109150000D01*
X129564757Y-109150000D02*
X129579042Y-109135714D01*
X129579042Y-109135714D02*
X129607614Y-109121428D01*
X129607614Y-109121428D02*
X129679042Y-109121428D01*
X129679042Y-109121428D02*
X129707614Y-109135714D01*
X129707614Y-109135714D02*
X129721900Y-109150000D01*
X129721900Y-109150000D02*
X129736185Y-109178571D01*
X129736185Y-109178571D02*
X129736185Y-109250000D01*
X129736185Y-109250000D02*
X129721900Y-109278571D01*
X129721900Y-109278571D02*
X129707614Y-109292857D01*
X122707143Y-104607614D02*
X122692857Y-104621900D01*
X122692857Y-104621900D02*
X122650000Y-104636185D01*
X122650000Y-104636185D02*
X122621428Y-104636185D01*
X122621428Y-104636185D02*
X122578571Y-104621900D01*
X122578571Y-104621900D02*
X122550000Y-104593328D01*
X122550000Y-104593328D02*
X122535714Y-104564757D01*
X122535714Y-104564757D02*
X122521428Y-104507614D01*
X122521428Y-104507614D02*
X122521428Y-104464757D01*
X122521428Y-104464757D02*
X122535714Y-104407614D01*
X122535714Y-104407614D02*
X122550000Y-104379042D01*
X122550000Y-104379042D02*
X122578571Y-104350471D01*
X122578571Y-104350471D02*
X122621428Y-104336185D01*
X122621428Y-104336185D02*
X122650000Y-104336185D01*
X122650000Y-104336185D02*
X122692857Y-104350471D01*
X122692857Y-104350471D02*
X122707143Y-104364757D01*
X122821428Y-104364757D02*
X122835714Y-104350471D01*
X122835714Y-104350471D02*
X122864286Y-104336185D01*
X122864286Y-104336185D02*
X122935714Y-104336185D01*
X122935714Y-104336185D02*
X122964286Y-104350471D01*
X122964286Y-104350471D02*
X122978571Y-104364757D01*
X122978571Y-104364757D02*
X122992857Y-104393328D01*
X122992857Y-104393328D02*
X122992857Y-104421900D01*
X122992857Y-104421900D02*
X122978571Y-104464757D01*
X122978571Y-104464757D02*
X122807143Y-104636185D01*
X122807143Y-104636185D02*
X122992857Y-104636185D01*
X123278571Y-104636185D02*
X123107142Y-104636185D01*
X123192857Y-104636185D02*
X123192857Y-104336185D01*
X123192857Y-104336185D02*
X123164285Y-104379042D01*
X123164285Y-104379042D02*
X123135714Y-104407614D01*
X123135714Y-104407614D02*
X123107142Y-104421900D01*
X126492857Y-98236185D02*
X126392857Y-98093328D01*
X126321428Y-98236185D02*
X126321428Y-97936185D01*
X126321428Y-97936185D02*
X126435714Y-97936185D01*
X126435714Y-97936185D02*
X126464285Y-97950471D01*
X126464285Y-97950471D02*
X126478571Y-97964757D01*
X126478571Y-97964757D02*
X126492857Y-97993328D01*
X126492857Y-97993328D02*
X126492857Y-98036185D01*
X126492857Y-98036185D02*
X126478571Y-98064757D01*
X126478571Y-98064757D02*
X126464285Y-98079042D01*
X126464285Y-98079042D02*
X126435714Y-98093328D01*
X126435714Y-98093328D02*
X126321428Y-98093328D01*
X126621428Y-98236185D02*
X126621428Y-97936185D01*
X126621428Y-97936185D02*
X126792857Y-98236185D01*
X126792857Y-98236185D02*
X126792857Y-97936185D01*
X127092857Y-98236185D02*
X126921428Y-98236185D01*
X127007143Y-98236185D02*
X127007143Y-97936185D01*
X127007143Y-97936185D02*
X126978571Y-97979042D01*
X126978571Y-97979042D02*
X126950000Y-98007614D01*
X126950000Y-98007614D02*
X126921428Y-98021900D01*
X134878571Y-97379042D02*
X134778571Y-97379042D01*
X134778571Y-97536185D02*
X134778571Y-97236185D01*
X134778571Y-97236185D02*
X134921428Y-97236185D01*
X135035714Y-97536185D02*
X135035714Y-97236185D01*
X135178571Y-97536185D02*
X135178571Y-97236185D01*
X135178571Y-97236185D02*
X135250000Y-97236185D01*
X135250000Y-97236185D02*
X135292857Y-97250471D01*
X135292857Y-97250471D02*
X135321428Y-97279042D01*
X135321428Y-97279042D02*
X135335714Y-97307614D01*
X135335714Y-97307614D02*
X135350000Y-97364757D01*
X135350000Y-97364757D02*
X135350000Y-97407614D01*
X135350000Y-97407614D02*
X135335714Y-97464757D01*
X135335714Y-97464757D02*
X135321428Y-97493328D01*
X135321428Y-97493328D02*
X135292857Y-97521900D01*
X135292857Y-97521900D02*
X135250000Y-97536185D01*
X135250000Y-97536185D02*
X135178571Y-97536185D01*
X135450000Y-97236185D02*
X135635714Y-97236185D01*
X135635714Y-97236185D02*
X135535714Y-97350471D01*
X135535714Y-97350471D02*
X135578571Y-97350471D01*
X135578571Y-97350471D02*
X135607143Y-97364757D01*
X135607143Y-97364757D02*
X135621428Y-97379042D01*
X135621428Y-97379042D02*
X135635714Y-97407614D01*
X135635714Y-97407614D02*
X135635714Y-97479042D01*
X135635714Y-97479042D02*
X135621428Y-97507614D01*
X135621428Y-97507614D02*
X135607143Y-97521900D01*
X135607143Y-97521900D02*
X135578571Y-97536185D01*
X135578571Y-97536185D02*
X135492857Y-97536185D01*
X135492857Y-97536185D02*
X135464285Y-97521900D01*
X135464285Y-97521900D02*
X135450000Y-97507614D01*
X128707614Y-109692856D02*
X128721900Y-109707142D01*
X128721900Y-109707142D02*
X128736185Y-109749999D01*
X128736185Y-109749999D02*
X128736185Y-109778571D01*
X128736185Y-109778571D02*
X128721900Y-109821428D01*
X128721900Y-109821428D02*
X128693328Y-109849999D01*
X128693328Y-109849999D02*
X128664757Y-109864285D01*
X128664757Y-109864285D02*
X128607614Y-109878571D01*
X128607614Y-109878571D02*
X128564757Y-109878571D01*
X128564757Y-109878571D02*
X128507614Y-109864285D01*
X128507614Y-109864285D02*
X128479042Y-109849999D01*
X128479042Y-109849999D02*
X128450471Y-109821428D01*
X128450471Y-109821428D02*
X128436185Y-109778571D01*
X128436185Y-109778571D02*
X128436185Y-109749999D01*
X128436185Y-109749999D02*
X128450471Y-109707142D01*
X128450471Y-109707142D02*
X128464757Y-109692856D01*
X128464757Y-109578571D02*
X128450471Y-109564285D01*
X128450471Y-109564285D02*
X128436185Y-109535714D01*
X128436185Y-109535714D02*
X128436185Y-109464285D01*
X128436185Y-109464285D02*
X128450471Y-109435714D01*
X128450471Y-109435714D02*
X128464757Y-109421428D01*
X128464757Y-109421428D02*
X128493328Y-109407142D01*
X128493328Y-109407142D02*
X128521900Y-109407142D01*
X128521900Y-109407142D02*
X128564757Y-109421428D01*
X128564757Y-109421428D02*
X128736185Y-109592856D01*
X128736185Y-109592856D02*
X128736185Y-109407142D01*
X128436185Y-109150000D02*
X128436185Y-109207142D01*
X128436185Y-109207142D02*
X128450471Y-109235714D01*
X128450471Y-109235714D02*
X128464757Y-109250000D01*
X128464757Y-109250000D02*
X128507614Y-109278571D01*
X128507614Y-109278571D02*
X128564757Y-109292857D01*
X128564757Y-109292857D02*
X128679042Y-109292857D01*
X128679042Y-109292857D02*
X128707614Y-109278571D01*
X128707614Y-109278571D02*
X128721900Y-109264285D01*
X128721900Y-109264285D02*
X128736185Y-109235714D01*
X128736185Y-109235714D02*
X128736185Y-109178571D01*
X128736185Y-109178571D02*
X128721900Y-109150000D01*
X128721900Y-109150000D02*
X128707614Y-109135714D01*
X128707614Y-109135714D02*
X128679042Y-109121428D01*
X128679042Y-109121428D02*
X128607614Y-109121428D01*
X128607614Y-109121428D02*
X128579042Y-109135714D01*
X128579042Y-109135714D02*
X128564757Y-109150000D01*
X128564757Y-109150000D02*
X128550471Y-109178571D01*
X128550471Y-109178571D02*
X128550471Y-109235714D01*
X128550471Y-109235714D02*
X128564757Y-109264285D01*
X128564757Y-109264285D02*
X128579042Y-109278571D01*
X128579042Y-109278571D02*
X128607614Y-109292857D01*
X115236185Y-101928571D02*
X115479042Y-101928571D01*
X115479042Y-101928571D02*
X115507614Y-101914285D01*
X115507614Y-101914285D02*
X115521900Y-101900000D01*
X115521900Y-101900000D02*
X115536185Y-101871428D01*
X115536185Y-101871428D02*
X115536185Y-101814285D01*
X115536185Y-101814285D02*
X115521900Y-101785714D01*
X115521900Y-101785714D02*
X115507614Y-101771428D01*
X115507614Y-101771428D02*
X115479042Y-101757142D01*
X115479042Y-101757142D02*
X115236185Y-101757142D01*
X115236185Y-101642856D02*
X115236185Y-101457142D01*
X115236185Y-101457142D02*
X115350471Y-101557142D01*
X115350471Y-101557142D02*
X115350471Y-101514285D01*
X115350471Y-101514285D02*
X115364757Y-101485714D01*
X115364757Y-101485714D02*
X115379042Y-101471428D01*
X115379042Y-101471428D02*
X115407614Y-101457142D01*
X115407614Y-101457142D02*
X115479042Y-101457142D01*
X115479042Y-101457142D02*
X115507614Y-101471428D01*
X115507614Y-101471428D02*
X115521900Y-101485714D01*
X115521900Y-101485714D02*
X115536185Y-101514285D01*
X115536185Y-101514285D02*
X115536185Y-101599999D01*
X115536185Y-101599999D02*
X115521900Y-101628571D01*
X115521900Y-101628571D02*
X115507614Y-101642856D01*
X114130000Y-105107614D02*
X114115714Y-105121900D01*
X114115714Y-105121900D02*
X114072857Y-105136185D01*
X114072857Y-105136185D02*
X114044285Y-105136185D01*
X114044285Y-105136185D02*
X114001428Y-105121900D01*
X114001428Y-105121900D02*
X113972857Y-105093328D01*
X113972857Y-105093328D02*
X113958571Y-105064757D01*
X113958571Y-105064757D02*
X113944285Y-105007614D01*
X113944285Y-105007614D02*
X113944285Y-104964757D01*
X113944285Y-104964757D02*
X113958571Y-104907614D01*
X113958571Y-104907614D02*
X113972857Y-104879042D01*
X113972857Y-104879042D02*
X114001428Y-104850471D01*
X114001428Y-104850471D02*
X114044285Y-104836185D01*
X114044285Y-104836185D02*
X114072857Y-104836185D01*
X114072857Y-104836185D02*
X114115714Y-104850471D01*
X114115714Y-104850471D02*
X114130000Y-104864757D01*
X114401428Y-104836185D02*
X114258571Y-104836185D01*
X114258571Y-104836185D02*
X114244285Y-104979042D01*
X114244285Y-104979042D02*
X114258571Y-104964757D01*
X114258571Y-104964757D02*
X114287143Y-104950471D01*
X114287143Y-104950471D02*
X114358571Y-104950471D01*
X114358571Y-104950471D02*
X114387143Y-104964757D01*
X114387143Y-104964757D02*
X114401428Y-104979042D01*
X114401428Y-104979042D02*
X114415714Y-105007614D01*
X114415714Y-105007614D02*
X114415714Y-105079042D01*
X114415714Y-105079042D02*
X114401428Y-105107614D01*
X114401428Y-105107614D02*
X114387143Y-105121900D01*
X114387143Y-105121900D02*
X114358571Y-105136185D01*
X114358571Y-105136185D02*
X114287143Y-105136185D01*
X114287143Y-105136185D02*
X114258571Y-105121900D01*
X114258571Y-105121900D02*
X114244285Y-105107614D01*
X118465000Y-106496185D02*
X118322143Y-106496185D01*
X118322143Y-106496185D02*
X118322143Y-106196185D01*
X118722143Y-106496185D02*
X118550714Y-106496185D01*
X118636429Y-106496185D02*
X118636429Y-106196185D01*
X118636429Y-106196185D02*
X118607857Y-106239042D01*
X118607857Y-106239042D02*
X118579286Y-106267614D01*
X118579286Y-106267614D02*
X118550714Y-106281900D01*
X112136185Y-108949999D02*
X111993328Y-109049999D01*
X112136185Y-109121428D02*
X111836185Y-109121428D01*
X111836185Y-109121428D02*
X111836185Y-109007142D01*
X111836185Y-109007142D02*
X111850471Y-108978571D01*
X111850471Y-108978571D02*
X111864757Y-108964285D01*
X111864757Y-108964285D02*
X111893328Y-108949999D01*
X111893328Y-108949999D02*
X111936185Y-108949999D01*
X111936185Y-108949999D02*
X111964757Y-108964285D01*
X111964757Y-108964285D02*
X111979042Y-108978571D01*
X111979042Y-108978571D02*
X111993328Y-109007142D01*
X111993328Y-109007142D02*
X111993328Y-109121428D01*
X111864757Y-108835714D02*
X111850471Y-108821428D01*
X111850471Y-108821428D02*
X111836185Y-108792857D01*
X111836185Y-108792857D02*
X111836185Y-108721428D01*
X111836185Y-108721428D02*
X111850471Y-108692857D01*
X111850471Y-108692857D02*
X111864757Y-108678571D01*
X111864757Y-108678571D02*
X111893328Y-108664285D01*
X111893328Y-108664285D02*
X111921900Y-108664285D01*
X111921900Y-108664285D02*
X111964757Y-108678571D01*
X111964757Y-108678571D02*
X112136185Y-108849999D01*
X112136185Y-108849999D02*
X112136185Y-108664285D01*
X129092857Y-98236185D02*
X128992857Y-98093328D01*
X128921428Y-98236185D02*
X128921428Y-97936185D01*
X128921428Y-97936185D02*
X129035714Y-97936185D01*
X129035714Y-97936185D02*
X129064285Y-97950471D01*
X129064285Y-97950471D02*
X129078571Y-97964757D01*
X129078571Y-97964757D02*
X129092857Y-97993328D01*
X129092857Y-97993328D02*
X129092857Y-98036185D01*
X129092857Y-98036185D02*
X129078571Y-98064757D01*
X129078571Y-98064757D02*
X129064285Y-98079042D01*
X129064285Y-98079042D02*
X129035714Y-98093328D01*
X129035714Y-98093328D02*
X128921428Y-98093328D01*
X129221428Y-98236185D02*
X129221428Y-97936185D01*
X129221428Y-97936185D02*
X129392857Y-98236185D01*
X129392857Y-98236185D02*
X129392857Y-97936185D01*
X129521428Y-97964757D02*
X129535714Y-97950471D01*
X129535714Y-97950471D02*
X129564286Y-97936185D01*
X129564286Y-97936185D02*
X129635714Y-97936185D01*
X129635714Y-97936185D02*
X129664286Y-97950471D01*
X129664286Y-97950471D02*
X129678571Y-97964757D01*
X129678571Y-97964757D02*
X129692857Y-97993328D01*
X129692857Y-97993328D02*
X129692857Y-98021900D01*
X129692857Y-98021900D02*
X129678571Y-98064757D01*
X129678571Y-98064757D02*
X129507143Y-98236185D01*
X129507143Y-98236185D02*
X129692857Y-98236185D01*
X113530000Y-109636185D02*
X113430000Y-109493328D01*
X113358571Y-109636185D02*
X113358571Y-109336185D01*
X113358571Y-109336185D02*
X113472857Y-109336185D01*
X113472857Y-109336185D02*
X113501428Y-109350471D01*
X113501428Y-109350471D02*
X113515714Y-109364757D01*
X113515714Y-109364757D02*
X113530000Y-109393328D01*
X113530000Y-109393328D02*
X113530000Y-109436185D01*
X113530000Y-109436185D02*
X113515714Y-109464757D01*
X113515714Y-109464757D02*
X113501428Y-109479042D01*
X113501428Y-109479042D02*
X113472857Y-109493328D01*
X113472857Y-109493328D02*
X113358571Y-109493328D01*
X113815714Y-109636185D02*
X113644285Y-109636185D01*
X113730000Y-109636185D02*
X113730000Y-109336185D01*
X113730000Y-109336185D02*
X113701428Y-109379042D01*
X113701428Y-109379042D02*
X113672857Y-109407614D01*
X113672857Y-109407614D02*
X113644285Y-109421900D01*
X114350000Y-104136185D02*
X114250000Y-103993328D01*
X114178571Y-104136185D02*
X114178571Y-103836185D01*
X114178571Y-103836185D02*
X114292857Y-103836185D01*
X114292857Y-103836185D02*
X114321428Y-103850471D01*
X114321428Y-103850471D02*
X114335714Y-103864757D01*
X114335714Y-103864757D02*
X114350000Y-103893328D01*
X114350000Y-103893328D02*
X114350000Y-103936185D01*
X114350000Y-103936185D02*
X114335714Y-103964757D01*
X114335714Y-103964757D02*
X114321428Y-103979042D01*
X114321428Y-103979042D02*
X114292857Y-103993328D01*
X114292857Y-103993328D02*
X114178571Y-103993328D01*
X114607143Y-103936185D02*
X114607143Y-104136185D01*
X114535714Y-103821900D02*
X114464285Y-104036185D01*
X114464285Y-104036185D02*
X114650000Y-104036185D01*
X122221900Y-108999999D02*
X122236185Y-108957142D01*
X122236185Y-108957142D02*
X122236185Y-108885713D01*
X122236185Y-108885713D02*
X122221900Y-108857142D01*
X122221900Y-108857142D02*
X122207614Y-108842856D01*
X122207614Y-108842856D02*
X122179042Y-108828570D01*
X122179042Y-108828570D02*
X122150471Y-108828570D01*
X122150471Y-108828570D02*
X122121900Y-108842856D01*
X122121900Y-108842856D02*
X122107614Y-108857142D01*
X122107614Y-108857142D02*
X122093328Y-108885713D01*
X122093328Y-108885713D02*
X122079042Y-108942856D01*
X122079042Y-108942856D02*
X122064757Y-108971427D01*
X122064757Y-108971427D02*
X122050471Y-108985713D01*
X122050471Y-108985713D02*
X122021900Y-108999999D01*
X122021900Y-108999999D02*
X121993328Y-108999999D01*
X121993328Y-108999999D02*
X121964757Y-108985713D01*
X121964757Y-108985713D02*
X121950471Y-108971427D01*
X121950471Y-108971427D02*
X121936185Y-108942856D01*
X121936185Y-108942856D02*
X121936185Y-108871427D01*
X121936185Y-108871427D02*
X121950471Y-108828570D01*
X121936185Y-108728570D02*
X122236185Y-108657142D01*
X122236185Y-108657142D02*
X122021900Y-108599999D01*
X122021900Y-108599999D02*
X122236185Y-108542856D01*
X122236185Y-108542856D02*
X121936185Y-108471428D01*
X122236185Y-108199999D02*
X122236185Y-108371428D01*
X122236185Y-108285713D02*
X121936185Y-108285713D01*
X121936185Y-108285713D02*
X121979042Y-108314285D01*
X121979042Y-108314285D02*
X122007614Y-108342856D01*
X122007614Y-108342856D02*
X122021900Y-108371428D01*
X133932143Y-105307614D02*
X133917857Y-105321900D01*
X133917857Y-105321900D02*
X133875000Y-105336185D01*
X133875000Y-105336185D02*
X133846428Y-105336185D01*
X133846428Y-105336185D02*
X133803571Y-105321900D01*
X133803571Y-105321900D02*
X133775000Y-105293328D01*
X133775000Y-105293328D02*
X133760714Y-105264757D01*
X133760714Y-105264757D02*
X133746428Y-105207614D01*
X133746428Y-105207614D02*
X133746428Y-105164757D01*
X133746428Y-105164757D02*
X133760714Y-105107614D01*
X133760714Y-105107614D02*
X133775000Y-105079042D01*
X133775000Y-105079042D02*
X133803571Y-105050471D01*
X133803571Y-105050471D02*
X133846428Y-105036185D01*
X133846428Y-105036185D02*
X133875000Y-105036185D01*
X133875000Y-105036185D02*
X133917857Y-105050471D01*
X133917857Y-105050471D02*
X133932143Y-105064757D01*
X134046428Y-105064757D02*
X134060714Y-105050471D01*
X134060714Y-105050471D02*
X134089286Y-105036185D01*
X134089286Y-105036185D02*
X134160714Y-105036185D01*
X134160714Y-105036185D02*
X134189286Y-105050471D01*
X134189286Y-105050471D02*
X134203571Y-105064757D01*
X134203571Y-105064757D02*
X134217857Y-105093328D01*
X134217857Y-105093328D02*
X134217857Y-105121900D01*
X134217857Y-105121900D02*
X134203571Y-105164757D01*
X134203571Y-105164757D02*
X134032143Y-105336185D01*
X134032143Y-105336185D02*
X134217857Y-105336185D01*
X134317857Y-105036185D02*
X134517857Y-105036185D01*
X134517857Y-105036185D02*
X134389285Y-105336185D01*
X122707143Y-103607614D02*
X122692857Y-103621900D01*
X122692857Y-103621900D02*
X122650000Y-103636185D01*
X122650000Y-103636185D02*
X122621428Y-103636185D01*
X122621428Y-103636185D02*
X122578571Y-103621900D01*
X122578571Y-103621900D02*
X122550000Y-103593328D01*
X122550000Y-103593328D02*
X122535714Y-103564757D01*
X122535714Y-103564757D02*
X122521428Y-103507614D01*
X122521428Y-103507614D02*
X122521428Y-103464757D01*
X122521428Y-103464757D02*
X122535714Y-103407614D01*
X122535714Y-103407614D02*
X122550000Y-103379042D01*
X122550000Y-103379042D02*
X122578571Y-103350471D01*
X122578571Y-103350471D02*
X122621428Y-103336185D01*
X122621428Y-103336185D02*
X122650000Y-103336185D01*
X122650000Y-103336185D02*
X122692857Y-103350471D01*
X122692857Y-103350471D02*
X122707143Y-103364757D01*
X122821428Y-103364757D02*
X122835714Y-103350471D01*
X122835714Y-103350471D02*
X122864286Y-103336185D01*
X122864286Y-103336185D02*
X122935714Y-103336185D01*
X122935714Y-103336185D02*
X122964286Y-103350471D01*
X122964286Y-103350471D02*
X122978571Y-103364757D01*
X122978571Y-103364757D02*
X122992857Y-103393328D01*
X122992857Y-103393328D02*
X122992857Y-103421900D01*
X122992857Y-103421900D02*
X122978571Y-103464757D01*
X122978571Y-103464757D02*
X122807143Y-103636185D01*
X122807143Y-103636185D02*
X122992857Y-103636185D01*
X123092857Y-103336185D02*
X123278571Y-103336185D01*
X123278571Y-103336185D02*
X123178571Y-103450471D01*
X123178571Y-103450471D02*
X123221428Y-103450471D01*
X123221428Y-103450471D02*
X123250000Y-103464757D01*
X123250000Y-103464757D02*
X123264285Y-103479042D01*
X123264285Y-103479042D02*
X123278571Y-103507614D01*
X123278571Y-103507614D02*
X123278571Y-103579042D01*
X123278571Y-103579042D02*
X123264285Y-103607614D01*
X123264285Y-103607614D02*
X123250000Y-103621900D01*
X123250000Y-103621900D02*
X123221428Y-103636185D01*
X123221428Y-103636185D02*
X123135714Y-103636185D01*
X123135714Y-103636185D02*
X123107142Y-103621900D01*
X123107142Y-103621900D02*
X123092857Y-103607614D01*
X119027143Y-102107614D02*
X119012857Y-102121900D01*
X119012857Y-102121900D02*
X118970000Y-102136185D01*
X118970000Y-102136185D02*
X118941428Y-102136185D01*
X118941428Y-102136185D02*
X118898571Y-102121900D01*
X118898571Y-102121900D02*
X118870000Y-102093328D01*
X118870000Y-102093328D02*
X118855714Y-102064757D01*
X118855714Y-102064757D02*
X118841428Y-102007614D01*
X118841428Y-102007614D02*
X118841428Y-101964757D01*
X118841428Y-101964757D02*
X118855714Y-101907614D01*
X118855714Y-101907614D02*
X118870000Y-101879042D01*
X118870000Y-101879042D02*
X118898571Y-101850471D01*
X118898571Y-101850471D02*
X118941428Y-101836185D01*
X118941428Y-101836185D02*
X118970000Y-101836185D01*
X118970000Y-101836185D02*
X119012857Y-101850471D01*
X119012857Y-101850471D02*
X119027143Y-101864757D01*
X119312857Y-102136185D02*
X119141428Y-102136185D01*
X119227143Y-102136185D02*
X119227143Y-101836185D01*
X119227143Y-101836185D02*
X119198571Y-101879042D01*
X119198571Y-101879042D02*
X119170000Y-101907614D01*
X119170000Y-101907614D02*
X119141428Y-101921900D01*
X119598571Y-102136185D02*
X119427142Y-102136185D01*
X119512857Y-102136185D02*
X119512857Y-101836185D01*
X119512857Y-101836185D02*
X119484285Y-101879042D01*
X119484285Y-101879042D02*
X119455714Y-101907614D01*
X119455714Y-101907614D02*
X119427142Y-101921900D01*
X119250000Y-99836185D02*
X119107143Y-99836185D01*
X119107143Y-99836185D02*
X119107143Y-99536185D01*
X119335714Y-99564757D02*
X119350000Y-99550471D01*
X119350000Y-99550471D02*
X119378572Y-99536185D01*
X119378572Y-99536185D02*
X119450000Y-99536185D01*
X119450000Y-99536185D02*
X119478572Y-99550471D01*
X119478572Y-99550471D02*
X119492857Y-99564757D01*
X119492857Y-99564757D02*
X119507143Y-99593328D01*
X119507143Y-99593328D02*
X119507143Y-99621900D01*
X119507143Y-99621900D02*
X119492857Y-99664757D01*
X119492857Y-99664757D02*
X119321429Y-99836185D01*
X119321429Y-99836185D02*
X119507143Y-99836185D01*
X134927143Y-109763328D02*
X134927143Y-109906185D01*
X134827143Y-109606185D02*
X134927143Y-109763328D01*
X134927143Y-109763328D02*
X135027143Y-109606185D01*
X135112857Y-109634757D02*
X135127143Y-109620471D01*
X135127143Y-109620471D02*
X135155715Y-109606185D01*
X135155715Y-109606185D02*
X135227143Y-109606185D01*
X135227143Y-109606185D02*
X135255715Y-109620471D01*
X135255715Y-109620471D02*
X135270000Y-109634757D01*
X135270000Y-109634757D02*
X135284286Y-109663328D01*
X135284286Y-109663328D02*
X135284286Y-109691900D01*
X135284286Y-109691900D02*
X135270000Y-109734757D01*
X135270000Y-109734757D02*
X135098572Y-109906185D01*
X135098572Y-109906185D02*
X135284286Y-109906185D01*
X118930000Y-108807614D02*
X118915714Y-108821900D01*
X118915714Y-108821900D02*
X118872857Y-108836185D01*
X118872857Y-108836185D02*
X118844285Y-108836185D01*
X118844285Y-108836185D02*
X118801428Y-108821900D01*
X118801428Y-108821900D02*
X118772857Y-108793328D01*
X118772857Y-108793328D02*
X118758571Y-108764757D01*
X118758571Y-108764757D02*
X118744285Y-108707614D01*
X118744285Y-108707614D02*
X118744285Y-108664757D01*
X118744285Y-108664757D02*
X118758571Y-108607614D01*
X118758571Y-108607614D02*
X118772857Y-108579042D01*
X118772857Y-108579042D02*
X118801428Y-108550471D01*
X118801428Y-108550471D02*
X118844285Y-108536185D01*
X118844285Y-108536185D02*
X118872857Y-108536185D01*
X118872857Y-108536185D02*
X118915714Y-108550471D01*
X118915714Y-108550471D02*
X118930000Y-108564757D01*
X119030000Y-108536185D02*
X119230000Y-108536185D01*
X119230000Y-108536185D02*
X119101428Y-108836185D01*
X115178571Y-110779042D02*
X115078571Y-110779042D01*
X115078571Y-110936185D02*
X115078571Y-110636185D01*
X115078571Y-110636185D02*
X115221428Y-110636185D01*
X115335714Y-110936185D02*
X115335714Y-110636185D01*
X115478571Y-110936185D02*
X115478571Y-110636185D01*
X115478571Y-110636185D02*
X115550000Y-110636185D01*
X115550000Y-110636185D02*
X115592857Y-110650471D01*
X115592857Y-110650471D02*
X115621428Y-110679042D01*
X115621428Y-110679042D02*
X115635714Y-110707614D01*
X115635714Y-110707614D02*
X115650000Y-110764757D01*
X115650000Y-110764757D02*
X115650000Y-110807614D01*
X115650000Y-110807614D02*
X115635714Y-110864757D01*
X115635714Y-110864757D02*
X115621428Y-110893328D01*
X115621428Y-110893328D02*
X115592857Y-110921900D01*
X115592857Y-110921900D02*
X115550000Y-110936185D01*
X115550000Y-110936185D02*
X115478571Y-110936185D01*
X115764285Y-110664757D02*
X115778571Y-110650471D01*
X115778571Y-110650471D02*
X115807143Y-110636185D01*
X115807143Y-110636185D02*
X115878571Y-110636185D01*
X115878571Y-110636185D02*
X115907143Y-110650471D01*
X115907143Y-110650471D02*
X115921428Y-110664757D01*
X115921428Y-110664757D02*
X115935714Y-110693328D01*
X115935714Y-110693328D02*
X115935714Y-110721900D01*
X115935714Y-110721900D02*
X115921428Y-110764757D01*
X115921428Y-110764757D02*
X115750000Y-110936185D01*
X115750000Y-110936185D02*
X115935714Y-110936185D01*
X114670000Y-99507614D02*
X114655714Y-99521900D01*
X114655714Y-99521900D02*
X114612857Y-99536185D01*
X114612857Y-99536185D02*
X114584285Y-99536185D01*
X114584285Y-99536185D02*
X114541428Y-99521900D01*
X114541428Y-99521900D02*
X114512857Y-99493328D01*
X114512857Y-99493328D02*
X114498571Y-99464757D01*
X114498571Y-99464757D02*
X114484285Y-99407614D01*
X114484285Y-99407614D02*
X114484285Y-99364757D01*
X114484285Y-99364757D02*
X114498571Y-99307614D01*
X114498571Y-99307614D02*
X114512857Y-99279042D01*
X114512857Y-99279042D02*
X114541428Y-99250471D01*
X114541428Y-99250471D02*
X114584285Y-99236185D01*
X114584285Y-99236185D02*
X114612857Y-99236185D01*
X114612857Y-99236185D02*
X114655714Y-99250471D01*
X114655714Y-99250471D02*
X114670000Y-99264757D01*
X114770000Y-99236185D02*
X114955714Y-99236185D01*
X114955714Y-99236185D02*
X114855714Y-99350471D01*
X114855714Y-99350471D02*
X114898571Y-99350471D01*
X114898571Y-99350471D02*
X114927143Y-99364757D01*
X114927143Y-99364757D02*
X114941428Y-99379042D01*
X114941428Y-99379042D02*
X114955714Y-99407614D01*
X114955714Y-99407614D02*
X114955714Y-99479042D01*
X114955714Y-99479042D02*
X114941428Y-99507614D01*
X114941428Y-99507614D02*
X114927143Y-99521900D01*
X114927143Y-99521900D02*
X114898571Y-99536185D01*
X114898571Y-99536185D02*
X114812857Y-99536185D01*
X114812857Y-99536185D02*
X114784285Y-99521900D01*
X114784285Y-99521900D02*
X114770000Y-99507614D01*
X114670000Y-98507614D02*
X114655714Y-98521900D01*
X114655714Y-98521900D02*
X114612857Y-98536185D01*
X114612857Y-98536185D02*
X114584285Y-98536185D01*
X114584285Y-98536185D02*
X114541428Y-98521900D01*
X114541428Y-98521900D02*
X114512857Y-98493328D01*
X114512857Y-98493328D02*
X114498571Y-98464757D01*
X114498571Y-98464757D02*
X114484285Y-98407614D01*
X114484285Y-98407614D02*
X114484285Y-98364757D01*
X114484285Y-98364757D02*
X114498571Y-98307614D01*
X114498571Y-98307614D02*
X114512857Y-98279042D01*
X114512857Y-98279042D02*
X114541428Y-98250471D01*
X114541428Y-98250471D02*
X114584285Y-98236185D01*
X114584285Y-98236185D02*
X114612857Y-98236185D01*
X114612857Y-98236185D02*
X114655714Y-98250471D01*
X114655714Y-98250471D02*
X114670000Y-98264757D01*
X114784285Y-98264757D02*
X114798571Y-98250471D01*
X114798571Y-98250471D02*
X114827143Y-98236185D01*
X114827143Y-98236185D02*
X114898571Y-98236185D01*
X114898571Y-98236185D02*
X114927143Y-98250471D01*
X114927143Y-98250471D02*
X114941428Y-98264757D01*
X114941428Y-98264757D02*
X114955714Y-98293328D01*
X114955714Y-98293328D02*
X114955714Y-98321900D01*
X114955714Y-98321900D02*
X114941428Y-98364757D01*
X114941428Y-98364757D02*
X114770000Y-98536185D01*
X114770000Y-98536185D02*
X114955714Y-98536185D01*
X113347614Y-98949999D02*
X113361900Y-98964285D01*
X113361900Y-98964285D02*
X113376185Y-99007142D01*
X113376185Y-99007142D02*
X113376185Y-99035714D01*
X113376185Y-99035714D02*
X113361900Y-99078571D01*
X113361900Y-99078571D02*
X113333328Y-99107142D01*
X113333328Y-99107142D02*
X113304757Y-99121428D01*
X113304757Y-99121428D02*
X113247614Y-99135714D01*
X113247614Y-99135714D02*
X113204757Y-99135714D01*
X113204757Y-99135714D02*
X113147614Y-99121428D01*
X113147614Y-99121428D02*
X113119042Y-99107142D01*
X113119042Y-99107142D02*
X113090471Y-99078571D01*
X113090471Y-99078571D02*
X113076185Y-99035714D01*
X113076185Y-99035714D02*
X113076185Y-99007142D01*
X113076185Y-99007142D02*
X113090471Y-98964285D01*
X113090471Y-98964285D02*
X113104757Y-98949999D01*
X113376185Y-98664285D02*
X113376185Y-98835714D01*
X113376185Y-98749999D02*
X113076185Y-98749999D01*
X113076185Y-98749999D02*
X113119042Y-98778571D01*
X113119042Y-98778571D02*
X113147614Y-98807142D01*
X113147614Y-98807142D02*
X113161900Y-98835714D01*
X122707143Y-102607614D02*
X122692857Y-102621900D01*
X122692857Y-102621900D02*
X122650000Y-102636185D01*
X122650000Y-102636185D02*
X122621428Y-102636185D01*
X122621428Y-102636185D02*
X122578571Y-102621900D01*
X122578571Y-102621900D02*
X122550000Y-102593328D01*
X122550000Y-102593328D02*
X122535714Y-102564757D01*
X122535714Y-102564757D02*
X122521428Y-102507614D01*
X122521428Y-102507614D02*
X122521428Y-102464757D01*
X122521428Y-102464757D02*
X122535714Y-102407614D01*
X122535714Y-102407614D02*
X122550000Y-102379042D01*
X122550000Y-102379042D02*
X122578571Y-102350471D01*
X122578571Y-102350471D02*
X122621428Y-102336185D01*
X122621428Y-102336185D02*
X122650000Y-102336185D01*
X122650000Y-102336185D02*
X122692857Y-102350471D01*
X122692857Y-102350471D02*
X122707143Y-102364757D01*
X122992857Y-102636185D02*
X122821428Y-102636185D01*
X122907143Y-102636185D02*
X122907143Y-102336185D01*
X122907143Y-102336185D02*
X122878571Y-102379042D01*
X122878571Y-102379042D02*
X122850000Y-102407614D01*
X122850000Y-102407614D02*
X122821428Y-102421900D01*
X123092857Y-102336185D02*
X123292857Y-102336185D01*
X123292857Y-102336185D02*
X123164285Y-102636185D01*
X118787143Y-109807614D02*
X118772857Y-109821900D01*
X118772857Y-109821900D02*
X118730000Y-109836185D01*
X118730000Y-109836185D02*
X118701428Y-109836185D01*
X118701428Y-109836185D02*
X118658571Y-109821900D01*
X118658571Y-109821900D02*
X118630000Y-109793328D01*
X118630000Y-109793328D02*
X118615714Y-109764757D01*
X118615714Y-109764757D02*
X118601428Y-109707614D01*
X118601428Y-109707614D02*
X118601428Y-109664757D01*
X118601428Y-109664757D02*
X118615714Y-109607614D01*
X118615714Y-109607614D02*
X118630000Y-109579042D01*
X118630000Y-109579042D02*
X118658571Y-109550471D01*
X118658571Y-109550471D02*
X118701428Y-109536185D01*
X118701428Y-109536185D02*
X118730000Y-109536185D01*
X118730000Y-109536185D02*
X118772857Y-109550471D01*
X118772857Y-109550471D02*
X118787143Y-109564757D01*
X119072857Y-109836185D02*
X118901428Y-109836185D01*
X118987143Y-109836185D02*
X118987143Y-109536185D01*
X118987143Y-109536185D02*
X118958571Y-109579042D01*
X118958571Y-109579042D02*
X118930000Y-109607614D01*
X118930000Y-109607614D02*
X118901428Y-109621900D01*
X119187142Y-109564757D02*
X119201428Y-109550471D01*
X119201428Y-109550471D02*
X119230000Y-109536185D01*
X119230000Y-109536185D02*
X119301428Y-109536185D01*
X119301428Y-109536185D02*
X119330000Y-109550471D01*
X119330000Y-109550471D02*
X119344285Y-109564757D01*
X119344285Y-109564757D02*
X119358571Y-109593328D01*
X119358571Y-109593328D02*
X119358571Y-109621900D01*
X119358571Y-109621900D02*
X119344285Y-109664757D01*
X119344285Y-109664757D02*
X119172857Y-109836185D01*
X119172857Y-109836185D02*
X119358571Y-109836185D01*
X132607614Y-109792856D02*
X132621900Y-109807142D01*
X132621900Y-109807142D02*
X132636185Y-109849999D01*
X132636185Y-109849999D02*
X132636185Y-109878571D01*
X132636185Y-109878571D02*
X132621900Y-109921428D01*
X132621900Y-109921428D02*
X132593328Y-109949999D01*
X132593328Y-109949999D02*
X132564757Y-109964285D01*
X132564757Y-109964285D02*
X132507614Y-109978571D01*
X132507614Y-109978571D02*
X132464757Y-109978571D01*
X132464757Y-109978571D02*
X132407614Y-109964285D01*
X132407614Y-109964285D02*
X132379042Y-109949999D01*
X132379042Y-109949999D02*
X132350471Y-109921428D01*
X132350471Y-109921428D02*
X132336185Y-109878571D01*
X132336185Y-109878571D02*
X132336185Y-109849999D01*
X132336185Y-109849999D02*
X132350471Y-109807142D01*
X132350471Y-109807142D02*
X132364757Y-109792856D01*
X132364757Y-109678571D02*
X132350471Y-109664285D01*
X132350471Y-109664285D02*
X132336185Y-109635714D01*
X132336185Y-109635714D02*
X132336185Y-109564285D01*
X132336185Y-109564285D02*
X132350471Y-109535714D01*
X132350471Y-109535714D02*
X132364757Y-109521428D01*
X132364757Y-109521428D02*
X132393328Y-109507142D01*
X132393328Y-109507142D02*
X132421900Y-109507142D01*
X132421900Y-109507142D02*
X132464757Y-109521428D01*
X132464757Y-109521428D02*
X132636185Y-109692856D01*
X132636185Y-109692856D02*
X132636185Y-109507142D01*
X132336185Y-109321428D02*
X132336185Y-109292857D01*
X132336185Y-109292857D02*
X132350471Y-109264285D01*
X132350471Y-109264285D02*
X132364757Y-109250000D01*
X132364757Y-109250000D02*
X132393328Y-109235714D01*
X132393328Y-109235714D02*
X132450471Y-109221428D01*
X132450471Y-109221428D02*
X132521900Y-109221428D01*
X132521900Y-109221428D02*
X132579042Y-109235714D01*
X132579042Y-109235714D02*
X132607614Y-109250000D01*
X132607614Y-109250000D02*
X132621900Y-109264285D01*
X132621900Y-109264285D02*
X132636185Y-109292857D01*
X132636185Y-109292857D02*
X132636185Y-109321428D01*
X132636185Y-109321428D02*
X132621900Y-109350000D01*
X132621900Y-109350000D02*
X132607614Y-109364285D01*
X132607614Y-109364285D02*
X132579042Y-109378571D01*
X132579042Y-109378571D02*
X132521900Y-109392857D01*
X132521900Y-109392857D02*
X132450471Y-109392857D01*
X132450471Y-109392857D02*
X132393328Y-109378571D01*
X132393328Y-109378571D02*
X132364757Y-109364285D01*
X132364757Y-109364285D02*
X132350471Y-109350000D01*
X132350471Y-109350000D02*
X132336185Y-109321428D01*
X128293928Y-103776185D02*
X128293928Y-104019042D01*
X128293928Y-104019042D02*
X128308214Y-104047614D01*
X128308214Y-104047614D02*
X128322500Y-104061900D01*
X128322500Y-104061900D02*
X128351071Y-104076185D01*
X128351071Y-104076185D02*
X128408214Y-104076185D01*
X128408214Y-104076185D02*
X128436785Y-104061900D01*
X128436785Y-104061900D02*
X128451071Y-104047614D01*
X128451071Y-104047614D02*
X128465357Y-104019042D01*
X128465357Y-104019042D02*
X128465357Y-103776185D01*
X128765357Y-104076185D02*
X128593928Y-104076185D01*
X128679643Y-104076185D02*
X128679643Y-103776185D01*
X128679643Y-103776185D02*
X128651071Y-103819042D01*
X128651071Y-103819042D02*
X128622500Y-103847614D01*
X128622500Y-103847614D02*
X128593928Y-103861900D01*
D11*
X137229819Y-105866666D02*
X137229819Y-105295238D01*
X138229819Y-105580952D02*
X137229819Y-105580952D01*
X138229819Y-104961904D02*
X137229819Y-104961904D01*
X137229819Y-104961904D02*
X137229819Y-104580952D01*
X137229819Y-104580952D02*
X137277438Y-104485714D01*
X137277438Y-104485714D02*
X137325057Y-104438095D01*
X137325057Y-104438095D02*
X137420295Y-104390476D01*
X137420295Y-104390476D02*
X137563152Y-104390476D01*
X137563152Y-104390476D02*
X137658390Y-104438095D01*
X137658390Y-104438095D02*
X137706009Y-104485714D01*
X137706009Y-104485714D02*
X137753628Y-104580952D01*
X137753628Y-104580952D02*
X137753628Y-104961904D01*
X138229819Y-103961904D02*
X137229819Y-103961904D01*
X137229819Y-103961904D02*
X137229819Y-103723809D01*
X137229819Y-103723809D02*
X137277438Y-103580952D01*
X137277438Y-103580952D02*
X137372676Y-103485714D01*
X137372676Y-103485714D02*
X137467914Y-103438095D01*
X137467914Y-103438095D02*
X137658390Y-103390476D01*
X137658390Y-103390476D02*
X137801247Y-103390476D01*
X137801247Y-103390476D02*
X137991723Y-103438095D01*
X137991723Y-103438095D02*
X138086961Y-103485714D01*
X138086961Y-103485714D02*
X138182200Y-103580952D01*
X138182200Y-103580952D02*
X138229819Y-103723809D01*
X138229819Y-103723809D02*
X138229819Y-103961904D01*
X137325057Y-103009523D02*
X137277438Y-102961904D01*
X137277438Y-102961904D02*
X137229819Y-102866666D01*
X137229819Y-102866666D02*
X137229819Y-102628571D01*
X137229819Y-102628571D02*
X137277438Y-102533333D01*
X137277438Y-102533333D02*
X137325057Y-102485714D01*
X137325057Y-102485714D02*
X137420295Y-102438095D01*
X137420295Y-102438095D02*
X137515533Y-102438095D01*
X137515533Y-102438095D02*
X137658390Y-102485714D01*
X137658390Y-102485714D02*
X138229819Y-103057142D01*
X138229819Y-103057142D02*
X138229819Y-102438095D01*
X137706009Y-102009523D02*
X137706009Y-101676190D01*
X138229819Y-101533333D02*
X138229819Y-102009523D01*
X138229819Y-102009523D02*
X137229819Y-102009523D01*
X137229819Y-102009523D02*
X137229819Y-101533333D01*
X137229819Y-101104761D02*
X138039342Y-101104761D01*
X138039342Y-101104761D02*
X138134580Y-101057142D01*
X138134580Y-101057142D02*
X138182200Y-101009523D01*
X138182200Y-101009523D02*
X138229819Y-100914285D01*
X138229819Y-100914285D02*
X138229819Y-100723809D01*
X138229819Y-100723809D02*
X138182200Y-100628571D01*
X138182200Y-100628571D02*
X138134580Y-100580952D01*
X138134580Y-100580952D02*
X138039342Y-100533333D01*
X138039342Y-100533333D02*
X137229819Y-100533333D01*
X138182200Y-100104761D02*
X138229819Y-99961904D01*
X138229819Y-99961904D02*
X138229819Y-99723809D01*
X138229819Y-99723809D02*
X138182200Y-99628571D01*
X138182200Y-99628571D02*
X138134580Y-99580952D01*
X138134580Y-99580952D02*
X138039342Y-99533333D01*
X138039342Y-99533333D02*
X137944104Y-99533333D01*
X137944104Y-99533333D02*
X137848866Y-99580952D01*
X137848866Y-99580952D02*
X137801247Y-99628571D01*
X137801247Y-99628571D02*
X137753628Y-99723809D01*
X137753628Y-99723809D02*
X137706009Y-99914285D01*
X137706009Y-99914285D02*
X137658390Y-100009523D01*
X137658390Y-100009523D02*
X137610771Y-100057142D01*
X137610771Y-100057142D02*
X137515533Y-100104761D01*
X137515533Y-100104761D02*
X137420295Y-100104761D01*
X137420295Y-100104761D02*
X137325057Y-100057142D01*
X137325057Y-100057142D02*
X137277438Y-100009523D01*
X137277438Y-100009523D02*
X137229819Y-99914285D01*
X137229819Y-99914285D02*
X137229819Y-99676190D01*
X137229819Y-99676190D02*
X137277438Y-99533333D01*
X137706009Y-98771428D02*
X137753628Y-98628571D01*
X137753628Y-98628571D02*
X137801247Y-98580952D01*
X137801247Y-98580952D02*
X137896485Y-98533333D01*
X137896485Y-98533333D02*
X138039342Y-98533333D01*
X138039342Y-98533333D02*
X138134580Y-98580952D01*
X138134580Y-98580952D02*
X138182200Y-98628571D01*
X138182200Y-98628571D02*
X138229819Y-98723809D01*
X138229819Y-98723809D02*
X138229819Y-99104761D01*
X138229819Y-99104761D02*
X137229819Y-99104761D01*
X137229819Y-99104761D02*
X137229819Y-98771428D01*
X137229819Y-98771428D02*
X137277438Y-98676190D01*
X137277438Y-98676190D02*
X137325057Y-98628571D01*
X137325057Y-98628571D02*
X137420295Y-98580952D01*
X137420295Y-98580952D02*
X137515533Y-98580952D01*
X137515533Y-98580952D02*
X137610771Y-98628571D01*
X137610771Y-98628571D02*
X137658390Y-98676190D01*
X137658390Y-98676190D02*
X137706009Y-98771428D01*
X137706009Y-98771428D02*
X137706009Y-99104761D01*
X137229819Y-98199999D02*
X137229819Y-97580952D01*
X137229819Y-97580952D02*
X137610771Y-97914285D01*
X137610771Y-97914285D02*
X137610771Y-97771428D01*
X137610771Y-97771428D02*
X137658390Y-97676190D01*
X137658390Y-97676190D02*
X137706009Y-97628571D01*
X137706009Y-97628571D02*
X137801247Y-97580952D01*
X137801247Y-97580952D02*
X138039342Y-97580952D01*
X138039342Y-97580952D02*
X138134580Y-97628571D01*
X138134580Y-97628571D02*
X138182200Y-97676190D01*
X138182200Y-97676190D02*
X138229819Y-97771428D01*
X138229819Y-97771428D02*
X138229819Y-98057142D01*
X138229819Y-98057142D02*
X138182200Y-98152380D01*
X138182200Y-98152380D02*
X138134580Y-98199999D01*
X137229819Y-96961904D02*
X137229819Y-96866666D01*
X137229819Y-96866666D02*
X137277438Y-96771428D01*
X137277438Y-96771428D02*
X137325057Y-96723809D01*
X137325057Y-96723809D02*
X137420295Y-96676190D01*
X137420295Y-96676190D02*
X137610771Y-96628571D01*
X137610771Y-96628571D02*
X137848866Y-96628571D01*
X137848866Y-96628571D02*
X138039342Y-96676190D01*
X138039342Y-96676190D02*
X138134580Y-96723809D01*
X138134580Y-96723809D02*
X138182200Y-96771428D01*
X138182200Y-96771428D02*
X138229819Y-96866666D01*
X138229819Y-96866666D02*
X138229819Y-96961904D01*
X138229819Y-96961904D02*
X138182200Y-97057142D01*
X138182200Y-97057142D02*
X138134580Y-97104761D01*
X138134580Y-97104761D02*
X138039342Y-97152380D01*
X138039342Y-97152380D02*
X137848866Y-97199999D01*
X137848866Y-97199999D02*
X137610771Y-97199999D01*
X137610771Y-97199999D02*
X137420295Y-97152380D01*
X137420295Y-97152380D02*
X137325057Y-97104761D01*
X137325057Y-97104761D02*
X137277438Y-97057142D01*
X137277438Y-97057142D02*
X137229819Y-96961904D01*
X140229819Y-101961904D02*
X141039342Y-101961904D01*
X141039342Y-101961904D02*
X141134580Y-101914285D01*
X141134580Y-101914285D02*
X141182200Y-101866666D01*
X141182200Y-101866666D02*
X141229819Y-101771428D01*
X141229819Y-101771428D02*
X141229819Y-101580952D01*
X141229819Y-101580952D02*
X141182200Y-101485714D01*
X141182200Y-101485714D02*
X141134580Y-101438095D01*
X141134580Y-101438095D02*
X141039342Y-101390476D01*
X141039342Y-101390476D02*
X140229819Y-101390476D01*
X140229819Y-100485714D02*
X140229819Y-100676190D01*
X140229819Y-100676190D02*
X140277438Y-100771428D01*
X140277438Y-100771428D02*
X140325057Y-100819047D01*
X140325057Y-100819047D02*
X140467914Y-100914285D01*
X140467914Y-100914285D02*
X140658390Y-100961904D01*
X140658390Y-100961904D02*
X141039342Y-100961904D01*
X141039342Y-100961904D02*
X141134580Y-100914285D01*
X141134580Y-100914285D02*
X141182200Y-100866666D01*
X141182200Y-100866666D02*
X141229819Y-100771428D01*
X141229819Y-100771428D02*
X141229819Y-100580952D01*
X141229819Y-100580952D02*
X141182200Y-100485714D01*
X141182200Y-100485714D02*
X141134580Y-100438095D01*
X141134580Y-100438095D02*
X141039342Y-100390476D01*
X141039342Y-100390476D02*
X140801247Y-100390476D01*
X140801247Y-100390476D02*
X140706009Y-100438095D01*
X140706009Y-100438095D02*
X140658390Y-100485714D01*
X140658390Y-100485714D02*
X140610771Y-100580952D01*
X140610771Y-100580952D02*
X140610771Y-100771428D01*
X140610771Y-100771428D02*
X140658390Y-100866666D01*
X140658390Y-100866666D02*
X140706009Y-100914285D01*
X140706009Y-100914285D02*
X140801247Y-100961904D01*
D10*
X137807614Y-110192856D02*
X137821900Y-110207142D01*
X137821900Y-110207142D02*
X137836185Y-110249999D01*
X137836185Y-110249999D02*
X137836185Y-110278571D01*
X137836185Y-110278571D02*
X137821900Y-110321428D01*
X137821900Y-110321428D02*
X137793328Y-110349999D01*
X137793328Y-110349999D02*
X137764757Y-110364285D01*
X137764757Y-110364285D02*
X137707614Y-110378571D01*
X137707614Y-110378571D02*
X137664757Y-110378571D01*
X137664757Y-110378571D02*
X137607614Y-110364285D01*
X137607614Y-110364285D02*
X137579042Y-110349999D01*
X137579042Y-110349999D02*
X137550471Y-110321428D01*
X137550471Y-110321428D02*
X137536185Y-110278571D01*
X137536185Y-110278571D02*
X137536185Y-110249999D01*
X137536185Y-110249999D02*
X137550471Y-110207142D01*
X137550471Y-110207142D02*
X137564757Y-110192856D01*
X137836185Y-109907142D02*
X137836185Y-110078571D01*
X137836185Y-109992856D02*
X137536185Y-109992856D01*
X137536185Y-109992856D02*
X137579042Y-110021428D01*
X137579042Y-110021428D02*
X137607614Y-110049999D01*
X137607614Y-110049999D02*
X137621900Y-110078571D01*
X137836185Y-109764285D02*
X137836185Y-109707142D01*
X137836185Y-109707142D02*
X137821900Y-109678571D01*
X137821900Y-109678571D02*
X137807614Y-109664285D01*
X137807614Y-109664285D02*
X137764757Y-109635714D01*
X137764757Y-109635714D02*
X137707614Y-109621428D01*
X137707614Y-109621428D02*
X137593328Y-109621428D01*
X137593328Y-109621428D02*
X137564757Y-109635714D01*
X137564757Y-109635714D02*
X137550471Y-109650000D01*
X137550471Y-109650000D02*
X137536185Y-109678571D01*
X137536185Y-109678571D02*
X137536185Y-109735714D01*
X137536185Y-109735714D02*
X137550471Y-109764285D01*
X137550471Y-109764285D02*
X137564757Y-109778571D01*
X137564757Y-109778571D02*
X137593328Y-109792857D01*
X137593328Y-109792857D02*
X137664757Y-109792857D01*
X137664757Y-109792857D02*
X137693328Y-109778571D01*
X137693328Y-109778571D02*
X137707614Y-109764285D01*
X137707614Y-109764285D02*
X137721900Y-109735714D01*
X137721900Y-109735714D02*
X137721900Y-109678571D01*
X137721900Y-109678571D02*
X137707614Y-109650000D01*
X137707614Y-109650000D02*
X137693328Y-109635714D01*
X137693328Y-109635714D02*
X137664757Y-109621428D01*
X130707614Y-109692856D02*
X130721900Y-109707142D01*
X130721900Y-109707142D02*
X130736185Y-109749999D01*
X130736185Y-109749999D02*
X130736185Y-109778571D01*
X130736185Y-109778571D02*
X130721900Y-109821428D01*
X130721900Y-109821428D02*
X130693328Y-109849999D01*
X130693328Y-109849999D02*
X130664757Y-109864285D01*
X130664757Y-109864285D02*
X130607614Y-109878571D01*
X130607614Y-109878571D02*
X130564757Y-109878571D01*
X130564757Y-109878571D02*
X130507614Y-109864285D01*
X130507614Y-109864285D02*
X130479042Y-109849999D01*
X130479042Y-109849999D02*
X130450471Y-109821428D01*
X130450471Y-109821428D02*
X130436185Y-109778571D01*
X130436185Y-109778571D02*
X130436185Y-109749999D01*
X130436185Y-109749999D02*
X130450471Y-109707142D01*
X130450471Y-109707142D02*
X130464757Y-109692856D01*
X130464757Y-109578571D02*
X130450471Y-109564285D01*
X130450471Y-109564285D02*
X130436185Y-109535714D01*
X130436185Y-109535714D02*
X130436185Y-109464285D01*
X130436185Y-109464285D02*
X130450471Y-109435714D01*
X130450471Y-109435714D02*
X130464757Y-109421428D01*
X130464757Y-109421428D02*
X130493328Y-109407142D01*
X130493328Y-109407142D02*
X130521900Y-109407142D01*
X130521900Y-109407142D02*
X130564757Y-109421428D01*
X130564757Y-109421428D02*
X130736185Y-109592856D01*
X130736185Y-109592856D02*
X130736185Y-109407142D01*
X130436185Y-109135714D02*
X130436185Y-109278571D01*
X130436185Y-109278571D02*
X130579042Y-109292857D01*
X130579042Y-109292857D02*
X130564757Y-109278571D01*
X130564757Y-109278571D02*
X130550471Y-109250000D01*
X130550471Y-109250000D02*
X130550471Y-109178571D01*
X130550471Y-109178571D02*
X130564757Y-109150000D01*
X130564757Y-109150000D02*
X130579042Y-109135714D01*
X130579042Y-109135714D02*
X130607614Y-109121428D01*
X130607614Y-109121428D02*
X130679042Y-109121428D01*
X130679042Y-109121428D02*
X130707614Y-109135714D01*
X130707614Y-109135714D02*
X130721900Y-109150000D01*
X130721900Y-109150000D02*
X130736185Y-109178571D01*
X130736185Y-109178571D02*
X130736185Y-109250000D01*
X130736185Y-109250000D02*
X130721900Y-109278571D01*
X130721900Y-109278571D02*
X130707614Y-109292857D01*
X116250000Y-104136185D02*
X116150000Y-103993328D01*
X116078571Y-104136185D02*
X116078571Y-103836185D01*
X116078571Y-103836185D02*
X116192857Y-103836185D01*
X116192857Y-103836185D02*
X116221428Y-103850471D01*
X116221428Y-103850471D02*
X116235714Y-103864757D01*
X116235714Y-103864757D02*
X116250000Y-103893328D01*
X116250000Y-103893328D02*
X116250000Y-103936185D01*
X116250000Y-103936185D02*
X116235714Y-103964757D01*
X116235714Y-103964757D02*
X116221428Y-103979042D01*
X116221428Y-103979042D02*
X116192857Y-103993328D01*
X116192857Y-103993328D02*
X116078571Y-103993328D01*
X116350000Y-103836185D02*
X116535714Y-103836185D01*
X116535714Y-103836185D02*
X116435714Y-103950471D01*
X116435714Y-103950471D02*
X116478571Y-103950471D01*
X116478571Y-103950471D02*
X116507143Y-103964757D01*
X116507143Y-103964757D02*
X116521428Y-103979042D01*
X116521428Y-103979042D02*
X116535714Y-104007614D01*
X116535714Y-104007614D02*
X116535714Y-104079042D01*
X116535714Y-104079042D02*
X116521428Y-104107614D01*
X116521428Y-104107614D02*
X116507143Y-104121900D01*
X116507143Y-104121900D02*
X116478571Y-104136185D01*
X116478571Y-104136185D02*
X116392857Y-104136185D01*
X116392857Y-104136185D02*
X116364285Y-104121900D01*
X116364285Y-104121900D02*
X116350000Y-104107614D01*
X109278571Y-106579042D02*
X109178571Y-106579042D01*
X109178571Y-106736185D02*
X109178571Y-106436185D01*
X109178571Y-106436185D02*
X109321428Y-106436185D01*
X109435714Y-106736185D02*
X109435714Y-106436185D01*
X109578571Y-106736185D02*
X109578571Y-106436185D01*
X109578571Y-106436185D02*
X109650000Y-106436185D01*
X109650000Y-106436185D02*
X109692857Y-106450471D01*
X109692857Y-106450471D02*
X109721428Y-106479042D01*
X109721428Y-106479042D02*
X109735714Y-106507614D01*
X109735714Y-106507614D02*
X109750000Y-106564757D01*
X109750000Y-106564757D02*
X109750000Y-106607614D01*
X109750000Y-106607614D02*
X109735714Y-106664757D01*
X109735714Y-106664757D02*
X109721428Y-106693328D01*
X109721428Y-106693328D02*
X109692857Y-106721900D01*
X109692857Y-106721900D02*
X109650000Y-106736185D01*
X109650000Y-106736185D02*
X109578571Y-106736185D01*
X110007143Y-106536185D02*
X110007143Y-106736185D01*
X109935714Y-106421900D02*
X109864285Y-106636185D01*
X109864285Y-106636185D02*
X110050000Y-106636185D01*
G04 #@! TO.C,R5*
D12*
X118200000Y-103750000D02*
X119200000Y-103750000D01*
X119200000Y-104250000D01*
X118200000Y-104250000D01*
X118200000Y-103750000D01*
G04 #@! TO.C,C8*
X118480000Y-110450000D02*
X119480000Y-110450000D01*
X119480000Y-110950000D01*
X118480000Y-110950000D01*
X118480000Y-110450000D01*
G04 #@! TO.C,U5*
X138900000Y-107700000D02*
X138900000Y-107000000D01*
X139200000Y-106700000D02*
X138900000Y-107000000D01*
X139200000Y-106700000D02*
X139700000Y-106700000D01*
X139700000Y-106700000D02*
X139700000Y-107700000D01*
X139700000Y-107700000D02*
X138900000Y-107700000D01*
G04 #@! TO.C,U2*
X114980000Y-108750000D02*
X113780000Y-108750000D01*
X113780000Y-105850000D01*
X115380000Y-105850000D01*
X115380000Y-108350000D01*
X114980000Y-108750000D01*
G04 #@! TO.C,C4*
X112450000Y-104220000D02*
X112950000Y-104220000D01*
X112950000Y-105220000D01*
X112450000Y-105220000D01*
X112450000Y-104220000D01*
G04 #@! TO.C,C9*
X118740000Y-97150000D02*
X119740000Y-97150000D01*
X119740000Y-97650000D01*
X118740000Y-97650000D01*
X118740000Y-97150000D01*
G04 #@! TO.C,C6*
X111450000Y-104220000D02*
X111950000Y-104220000D01*
X111950000Y-105220000D01*
X111450000Y-105220000D01*
X111450000Y-104220000D01*
G04 #@! TO.C,C10*
X120640000Y-97150000D02*
X121640000Y-97150000D01*
X121640000Y-97650000D01*
X120640000Y-97650000D01*
X120640000Y-97150000D01*
G04 #@! TO.C,C28*
X133625000Y-105900000D02*
X134625000Y-105900000D01*
X134625000Y-106400000D01*
X133625000Y-106400000D01*
X133625000Y-105900000D01*
G04 #@! TO.C,C15*
X129350000Y-109000000D02*
X129850000Y-109000000D01*
X129850000Y-110000000D01*
X129350000Y-110000000D01*
X129350000Y-109000000D01*
G04 #@! TO.C,C21*
X122400000Y-104250000D02*
X123400000Y-104250000D01*
X123400000Y-104750000D01*
X122400000Y-104750000D01*
X122400000Y-104250000D01*
G04 #@! TO.C,RN1*
X125700000Y-97600000D02*
X127700000Y-97600000D01*
X125700000Y-98600000D02*
X125700000Y-97600000D01*
X127700000Y-97600000D02*
X127700000Y-98600000D01*
X127700000Y-98600000D02*
X125700000Y-98600000D01*
G04 #@! TO.C,FID3*
X135700000Y-97400000D02*
G75*
G02*
X134700000Y-97400000I-500000J0D01*
G01*
X134700000Y-97400000D02*
G75*
G02*
X135700000Y-97400000I500000J0D01*
G01*
G04 #@! TO.C,C26*
X128350000Y-109000000D02*
X128850000Y-109000000D01*
X128850000Y-110000000D01*
X128350000Y-110000000D01*
X128350000Y-109000000D01*
G04 #@! TO.C,U3*
X115800000Y-103150000D02*
X114600000Y-103150000D01*
X114600000Y-100250000D01*
X116200000Y-100250000D01*
X116200000Y-102750000D01*
X115800000Y-103150000D01*
G04 #@! TO.C,C5*
X113680000Y-104750000D02*
X114680000Y-104750000D01*
X114680000Y-105250000D01*
X113680000Y-105250000D01*
X113680000Y-104750000D01*
G04 #@! TO.C,L1*
X117015000Y-104860000D02*
X120015000Y-104860000D01*
X120015000Y-107860000D01*
X117015000Y-107860000D01*
X117015000Y-104860000D01*
G04 #@! TO.C,R2*
X111750000Y-108400000D02*
X112250000Y-108400000D01*
X112250000Y-109400000D01*
X111750000Y-109400000D01*
X111750000Y-108400000D01*
G04 #@! TO.C,RN2*
X128300000Y-97600000D02*
X130300000Y-97600000D01*
X128300000Y-98600000D02*
X128300000Y-97600000D01*
X130300000Y-97600000D02*
X130300000Y-98600000D01*
X130300000Y-98600000D02*
X128300000Y-98600000D01*
G04 #@! TO.C,R1*
X113080000Y-109250000D02*
X114080000Y-109250000D01*
X114080000Y-109750000D01*
X113080000Y-109750000D01*
X113080000Y-109250000D01*
G04 #@! TO.C,R4*
X113900000Y-103750000D02*
X114900000Y-103750000D01*
X114900000Y-104250000D01*
X113900000Y-104250000D01*
X113900000Y-103750000D01*
G04 #@! TO.C,SW1*
X120650000Y-106650000D02*
X123550000Y-106650000D01*
X120650000Y-110550000D02*
X120650000Y-106650000D01*
X123550000Y-106650000D02*
X123550000Y-110550000D01*
X123550000Y-110550000D02*
X120650000Y-110550000D01*
X123100000Y-108600000D02*
G75*
G02*
X121100000Y-108600000I-1000000J0D01*
G01*
X121100000Y-108600000D02*
G75*
G02*
X123100000Y-108600000I1000000J0D01*
G01*
G04 #@! TO.C,C27*
X133625000Y-104950000D02*
X134625000Y-104950000D01*
X134625000Y-105450000D01*
X133625000Y-105450000D01*
X133625000Y-104950000D01*
G04 #@! TO.C,C23*
X122400000Y-103250000D02*
X123400000Y-103250000D01*
X123400000Y-103750000D01*
X122400000Y-103750000D01*
X122400000Y-103250000D01*
G04 #@! TO.C,C11*
X118720000Y-101750000D02*
X119720000Y-101750000D01*
X119720000Y-102250000D01*
X118720000Y-102250000D01*
X118720000Y-101750000D01*
G04 #@! TO.C,L2*
X117800000Y-98200000D02*
X120800000Y-98200000D01*
X120800000Y-101200000D01*
X117800000Y-101200000D01*
X117800000Y-98200000D01*
G04 #@! TO.C,Y2*
X136670000Y-108520000D02*
X136670000Y-111020000D01*
X134095000Y-111020000D01*
X133470000Y-110395000D01*
X133470000Y-108520000D01*
X136670000Y-108520000D01*
G04 #@! TO.C,C7*
X118480000Y-108450000D02*
X119480000Y-108450000D01*
X119480000Y-108950000D01*
X118480000Y-108950000D01*
X118480000Y-108450000D01*
G04 #@! TO.C,FID2*
X116000000Y-110800000D02*
G75*
G02*
X115000000Y-110800000I-500000J0D01*
G01*
X115000000Y-110800000D02*
G75*
G02*
X116000000Y-110800000I500000J0D01*
G01*
G04 #@! TO.C,C3*
X114220000Y-99150000D02*
X115220000Y-99150000D01*
X115220000Y-99650000D01*
X114220000Y-99650000D01*
X114220000Y-99150000D01*
G04 #@! TO.C,C2*
X114220000Y-98150000D02*
X115220000Y-98150000D01*
X115220000Y-98650000D01*
X114220000Y-98650000D01*
X114220000Y-98150000D01*
G04 #@! TO.C,C1*
X112990000Y-98400000D02*
X113490000Y-98400000D01*
X113490000Y-99400000D01*
X112990000Y-99400000D01*
X112990000Y-98400000D01*
G04 #@! TO.C,C17*
X122400000Y-102250000D02*
X123400000Y-102250000D01*
X123400000Y-102750000D01*
X122400000Y-102750000D01*
X122400000Y-102250000D01*
G04 #@! TO.C,C12*
X118480000Y-109450000D02*
X119480000Y-109450000D01*
X119480000Y-109950000D01*
X118480000Y-109950000D01*
X118480000Y-109450000D01*
G04 #@! TO.C,C20*
X132250000Y-109100000D02*
X132750000Y-109100000D01*
X132750000Y-110100000D01*
X132250000Y-110100000D01*
X132250000Y-109100000D01*
G04 #@! TO.C,U1*
X131522500Y-107940000D02*
X124522500Y-107940000D01*
X124522500Y-99940000D01*
X132522500Y-99940000D01*
X132522500Y-106940000D01*
X131522500Y-107940000D01*
G04 #@! TO.C,U6*
X138875000Y-101700000D02*
X138875000Y-101000000D01*
X139175000Y-100700000D02*
X138875000Y-101000000D01*
X139175000Y-100700000D02*
X139675000Y-100700000D01*
X139675000Y-100700000D02*
X139675000Y-101700000D01*
X139675000Y-101700000D02*
X138875000Y-101700000D01*
G04 #@! TO.C,C19*
X137450000Y-109500000D02*
X137950000Y-109500000D01*
X137950000Y-110500000D01*
X137450000Y-110500000D01*
X137450000Y-109500000D01*
G04 #@! TO.C,C25*
X130350000Y-109000000D02*
X130850000Y-109000000D01*
X130850000Y-110000000D01*
X130350000Y-110000000D01*
X130350000Y-109000000D01*
G04 #@! TO.C,R3*
X115800000Y-103750000D02*
X116800000Y-103750000D01*
X116800000Y-104250000D01*
X115800000Y-104250000D01*
X115800000Y-103750000D01*
G04 #@! TO.C,FID4*
X110100000Y-106600000D02*
G75*
G02*
X109100000Y-106600000I-500000J0D01*
G01*
X109100000Y-106600000D02*
G75*
G02*
X110100000Y-106600000I500000J0D01*
G01*
G04 #@! TD*
M02*
